<?xml version="1.0" standalone="no"?>
<!DOCTYPE svg PUBLIC "-//W3C//DTD SVG 20010904//EN"
 "http://www.w3.org/TR/2001/REC-SVG-20010904/DTD/svg10.dtd">
<svg version="1.0" xmlns="http://www.w3.org/2000/svg"
 width="6000.000000pt" height="3000.000000pt" viewBox="0 0 6000.000000 3000.000000"
 preserveAspectRatio="xMidYMid meet">
<metadata>
Created by potrace 1.16, written by Peter Selinger 2001-2019
</metadata>
<g transform="translate(0.000000,3000.000000) scale(0.100000,-0.100000)"
fill="#000000" stroke="none">
<path d="M0 17625 l0 -12375 975 0 c567 0 975 4 975 9 0 5 -25 167 -55 359
-30 193 -55 353 -55 356 0 3 293 7 650 8 l650 3 -40 54 c-58 77 -106 167 -141
262 -52 142 -63 209 -62 384 0 140 3 172 26 258 84 315 291 568 582 708 296
143 632 154 930 31 349 -145 625 -496 663 -847 11 -98 7 -285 -7 -360 -39
-200 -141 -399 -280 -543 l-52 -53 20 -28 c42 -58 47 -59 99 -8 l48 47 1342 7
1342 6 0 23 c0 58 -43 54 630 54 l618 0 6 23 c3 12 6 36 6 54 0 58 6 63 76 63
l64 0 0 39 c0 112 -31 1118 -35 1128 -2 7 -19 13 -37 13 -27 0 -94 16 -380 91
-44 11 -44 9 -26 160 l11 101 174 -7 174 -7 -6 388 c-3 214 -8 455 -10 536 -5
125 -3 148 9 148 13 0 14 31 9 219 l-6 220 34 5 c46 8 270 36 286 36 7 0 10
-6 7 -13 -2 -7 -47 -23 -99 -36 -52 -13 -98 -27 -101 -32 -3 -5 -2 -96 2 -202
l7 -192 754 3 755 4 -7 -538 c-4 -297 -8 -545 -11 -552 -3 -10 10 -12 54 -10
l57 3 3 552 2 553 181 0 182 0 -8 -551 -7 -552 175 8 175 7 6 -68 c4 -38 9
-95 12 -126 l6 -57 -39 -10 c-252 -67 -356 -91 -395 -91 l-47 0 -5 -53 c-3
-28 -8 -250 -11 -492 -3 -242 -8 -482 -12 -533 l-6 -92 76 0 75 0 7 -70 7 -70
1444 0 1444 0 0 -25 0 -25 895 0 895 0 0 25 0 25 458 0 c252 0 461 -2 463 -4
3 -3 3 -23 1 -45 l-4 -41 -383 0 -383 0 -1 -177 c-1 -98 -8 -239 -15 -313 -8
-74 -12 -137 -11 -140 6 -10 1315 -12 1315 -2 0 5 -25 166 -55 357 -30 192
-55 352 -55 357 0 4 236 8 525 8 l525 0 0 78 c0 42 -7 392 -15 777 -7 385 -12
701 -10 703 6 6 525 -42 537 -49 9 -6 8 -180 -5 -726 -10 -395 -17 -733 -17
-750 l0 -33 93 0 94 0 6 218 c3 119 11 451 17 737 7 286 15 529 20 540 7 19
78 51 88 40 5 -4 -15 -1141 -24 -1377 l-6 -158 451 0 451 0 0 108 c-1 59 -7
409 -14 777 -8 369 -12 672 -10 674 6 6 524 -43 536 -51 11 -6 4 -469 -19
-1290 l-6 -218 95 0 95 0 6 203 c4 111 11 434 18 717 6 283 14 533 18 554 5
34 11 41 45 53 22 7 41 11 44 8 5 -5 -15 -1244 -24 -1417 l-5 -118 170 0 170
0 -4 32 c-6 46 -29 1518 -24 1522 2 2 56 -1 119 -8 91 -9 115 -14 115 -26 0
-19 20 -28 64 -29 l34 -1 -8 -542 c-9 -670 -17 -894 -33 -910 -35 -35 -17 -38
203 -38 l215 0 -5 28 c-6 36 -29 1521 -24 1526 2 2 55 -1 117 -7 95 -9 112
-13 112 -28 0 -20 20 -29 66 -29 l34 0 -5 -152 c-3 -84 -7 -397 -10 -696 -5
-500 -7 -547 -24 -593 l-19 -49 679 0 679 0 0 23 c0 13 -25 515 -55 1115 -30
600 -55 1107 -55 1127 l0 35 -78 0 -78 0 22 143 c13 78 23 148 23 155 1 9 164
12 781 12 429 0 780 2 780 5 0 10 30 200 35 223 l5 22 1280 0 1280 0 5 -22 c8
-34 45 -284 45 -302 0 -13 -15 -16 -85 -16 l-85 0 -1 -102 c0 -57 -4 -159 -9
-228 -14 -219 -88 -1682 -90 -1770 0 -47 -5 -152 -10 -235 -5 -82 -10 -158
-10 -167 0 -17 21 -18 310 -18 242 0 310 3 310 13 0 12 -63 970 -75 1132 -11
154 -43 630 -43 645 0 8 -14 211 -31 449 -17 239 -31 463 -31 497 0 33 -3 82
-6 108 l-7 46 -128 0 c-97 0 -129 3 -129 13 1 6 18 93 39 192 l38 180 1971 3
c1870 2 1971 1 1976 -15 5 -20 76 -361 76 -368 0 -3 -58 -5 -129 -5 l-130 0
-5 -52 c-2 -29 -10 -150 -16 -268 -6 -118 -14 -234 -17 -258 l-6 -42 -551 2
c-303 2 -891 2 -1307 1 l-756 -3 -7 -841 c-4 -463 -6 -843 -4 -845 2 -2 568
-4 1257 -6 689 -2 1254 -5 1256 -8 1 -3 -6 -117 -16 -255 -10 -137 -18 -265
-18 -283 l-1 -32 564 2 c310 2 560 0 554 -3 -6 -4 -9 -25 -6 -48 l4 -41 -371
-1 c-203 -1 -375 -1 -381 0 -7 1 -12 -24 -13 -66 -4 -191 -13 -367 -21 -443
-6 -47 -10 -95 -10 -107 l0 -22 513 -1 513 0 1 27 c1 119 21 658 24 658 1 0 3
35 4 78 2 44 6 81 9 84 6 6 525 42 619 43 l57 0 0 -32 c0 -17 2 -29 4 -27 7 8
14 99 7 95 -4 -3 -7 4 -7 14 0 10 4 16 9 13 5 -3 6 34 3 83 -21 296 -133 3130
-164 4129 l-37 1190 -107 3 c-60 1 -108 6 -108 11 0 13 -39 373 -45 414 l-5
37 439 0 439 0 6 33 c3 17 51 334 106 702 55 369 103 676 105 683 3 9 110 12
490 12 455 0 485 1 485 18 1 50 -32 742 -36 770 l-5 32 -305 0 -304 0 -150 75
c-144 72 -149 76 -145 102 6 34 135 1301 135 1326 0 16 66 17 1068 17 l1068 0
124 -86 c69 -48 128 -89 132 -93 7 -6 -107 -1301 -117 -1328 -3 -10 -79 -13
-335 -13 -326 0 -330 0 -330 -21 0 -31 -29 -634 -34 -721 l-5 -78 521 0 c492
0 550 -2 1047 -36 289 -19 530 -39 534 -43 5 -5 71 -219 149 -477 77 -258 144
-473 149 -478 4 -5 110 -24 235 -42 124 -18 230 -36 234 -41 4 -4 27 -77 51
-160 l44 -153 228 0 c125 0 227 3 227 6 0 3 -31 49 -68 102 -355 502 -785
1223 -1311 2197 l-92 170 -80 22 c-44 13 -115 38 -157 56 -73 31 -77 35 -90
77 -35 118 -91 351 -97 406 l-7 61 36 22 c20 13 36 26 36 31 0 5 -17 19 -39
31 -43 24 -60 62 -68 159 l-5 56 43 35 c66 54 204 141 295 187 l80 40 96 -37
c52 -21 115 -51 139 -67 38 -26 44 -35 47 -69 6 -66 40 -65 69 2 21 52 16 75
-34 154 l-48 74 0 145 c0 139 1 147 28 202 60 122 166 158 239 81 l25 -28 -10
-118 c-8 -88 -8 -154 1 -255 13 -136 13 -138 71 -262 71 -150 84 -194 83 -285
0 -78 -4 -96 -56 -273 -56 -191 -66 -163 151 -402 318 -350 932 -951 971 -950
4 0 35 50 70 110 69 119 86 139 74 88 -14 -65 -7 -309 11 -385 37 -155 101
-303 203 -472 38 -63 76 -126 84 -140 47 -79 44 -80 55 21 l10 93 -53 89
c-113 189 -187 357 -227 515 -26 104 -50 316 -40 360 12 54 248 364 480 631
65 74 206 232 314 350 167 182 205 229 246 307 l49 91 105 16 c171 27 494 65
502 60 4 -2 -5 -33 -21 -68 -73 -160 -142 -399 -177 -611 -26 -158 -26 -593 0
-750 41 -245 100 -443 194 -652 l55 -123 30 18 c54 32 326 238 444 337 424
355 799 774 1089 1215 123 188 178 284 301 525 l111 220 222 -1 c216 -2 399
-14 551 -37 l75 -12 -109 -115 c-738 -779 -1255 -1586 -1522 -2375 -51 -153
-134 -456 -134 -493 0 -14 33 -25 172 -60 252 -64 678 -204 678 -223 0 -5 -14
-28 -31 -52 l-31 -42 159 -7 c87 -4 336 -8 553 -10 l395 -3 -3 37 c-7 67 58
242 127 342 l31 45 -39 88 c-21 48 -55 123 -75 166 l-35 77 24 0 c35 0 278 64
358 94 267 102 496 274 626 472 l48 73 51 -162 c28 -89 71 -234 95 -322 l43
-160 -8 -170 c-7 -154 -31 -447 -45 -551 l-5 -41 308 -6 c170 -4 397 -7 505
-7 l195 0 -12 108 c-7 59 -13 110 -14 115 0 4 -39 7 -88 7 l-87 0 -58 115
c-31 63 -57 117 -57 120 0 3 59 5 130 5 97 0 130 3 130 13 0 6 -43 381 -94
832 -52 450 -92 823 -90 827 3 4 255 8 560 8 437 0 554 -3 554 -12 -1 -45 62
-1591 66 -1625 l5 -43 165 0 164 0 1 28 c2 41 0 496 -8 1822 -4 657 -8 1266
-8 1352 l0 158 -152 0 -153 0 0 -67 c0 -38 7 -216 15 -398 8 -181 15 -342 15
-358 l0 -27 -457 2 -457 3 -48 410 c-26 226 -47 416 -48 423 0 9 -25 12 -90
12 l-90 0 -55 110 c-30 60 -55 112 -55 115 0 3 59 5 130 5 97 0 130 3 130 13
0 6 -43 381 -94 832 -52 450 -92 823 -90 827 3 4 255 8 560 8 437 0 554 -3
554 -12 -1 -45 62 -1591 66 -1625 l5 -43 161 0 c134 0 159 2 155 14 -3 8 -9
649 -13 1425 l-7 1411 192 0 192 0 -7 -1092 c-4 -601 -7 -1111 -8 -1133 0 -22
1 -174 2 -337 l2 -298 144 0 144 0 6 103 c4 56 17 386 31 732 13 347 27 681
31 743 l6 112 559 0 559 0 -5 -38 c-10 -66 -185 -1605 -185 -1623 0 -16 11
-19 95 -21 l95 -3 -55 -112 -54 -113 -55 0 -54 0 -6 -37 c-3 -21 -24 -198 -46
-393 -22 -195 -42 -370 -45 -388 l-6 -32 -454 0 -455 0 0 53 c0 28 7 201 15
382 8 182 15 349 15 373 l0 42 -145 0 -145 0 -1 -532 c0 -293 -2 -738 -5 -988
-2 -250 -6 -767 -8 -1147 l-3 -693 81 -1 c102 -1 230 2 234 6 2 2 69 1559 72
1668 0 4 252 7 560 7 l560 0 -5 -38 c-10 -66 -185 -1605 -185 -1624 0 -16 9
-18 95 -18 52 0 95 -2 95 -5 0 -3 -26 -57 -57 -120 l-58 -115 -52 0 c-51 0
-52 -1 -57 -32 -6 -32 -26 -205 -66 -563 -11 -99 -22 -195 -25 -213 l-6 -32
-454 0 -455 0 0 38 c0 20 7 207 16 415 9 208 13 381 10 384 -5 6 -298 5 -303
0 -1 -2 -4 -369 -7 -817 -3 -448 -8 -1201 -12 -1672 l-5 -858 169 0 170 0 6
93 c3 50 17 378 31 727 13 349 27 683 31 743 l6 107 558 0 559 0 -5 -32 c-10
-67 -184 -1602 -184 -1620 0 -16 10 -18 95 -18 52 0 95 -2 95 -5 0 -3 -26 -57
-57 -120 l-58 -115 -52 0 c-63 0 -50 52 -103 -420 -22 -195 -42 -370 -45 -387
l-6 -33 -454 0 -455 0 0 38 c0 20 7 207 16 415 9 208 13 381 10 384 -3 3 -39
5 -81 5 -41 0 -114 -1 -162 -1 l-88 -1 -3 -678 -3 -677 148 -212 c178 -255
306 -441 604 -875 l224 -327 970 -3 970 -3 12 -145 c6 -80 12 -166 12 -192 l1
-48 -49 0 -48 0 -7 -102 c-4 -57 -9 -115 -12 -130 l-6 -28 3086 0 c1697 0
3086 1 3086 3 0 5 119 600 125 625 5 22 8 22 156 22 l151 0 -3 -269 c-2 -148
-7 -267 -11 -264 -5 2 -8 -23 -8 -56 l0 -60 1595 -1 1595 0 0 12375 0 12375
-4598 0 -4599 0 -6 -922 c-4 -508 -7 -1109 -7 -1335 l0 -413 224 0 224 0 29
-152 28 -153 238 -3 238 -2 70 -148 c165 -343 190 -395 187 -402 -2 -4 -39
-57 -83 -118 l-80 -111 -300 -5 c-165 -3 -2049 -8 -4186 -12 l-3886 -6 -95
128 -95 127 32 71 c18 39 80 169 138 289 l106 217 140 0 c138 0 141 0 145 23
3 12 15 72 26 132 11 61 23 120 26 133 4 22 4 22 223 22 l218 0 6 733 c4 402
10 996 14 1320 l6 587 -5345 0 -5345 0 -6 -892 c-4 -491 -7 -1092 -7 -1335 l0
-443 224 0 224 0 29 -152 29 -153 238 -3 237 -2 118 -243 c64 -133 123 -256
130 -273 12 -31 11 -34 -71 -147 l-83 -116 -300 -5 c-165 -3 -2049 -8 -4186
-12 l-3886 -6 -95 128 -96 128 28 60 c15 34 77 163 138 289 l111 227 140 0
c138 0 141 0 145 23 3 12 15 72 26 132 11 61 23 120 26 133 4 22 4 22 223 22
l218 0 6 743 c4 408 10 1002 14 1320 l6 577 -5345 0 -5345 0 -6 -857 c-4 -471
-7 -1072 -7 -1335 l0 -478 224 0 223 0 29 -152 29 -153 238 -3 238 -2 58 -123
c32 -67 91 -189 130 -271 39 -82 70 -152 69 -156 -2 -4 -39 -57 -83 -118 l-80
-111 -300 -5 c-165 -3 -2049 -8 -4186 -12 l-3887 -6 -95 128 -95 128 18 41
c10 22 72 151 138 288 l121 247 140 0 139 0 10 48 c6 26 18 88 27 137 9 50 19
98 21 108 5 15 24 17 223 17 l218 0 6 753 c4 413 10 1007 14 1320 l6 567
-5081 0 -5082 0 0 -12375z m16074 5723 c-3 -298 -7 -545 -10 -547 -3 -3 -4
-84 -4 -181 0 -96 -2 -420 -6 -719 -6 -456 -4 -545 7 -553 11 -8 10 -9 -3 -4
-14 4 -18 0 -18 -19 0 -14 6 -25 13 -25 9 0 9 -2 0 -8 -10 -6 -13 -61 -12
-218 0 -115 -2 -329 -7 -476 -6 -222 -5 -270 7 -285 9 -11 10 -14 2 -9 -10 5
-13 -16 -13 -97 l0 -104 74 1 c46 1 72 5 68 11 -3 6 1 5 9 -1 16 -13 99 -15
99 -2 0 4 4 8 8 8 5 0 9 -7 9 -15 0 -11 -11 -15 -36 -15 -20 0 -725 -22 -1566
-50 l-1530 -50 -5859 0 -5859 0 6 213 c4 116 22 966 42 1887 20 921 38 1703
41 1738 l6 62 7268 0 7269 0 -5 -542z m15178 310 c-5 -218 -4 -232 14 -246 16
-13 17 -14 2 -9 -23 8 -23 -1 -1 -25 16 -18 16 -18 -1 -12 -16 6 -17 -4 -14
-154 2 -88 0 -158 -4 -155 -5 2 -8 -128 -8 -289 -1 -161 -3 -406 -6 -544 -4
-175 -2 -254 5 -259 6 -3 11 -12 11 -18 0 -8 -3 -8 -9 1 -4 7 -11 -105 -14
-250 -10 -368 -9 -450 3 -443 6 4 7 12 3 18 -5 8 -2 8 9 0 8 -7 17 -12 19 -10
2 1 2 0 1 -3 -2 -3 -5 -3 -6 0 -1 3 -10 -3 -20 -12 -14 -15 -17 -38 -15 -178
0 -119 4 -158 12 -153 8 5 8 2 0 -9 -7 -8 -10 -18 -6 -21 3 -4 1 -7 -5 -7 -9
0 -12 -92 -12 -362 0 -200 0 -365 0 -368 -11 -51 -11 -51 17 -48 17 2 27 8 25
16 -1 8 2 11 8 7 6 -3 8 -9 6 -13 -2 -4 22 -7 54 -7 36 0 56 4 52 10 -3 6 1 5
9 -2 8 -7 34 -11 57 -9 24 2 45 -1 48 -5 3 -5 -12 -9 -33 -9 -21 0 -726 -23
-1567 -50 l-1529 -50 -5574 0 c-4451 0 -5573 -3 -5574 -12 0 -10 -2 -10 -6 0
-4 10 -40 13 -151 12 -81 -1 -205 -1 -277 0 l-130 0 0 235 c0 129 3 235 7 235
5 0 8 65 7 144 0 79 2 227 4 328 3 103 1 148 -2 103 l-7 -80 -2 82 c-1 50 2
84 9 88 7 5 10 45 8 109 -1 55 1 108 4 116 4 8 8 117 9 243 3 198 1 227 -12
222 -11 -4 -11 -2 2 8 14 12 17 39 19 208 7 482 5 614 -9 611 -9 -2 -6 7 7 24
18 23 21 40 21 138 0 76 -4 116 -12 125 -7 8 -8 11 -2 8 8 -5 13 45 18 166 8
213 7 609 -2 603 -4 -2 -7 38 -7 90 l0 94 7276 0 7276 0 -5 -232z m26162 150
c-2 -53 1 -87 9 -97 7 -9 8 -12 1 -8 -12 7 -27 -192 -24 -313 2 -36 0 -76 -3
-90 -12 -47 -17 -500 -7 -500 6 0 10 -5 10 -11 0 -5 -4 -7 -10 -4 -6 3 -7 -1
-4 -9 3 -9 1 -16 -5 -16 -7 0 -10 -42 -9 -133 1 -74 -1 -138 -4 -143 -4 -5
-10 -126 -14 -269 -11 -381 -13 -547 -4 -495 l7 45 1 -39 c1 -22 -4 -46 -12
-55 -11 -13 -16 -74 -20 -281 -4 -145 -9 -266 -11 -269 -3 -2 -5 -26 -5 -53 0
-33 4 -47 11 -42 8 5 8 1 0 -14 -15 -29 -14 -149 2 -159 6 -4 15 -8 19 -8 3 0
10 -4 15 -9 5 -6 2 -6 -6 -1 -11 6 -13 4 -8 -9 4 -9 3 -15 -2 -11 -5 3 -12 -1
-15 -7 -2 -7 -4 -2 -3 11 1 13 -4 26 -10 28 -10 4 -13 -17 -13 -81 0 -62 3
-86 13 -86 9 0 9 -2 -1 -9 -9 -5 -12 -23 -9 -54 3 -26 1 -44 -4 -41 -5 3 -9
-35 -9 -84 0 -49 -3 -157 -7 -241 l-6 -152 129 6 c86 3 128 8 126 16 -1 6 2 8
8 4 6 -3 8 -11 5 -16 -8 -11 8 -12 21 -1 5 5 20 3 34 -4 24 -13 23 -14 -20
-14 -25 0 -731 -23 -1570 -50 l-1525 -50 -4497 0 -4498 0 0 73 c0 39 18 864
40 1832 22 968 40 1813 40 1878 l0 117 5923 0 5924 0 -3 -82z m-22860 -40 c3
-13 6 -60 6 -105 l0 -81 43 -7 c151 -26 312 -203 362 -398 8 -32 20 -107 26
-165 17 -155 5 -702 -21 -952 -19 -189 -26 -402 -14 -447 5 -19 15 -23 75 -29
l69 -7 0 -82 c0 -45 3 -116 6 -158 6 -67 9 -76 28 -79 24 -3 31 -26 21 -74 -6
-33 -7 -34 -54 -34 l-48 0 -7 -82 c-10 -116 -14 -128 -42 -128 -23 0 -24 4
-26 63 -1 34 0 81 1 105 l3 42 -71 0 -70 0 -3 -102 c-3 -103 -3 -103 -29 -106
-31 -4 -39 15 -39 94 0 28 -3 66 -6 83 -6 28 -10 31 -45 31 l-39 0 0 55 c0 50
2 55 23 55 21 0 22 3 25 118 1 64 5 138 8 165 l6 47 51 0 52 0 0 147 c0 82 3
191 8 243 l7 95 -24 -60 c-38 -97 -82 -178 -113 -207 -61 -58 -169 -75 -248
-39 -42 19 -112 81 -141 126 -9 14 -19 24 -21 22 -2 -3 8 -51 22 -108 15 -57
31 -157 36 -224 9 -110 8 -139 -7 -217 -5 -25 -3 -28 20 -28 17 0 26 -5 26
-16 0 -24 39 -472 46 -521 l5 -43 205 0 204 0 0 -92 c0 -51 -7 -770 -15 -1598
-8 -828 -15 -1522 -15 -1542 l0 -38 -525 0 c-289 0 -525 1 -526 3 -2 5 -28
2770 -28 3010 l-1 257 184 0 184 0 6 53 c3 28 15 157 26 286 12 129 23 238 26
243 3 4 18 8 34 8 39 0 51 25 61 125 13 125 -3 228 -65 415 -100 301 -130 514
-130 930 0 263 11 372 50 495 44 135 128 238 223 271 47 17 51 21 51 50 0 17
3 59 6 93 l7 61 62 0 c57 0 63 -2 69 -22z m1900 -9 c3 -17 6 -64 6 -104 l0
-73 48 -11 c153 -39 303 -226 349 -436 25 -113 25 -815 0 -1039 -23 -204 -31
-359 -23 -438 l7 -66 68 -7 69 -7 7 -159 7 -159 24 0 c22 0 24 -4 24 -55 l0
-55 -55 0 -55 0 -1 -52 c0 -29 -4 -75 -7 -103 -6 -45 -10 -50 -32 -50 -25 0
-25 1 -28 103 l-3 102 -69 0 -69 0 -3 -102 -3 -103 -27 -3 c-25 -3 -26 -1 -32
60 -3 35 -7 81 -9 103 -2 38 -3 40 -39 43 -41 3 -53 23 -46 78 2 21 9 30 26
32 21 3 22 8 22 91 0 48 3 122 6 164 l7 77 52 0 53 0 -5 83 c-5 72 8 295 22
397 4 24 -2 15 -18 -30 -64 -176 -120 -256 -194 -278 -118 -35 -226 10 -315
132 -15 21 -28 36 -28 33 0 -3 14 -63 31 -134 27 -108 32 -149 33 -263 0 -74
-2 -147 -7 -162 -7 -25 -5 -28 17 -28 22 0 25 -5 30 -52 7 -57 46 -504 46
-519 0 -5 88 -9 205 -9 l205 0 -1 -277 c0 -258 -26 -2985 -28 -2990 -1 -2
-237 -3 -526 -3 l-525 0 0 28 c0 15 -7 736 -15 1602 -8 866 -12 1590 -9 1608
l6 32 179 0 c99 0 179 1 180 3 0 1 12 133 27 292 l27 290 37 3 c45 4 55 27 64
147 9 115 -9 218 -66 391 -87 258 -113 406 -131 749 -24 472 35 770 179 896
41 36 107 68 140 69 19 0 22 5 22 43 0 23 3 66 6 95 l7 52 62 0 c62 0 63 0 69
-31z m1796 -51 c0 -107 6 -127 39 -133 64 -13 152 -69 212 -133 101 -111 148
-229 170 -430 17 -155 5 -702 -21 -952 -19 -189 -26 -402 -14 -447 5 -19 15
-23 75 -29 l69 -7 0 -82 c0 -45 3 -116 6 -158 6 -67 9 -76 28 -79 23 -3 32
-41 22 -84 -6 -21 -12 -24 -55 -24 l-48 0 -7 -82 c-9 -109 -14 -128 -36 -128
-28 0 -31 11 -32 115 l-1 95 -68 0 -68 0 -3 -102 c-3 -103 -3 -103 -29 -106
-22 -3 -27 2 -33 29 -3 17 -6 55 -6 83 0 85 -6 96 -51 96 l-39 0 0 55 c0 50 2
55 23 55 21 0 22 3 25 123 1 67 5 141 9 165 l5 42 52 0 51 0 0 147 c0 82 3
191 8 243 l7 95 -24 -60 c-38 -97 -82 -178 -113 -207 -61 -58 -169 -75 -248
-39 -42 19 -112 81 -141 126 -9 14 -19 24 -21 22 -2 -3 8 -51 22 -108 15 -57
31 -157 36 -224 9 -110 8 -139 -7 -217 -5 -25 -3 -28 20 -28 14 0 26 -6 26
-12 0 -22 40 -480 46 -525 l5 -43 205 0 204 0 0 -72 c0 -40 -7 -597 -15 -1238
-8 -641 -15 -1175 -15 -1187 l0 -23 -525 0 c-289 0 -525 1 -526 3 -2 5 -28
2136 -28 2320 l-1 197 184 0 185 0 5 53 c4 28 15 157 27 286 11 129 22 238 25
243 3 4 19 8 35 8 38 0 54 35 63 142 9 116 -8 216 -68 398 -90 271 -119 450
-132 825 -11 303 22 560 91 694 14 29 45 73 68 98 40 44 123 93 158 93 17 0
29 60 29 148 l0 42 70 0 70 0 0 -82z m4158 -915 l-31 -32 31 -38 c16 -21 42
-49 56 -62 l26 -25 35 34 34 33 56 -42 57 -43 30 28 c55 53 118 151 182 285
l63 132 5 -129 c9 -215 67 -384 181 -530 157 -198 418 -321 692 -325 l90 -1
-65 -10 c-84 -12 -187 -48 -258 -90 -58 -35 -156 -124 -186 -170 -17 -26 -16
-28 18 -97 20 -39 36 -75 36 -80 0 -5 -16 -19 -37 -31 -39 -23 -38 -23 -69 34
-21 38 -31 25 -49 -60 -37 -176 -1 -367 99 -517 l45 -66 -57 -6 c-89 -11 -316
-71 -380 -101 -82 -39 -173 -133 -201 -209 -51 -134 -34 -296 50 -494 23 -53
44 -103 47 -111 3 -8 -27 15 -66 52 -121 113 -287 179 -495 197 -336 28 -601
-92 -664 -302 l-17 -59 -20 59 c-38 116 -170 214 -376 279 -47 15 -87 28 -88
30 -3 2 849 943 1287 1423 47 51 99 109 115 129 l30 35 -55 45 c-30 26 -90 81
-135 124 l-80 78 -23 -24 -23 -25 36 -43 c19 -24 54 -65 76 -92 23 -26 40 -52
38 -57 -2 -4 -47 -58 -101 -119 l-98 -111 -43 35 -42 35 -224 -230 c-123 -126
-226 -226 -229 -222 -7 10 -27 15 -63 17 -31 1 -37 -6 301 338 153 155 155
157 136 178 -10 11 -21 20 -25 20 -6 0 -761 -780 -1020 -1054 l-75 -79 120
-112 119 -113 -34 -38 c-216 -248 -295 -334 -309 -334 -9 0 -39 14 -68 30 -37
21 -61 45 -85 85 -38 64 -40 64 -153 10 -38 -18 -72 -32 -74 -30 -2 2 27 37
63 77 41 44 83 104 107 152 35 69 39 86 39 150 0 58 -5 83 -26 124 -26 53 -82
102 -116 102 -10 0 -18 5 -18 10 0 6 17 10 38 10 86 0 221 57 301 126 160 138
212 396 120 594 -68 147 -230 311 -393 397 -15 8 -6 12 43 17 252 29 462 216
517 463 27 123 10 284 -41 383 -22 42 -17 40 105 -39 195 -127 436 -226 659
-271 57 -11 105 -19 107 -17 2 2 -32 32 -76 67 -44 35 -80 67 -80 72 0 5 86
101 192 214 l192 205 112 -118 112 -118 -30 -32z m-39078 -3499 l0 -225 68
-32 c60 -29 76 -32 157 -32 80 0 97 4 158 32 l67 32 0 225 c0 181 3 226 13
226 25 0 106 -61 158 -118 29 -31 68 -90 87 -129 59 -124 60 -299 4 -425 -40
-90 -146 -204 -227 -245 -16 -9 -31 -17 -33 -18 -2 -1 -9 -501 -17 -1110 l-14
-1107 50 -49 c206 -200 98 -534 -191 -589 -64 -12 -153 1 -213 32 -61 31 -134
105 -164 167 -24 49 -28 68 -28 146 1 78 4 97 29 147 15 31 49 77 75 101 l47
44 -12 999 c-7 549 -13 1047 -13 1106 l-1 106 -47 28 c-104 61 -187 160 -233
279 -20 50 -24 78 -23 170 0 122 18 189 73 274 50 79 199 208 223 194 4 -2 7
-105 7 -229z m51295 31 c-20 -93 -19 -101 14 -115 36 -14 37 -18 14 -37 -10
-8 -12 -11 -4 -7 9 5 12 3 7 -4 -4 -7 -14 -12 -22 -12 -8 0 -14 -7 -14 -15 0
-7 -7 -18 -16 -23 -22 -12 -42 -169 -50 -397 -10 -278 23 -605 87 -890 19 -83
94 -361 106 -391 3 -9 -19 -20 -67 -35 -61 -18 -74 -19 -81 -8 -55 88 -123
213 -144 267 -15 37 -33 81 -40 97 -82 193 -145 533 -145 780 0 283 57 548
166 769 62 125 54 121 131 83 62 -31 64 -33 58 -62z m-46167 -13 c59 -10 73
-19 52 -32 -10 -6 -11 -10 -3 -10 7 0 10 -7 6 -15 -4 -13 -18 -14 -78 -9 l-72
6 -6 -62 c-4 -35 -7 -89 -7 -120 l0 -57 -196 -7 c-108 -4 -200 -4 -204 1 -5 4
-17 59 -28 120 l-19 113 56 21 c114 43 192 57 321 58 69 1 149 -3 178 -7z
m22349 1 c-3 -5 35 -7 84 -5 84 3 89 2 89 -17 0 -18 -6 -21 -42 -22 -24 0 -63
-4 -88 -7 -40 -6 -45 -10 -45 -32 0 -14 5 -28 10 -32 7 -5 6 -8 -1 -8 -6 0 -9
-20 -7 -51 3 -31 0 -48 -6 -45 -5 3 -11 1 -13 -4 -10 -32 -338 -60 -695 -60
-188 0 -243 -3 -243 -12 0 -12 34 -194 131 -697 l43 -224 257 6 c141 3 285 2
320 -3 35 -4 136 -13 224 -19 187 -13 258 -32 360 -97 95 -60 111 -74 118
-111 5 -25 3 -33 -11 -37 -88 -25 -1163 -42 -1434 -23 l-116 9 -37 81 c-21 45
-38 83 -39 84 0 0 -536 20 -1191 43 -2848 99 -3397 119 -3403 124 -5 6 39 155
177 591 l79 250 94 7 c51 4 984 41 2073 83 1089 42 1994 78 2012 81 28 4 32 9
38 47 13 73 13 74 132 82 252 18 1138 32 1130 18z m20921 -170 c3 -57 5 -63
25 -63 12 0 148 -9 302 -20 154 -11 283 -20 287 -20 7 0 -1 -810 -7 -818 -4
-4 -467 -41 -516 -42 l-36 0 -7 53 c-3 28 -19 144 -34 257 l-28 205 -7 -245
c-4 -135 -10 -263 -13 -285 l-6 -40 -117 1 c-64 1 -309 2 -546 4 -236 2 -440
5 -451 7 -21 4 -22 12 -30 206 l-8 202 -12 -80 c-7 -44 -21 -126 -30 -182
l-18 -103 -61 1 c-97 0 -495 25 -500 31 -3 3 -8 190 -12 416 l-6 410 64 6 c68
7 511 36 541 36 15 0 18 9 18 65 l0 65 603 -2 602 -3 3 -62z m-28518 -3 c-10
-7 7 -10 58 -10 39 0 72 -3 72 -8 0 -12 -61 -40 -104 -47 -22 -4 -35 -10 -28
-14 7 -4 8 -12 2 -21 -5 -9 -4 -20 3 -30 6 -8 8 -12 3 -8 -4 3 -16 -2 -26 -12
-10 -10 -26 -22 -36 -28 -18 -10 -18 -14 9 -89 107 -298 407 -1164 407 -1175
0 -7 -53 -41 -116 -76 l-116 -62 -396 2 -397 3 -14 63 -14 62 -1998 0 c-1897
0 -1997 1 -1994 18 2 9 7 34 10 55 l6 37 1975 0 c1877 0 1975 1 1970 18 -11
34 -245 1018 -251 1052 -3 19 -17 82 -31 138 -13 57 -24 112 -24 123 0 18 15
19 523 19 341 0 517 -4 507 -10z m-18618 -327 l3 -198 50 -25 c42 -21 64 -25
135 -25 71 0 93 4 135 25 l50 25 3 198 c1 126 6 197 13 197 20 0 72 -32 115
-72 154 -142 188 -377 81 -560 -31 -53 -123 -142 -171 -165 l-36 -17 0 -270
c0 -149 -5 -580 -10 -959 l-10 -687 40 -36 c61 -55 94 -133 94 -219 0 -118
-59 -212 -170 -266 -237 -117 -499 98 -428 350 14 50 29 76 70 121 l53 57 -9
674 c-5 371 -10 798 -10 950 l0 276 -65 42 c-235 152 -276 473 -86 684 38 42
116 97 138 97 10 0 13 -45 15 -197z m3583 91 c17 -2 67 -7 113 -10 l82 -7 0
-623 0 -624 -160 0 -160 0 -1 103 c0 56 -6 341 -13 632 -7 292 -10 534 -8 538
3 7 29 6 147 -9z m1386 -48 c11 -5 14 -15 11 -33 -5 -25 -6 -25 -68 -19 l-64
7 0 -58 c0 -32 -3 -82 -6 -110 l-7 -53 -176 0 -177 0 -17 102 c-10 55 -14 104
-10 108 9 9 118 45 178 59 42 11 309 8 336 -3z m-964 -278 c-4 -139 -10 -407
-13 -595 l-7 -343 -35 0 -35 0 7 328 c3 180 9 447 13 595 l6 267 35 0 35 0 -6
-252z m5403 112 l0 -120 45 0 45 0 0 74 c0 40 3 94 6 120 l7 46 53 0 c62 0 43
46 153 -361 l81 -296 -25 -154 c-14 -85 -24 -161 -23 -171 3 -14 15 -12 101
17 l97 34 0 -37 c0 -34 -7 -45 -84 -114 -59 -54 -104 -86 -155 -109 -41 -18
-71 -38 -71 -46 0 -9 15 -72 34 -142 84 -309 126 -525 146 -749 17 -181 8
-619 -16 -767 -9 -60 -17 -121 -18 -134 -1 -26 -5 -24 123 -61 l74 -22 -31
-18 c-41 -25 -127 -50 -172 -50 -63 0 -140 29 -182 69 l-40 37 56 314 c68 385
80 492 73 640 -10 194 -40 330 -153 690 -19 63 -46 160 -58 215 l-23 100 -7
-54 c-4 -30 -14 -80 -22 -110 -8 -31 -17 -65 -19 -76 -3 -11 -23 -76 -45 -145
-144 -440 -161 -668 -86 -1115 2 -16 21 -126 42 -244 l37 -215 -43 -38 c-54
-48 -132 -73 -206 -65 -57 6 -180 56 -167 67 4 4 46 17 93 30 47 13 89 26 94
31 4 4 1 49 -7 101 -30 175 -40 340 -34 575 3 125 8 242 11 258 3 17 12 84 21
150 19 145 60 335 120 560 25 93 45 171 45 175 0 3 -35 22 -77 40 -56 25 -99
54 -160 109 -76 69 -83 79 -83 113 0 21 4 38 10 38 5 0 53 -16 106 -35 l96
-34 -5 27 c-3 15 -15 93 -28 173 l-22 145 89 327 89 327 58 0 57 0 0 -120z
m-4261 81 c11 -7 11 -21 0 -87 l-14 -79 -53 -3 -54 -3 6 28 c3 15 11 56 17 91
l12 62 36 0 c20 0 42 -4 50 -9z m3116 -14 l100 -12 3 -62 3 -62 84 -3 85 -3 0
66 0 66 68 6 c37 4 110 9 163 13 l95 6 0 -288 c-1 -185 -5 -289 -11 -289 -48
1 -257 17 -282 21 -31 6 -33 9 -33 49 l0 42 -46 7 c-26 3 -64 6 -85 6 l-38 0
-3 -47 -3 -48 -60 -9 c-75 -11 -540 -13 -617 -3 l-58 8 0 64 0 63 -62 58 c-38
35 -93 72 -138 93 -70 34 -81 36 -170 35 -64 -1 -121 -8 -173 -23 -42 -11 -81
-21 -86 -21 -6 0 -31 65 -31 82 0 8 96 46 175 68 113 33 430 95 585 115 121
16 405 17 535 2z m-7068 -593 c50 -23 66 -26 129 -22 46 3 84 12 105 24 l34
20 3 172 c1 95 6 172 11 172 5 0 35 -20 68 -44 211 -155 205 -463 -11 -620
l-54 -39 -6 -76 c-3 -42 -8 -409 -12 -816 l-6 -740 32 -30 c79 -73 101 -192
54 -290 -94 -200 -382 -197 -473 5 -41 90 -19 212 52 283 l39 39 -6 682 c-3
374 -9 740 -12 813 l-6 132 -42 25 c-55 32 -108 91 -143 158 -38 75 -45 217
-14 300 29 74 80 140 144 183 l52 35 3 -169 2 -170 57 -27z m3528 341 c55 -4
108 -9 118 -11 16 -5 17 -40 17 -550 l0 -544 -139 0 -138 0 -6 148 c-4 81 -10
333 -13 561 l-7 414 34 -6 c19 -3 79 -9 134 -12z m6195 -70 l0 -85 -220 0
-220 0 0 85 0 85 220 0 220 0 0 -85z m-5864 -227 c-3 -156 -9 -401 -12 -545
l-7 -263 -30 0 -30 0 7 308 c15 710 17 771 35 775 46 13 44 24 37 -275z m914
156 c47 -14 89 -29 93 -34 5 -4 3 -36 -3 -71 -18 -101 -16 -99 -64 -99 l-43 0
13 77 c10 56 11 79 2 84 -6 4 -46 7 -89 8 l-79 1 0 -74 c0 -113 11 -106 -160
-106 l-148 0 -16 86 c-9 48 -14 90 -11 94 7 12 120 48 185 59 85 15 223 4 320
-25z m31495 1 c150 -34 279 -76 410 -132 108 -47 110 -49 113 -83 3 -28 -19
-218 -33 -290 -7 -33 -75 -298 -89 -342 l-14 -48 55 -82 55 -83 -6 -120 c-10
-187 -53 -444 -99 -597 -19 -63 -2 -69 36 -12 56 86 165 145 278 152 73 4 77
3 110 -26 33 -30 34 -33 38 -118 8 -201 -70 -354 -216 -426 -54 -26 -79 -33
-129 -33 l-63 0 -20 -110 c-11 -60 -25 -144 -31 -185 -6 -41 -16 -85 -22 -97
-10 -20 -6 -82 18 -278 4 -37 -1 -48 -60 -130 -207 -286 -465 -542 -759 -753
-89 -63 -103 -71 -112 -56 -50 84 -97 150 -149 212 -58 70 -62 72 -106 72 -25
0 -61 4 -81 9 -34 8 -42 4 -142 -68 -58 -42 -141 -106 -185 -142 l-80 -67 -6
37 c-27 162 22 474 109 690 20 50 34 95 30 100 -4 8 -58 21 -92 23 -37 3 -117
344 -143 613 -16 162 -14 487 5 650 31 271 104 567 198 802 l43 108 120 22
c193 35 357 46 583 40 269 -8 479 -43 764 -127 21 -6 43 -10 48 -8 18 6 -182
241 -335 394 -204 203 -363 324 -432 327 -50 2 -346 -13 -354 -18 -3 -2 -33
-6 -65 -10 -94 -10 -298 -54 -404 -86 -53 -16 -103 -31 -111 -33 -35 -9 -198
-70 -248 -92 -86 -38 -73 -20 18 26 241 121 509 209 811 264 86 16 197 47 309
86 169 59 178 61 250 55 41 -3 125 -16 185 -30z m-29305 -405 l0 -170 -30 0
c-28 0 -30 -3 -31 -37 -2 -47 -2 1 6 -345 8 -325 11 -308 -52 -275 l-33 18 0
319 0 320 -60 0 -60 0 1 83 c1 45 4 116 8 157 l6 75 90 11 c50 6 105 12 123
13 l32 1 0 -170z m-2372 113 l22 -5 0 -464 0 -464 -119 0 -119 0 -6 248 c-3
136 -9 350 -12 476 l-6 229 108 -7 c60 -4 119 -10 132 -13z m5517 -18 c-2 -16
-10 -94 -16 -171 l-12 -142 -173 -7 -174 -7 0 -133 0 -133 98 -6 c215 -14 222
-15 222 -41 0 -12 -3 -37 -6 -54 l-6 -31 -149 0 c-110 0 -149 -3 -149 -12 0
-7 -11 -404 -25 -883 l-26 -870 -29 -29 c-54 -54 -191 -45 -228 15 -10 16 -20
270 -42 1092 -16 590 -30 1120 -30 1180 0 98 -2 107 -19 107 -25 0 -31 19 -31
97 l0 65 400 -3 400 -4 -5 -30z m-5329 -272 c-3 -159 -9 -368 -12 -465 l-6
-178 -24 0 c-29 0 -27 -51 -14 509 10 415 10 420 49 421 11 0 12 -48 7 -287z
m7579 152 c44 -27 96 -60 115 -74 19 -14 36 -26 38 -27 8 -5 -22 -195 -32
-203 -9 -7 -215 -51 -239 -51 -4 0 -7 27 -7 59 l0 59 70 13 70 12 0 36 c0 35
-2 37 -68 61 l-67 25 -3 84 -3 84 23 -15 c13 -8 59 -36 103 -63z m-11265 -70
l0 -136 43 -19 c23 -11 64 -20 92 -20 28 0 69 9 93 20 l42 19 0 136 c0 74 4
135 8 135 22 0 96 -65 123 -108 36 -58 49 -101 49 -173 0 -86 -25 -145 -89
-210 -31 -31 -64 -61 -74 -66 -17 -9 -19 -49 -27 -668 l-9 -658 34 -40 c19
-22 42 -62 51 -90 16 -47 16 -54 0 -103 -32 -101 -106 -157 -207 -157 -134 0
-230 120 -205 257 4 19 25 58 47 86 l40 51 -7 659 -7 659 -23 5 c-33 9 -108
88 -135 143 -18 39 -23 64 -23 133 0 73 4 92 26 136 28 52 119 144 144 144 11
0 14 -26 14 -135z m4483 89 c61 -20 77 -29 73 -42 -2 -10 -7 -35 -11 -57 -11
-71 -14 -75 -51 -75 -38 0 -39 3 -23 80 6 28 8 54 5 57 -3 3 -37 8 -75 10
l-70 4 -3 -73 -3 -73 -130 -3 -131 -3 -12 72 c-7 39 -10 74 -7 79 7 12 99 41
159 51 79 12 193 1 279 -27z m39706 -254 c101 -22 186 -42 189 -45 7 -6 3
-561 -5 -777 l-6 -178 -62 0 -62 0 -6 -302 c-4 -166 -7 -518 -7 -784 l0 -482
-50 -53 c-27 -29 -50 -56 -50 -59 0 -10 -50 -63 -55 -58 -4 4 -18 619 -32
1401 l-6 337 -32 0 -33 0 -6 308 c-3 169 -9 405 -12 525 l-6 219 29 -6 c15 -3
111 -24 212 -46z m-39891 14 l42 -5 0 -388 0 -388 -67 -6 c-38 -4 -84 -7 -104
-7 l-36 0 -6 293 c-4 160 -7 343 -7 405 l0 114 68 -7 c37 -3 86 -8 110 -11z
m179 -236 c-4 -128 -7 -304 -7 -390 0 -150 -1 -157 -21 -163 -11 -4 -22 -5
-24 -3 -2 2 0 176 4 387 8 390 10 400 45 401 5 0 7 -95 3 -232z m4593 194 c0
-16 -3 -63 -6 -105 l-7 -76 -151 5 c-83 3 -166 7 -183 10 l-33 5 0 84 c0 47 1
86 3 87 2 1 143 8 335 16 40 2 42 1 42 -26z m40318 -111 c10 -6 12 -21 8 -52
-3 -24 -8 -71 -11 -104 -3 -33 -8 -78 -10 -100 -2 -22 -7 -67 -10 -100 -11
-123 -116 -1091 -120 -1121 -5 -28 -10 -32 -61 -43 l-56 -13 6 -81 c4 -45 13
-138 21 -207 23 -203 47 -491 65 -772 l10 -157 -30 -31 c-16 -17 -30 -35 -30
-40 0 -6 -6 -10 -13 -10 -7 0 -19 -10 -27 -21 -8 -12 -25 -33 -37 -47 l-23
-25 0 249 c0 336 -24 694 -66 974 -22 151 -22 150 -44 150 -14 0 -21 10 -26
38 -4 20 -8 217 -7 437 0 376 6 524 35 923 l11 162 201 0 c111 0 207 -4 214
-9z m-2968 -146 l0 -125 -330 0 -330 0 0 79 c0 43 -3 99 -6 125 l-7 46 337 0
336 0 0 -125z m-22566 -51 c9 -8 16 -21 16 -29 0 -14 -122 -133 -166 -162 -15
-9 -34 -18 -43 -20 -152 -26 -276 -35 -539 -40 l-304 -6 4 -26 c2 -14 38 -205
79 -424 70 -375 75 -398 94 -393 41 10 464 7 575 -4 63 -6 161 -14 218 -19 91
-7 111 -12 185 -49 94 -47 154 -95 163 -133 5 -25 3 -27 -33 -33 -178 -26
-871 -39 -1215 -22 l-167 8 -37 79 c-24 52 -43 79 -54 79 -9 0 -22 6 -29 13
-11 10 -13 10 -7 0 9 -17 53 -17 -749 12 -374 13 -725 25 -780 26 -55 0 -647
21 -1315 45 -668 24 -1227 44 -1242 44 -16 0 -28 6 -28 13 0 6 52 181 116 387
l116 376 1907 74 1906 75 14 56 15 57 140 7 c281 15 517 22 828 23 276 2 319
0 332 -14z m-22333 -26 c2 -13 2 -295 -1 -628 -4 -543 -3 -609 11 -645 14 -33
15 -55 8 -125 -5 -47 -13 -116 -17 -155 l-7 -70 -77 -3 c-91 -3 -79 -23 -103
181 -15 132 -15 138 4 175 18 36 19 60 13 665 l-5 627 85 0 c81 0 86 -1 89
-22z m11289 -248 l0 -80 65 0 65 0 0 -90 0 -90 -64 0 c-49 0 -65 -4 -70 -16
-3 -9 -6 -60 -6 -115 l0 -99 -40 0 -40 0 0 -150 0 -150 95 0 95 0 0 -99 c0
-54 -3 -126 -6 -160 l-7 -61 -302 0 c-166 0 -349 -3 -407 -6 l-104 -7 2 -546
c1 -483 8 -667 30 -873 l6 -58 361 -2 362 -3 -3 -135 c-2 -74 -7 -138 -10
-142 -6 -6 -1123 19 -1128 25 -4 5 -55 387 -68 517 -41 390 -56 713 -56 1183
l0 367 433 0 432 0 -3 155 -3 155 -40 0 -40 0 3 105 c2 58 0 106 -4 108 -4 1
-217 -2 -474 -6 -256 -5 -468 -7 -470 -4 -3 3 -8 52 -11 110 l-6 106 464 -6
c281 -3 469 -10 477 -16 9 -7 12 8 12 70 0 44 3 83 7 86 3 4 107 7 230 7 l223
0 0 -80z m1870 10 l0 -70 60 0 60 0 0 -37 c0 -21 -3 -55 -6 -75 l-7 -38 -53 0
-52 0 -7 -100 -8 -100 -31 0 -31 0 -2 -130 -2 -130 86 0 86 0 -7 -132 c-4 -73
-9 -134 -10 -135 -1 -1 -159 -6 -352 -9 l-349 -7 1 -446 c2 -392 13 -696 30
-798 l5 -33 311 0 310 0 -3 -119 c-2 -66 -6 -121 -9 -123 -3 -3 -220 1 -484 8
-350 9 -481 15 -486 24 -11 18 -49 302 -70 535 -28 303 -40 586 -40 932 l0
303 373 0 372 0 -2 131 c-1 72 -4 134 -7 137 -3 3 -18 5 -33 6 -27 1 -28 2
-30 66 -1 36 -2 76 -2 89 l-1 23 -407 -3 -408 -4 -3 93 -3 92 393 -6 c216 -3
399 -7 406 -10 9 -2 12 14 12 60 0 34 3 66 7 69 3 4 93 7 200 7 l193 0 0 -70z
m1660 10 l0 -60 46 0 45 0 -2 -65 c-2 -52 -5 -64 -18 -63 -9 1 -31 0 -48 0
l-33 -2 0 -85 0 -85 -30 0 -30 0 0 -110 0 -110 70 0 70 0 0 -77 c0 -43 -3 -95
-6 -115 l-7 -38 -147 0 c-81 0 -214 -3 -296 -6 l-150 -7 2 -416 c1 -229 7
-463 13 -521 6 -58 10 -113 11 -122 0 -17 19 -18 265 -18 l265 0 0 -106 0
-107 -342 7 c-189 3 -377 9 -419 12 l-76 6 -22 156 c-46 342 -71 735 -71 1130
l0 222 321 0 321 0 -6 23 c-3 12 -6 64 -6 115 0 90 0 92 -24 92 -28 0 -36 21
-36 98 l0 52 -344 0 -343 0 -7 38 c-3 20 -6 56 -6 78 l0 42 323 -5 c177 -2
334 -5 350 -7 25 -2 27 0 28 38 1 23 1 49 0 58 -2 15 16 17 169 17 l170 2 0
-61z m-13745 -508 c-7 -498 -6 -551 9 -580 9 -18 14 -42 12 -54 -3 -13 -8 -57
-11 -98 -3 -41 -8 -94 -11 -117 l-6 -43 -69 0 c-41 0 -69 4 -69 10 0 6 -7 70
-16 143 -15 124 -15 133 2 164 16 31 17 69 11 578 l-6 545 81 0 80 0 -7 -548z
m952 -154 c1 -266 1 -520 2 -566 0 -46 -4 -102 -7 -125 l-7 -42 -57 -3 -57 -3
-5 33 c-24 151 -27 208 -10 239 14 28 15 77 8 490 l-7 459 69 0 69 0 2 -482z
m43443 430 c0 -7 -9 -112 -20 -233 -11 -121 -20 -229 -20 -241 0 -20 -8 -21
-202 -32 -112 -7 -229 -12 -260 -12 l-58 0 0 -205 0 -205 118 -1 c123 0 350
-13 356 -20 3 -2 1 -38 -2 -79 l-7 -75 -222 -5 c-122 -3 -224 -8 -227 -11 -3
-2 -21 -585 -41 -1294 -20 -710 -38 -1300 -41 -1312 -2 -12 -16 -36 -31 -54
-78 -93 -250 -93 -338 0 l-29 32 -48 1757 c-26 966 -47 1758 -47 1760 -1 1
-14 2 -31 2 -29 0 -30 2 -30 43 0 24 -3 78 -6 120 l-7 77 597 0 c470 0 596 -3
596 -12z m-42629 -535 c-1 -225 -1 -444 -1 -488 1 -44 -2 -95 -5 -112 -6 -32
-8 -33 -55 -33 l-49 0 -7 58 c-5 31 -7 82 -5 112 2 30 3 238 4 463 l0 407 60
0 59 0 -1 -407z m42701 -155 c-3 -136 -9 -191 -21 -184 -4 3 -55 6 -112 7 -57
1 -108 3 -112 6 -5 3 -78 5 -163 4 l-154 -1 0 135 c0 74 1 136 3 136 2 1 187
8 502 17 l60 2 -3 -122z m-30804 -213 l-5 -274 39 -38 c21 -20 38 -41 38 -45
0 -9 -168 -9 -253 1 l-58 6 32 39 32 38 -7 274 -6 274 96 0 97 0 -5 -275z
m-10358 12 l0 -223 -55 -36 c-77 -51 -146 -64 -226 -44 -33 9 -63 16 -66 16
-7 0 7 491 14 503 2 4 78 7 169 7 l164 0 0 -223z m8690 80 c0 -13 -6 -29 -12
-36 -11 -11 -10 -12 0 -6 11 6 13 -45 11 -288 l-3 -295 43 -51 43 -51 -189 0
c-103 0 -183 4 -178 8 6 4 25 27 44 51 l34 44 -7 323 -6 324 110 0 c108 0 110
0 110 -23z m-1886 -526 l-7 -379 52 -54 c28 -30 51 -59 51 -63 0 -8 -409 0
-417 9 -3 3 14 28 38 55 l42 51 -7 374 -6 375 37 4 c21 2 80 4 131 5 l93 2 -7
-379z m10759 63 c79 -11 69 -47 -36 -133 -44 -36 -75 -53 -111 -61 -101 -22
-335 -40 -519 -40 -175 0 -188 -1 -183 -17 2 -10 33 -172 68 -361 l63 -343
205 2 c113 1 221 -1 240 -4 19 -3 105 -11 190 -18 144 -10 160 -14 225 -45 85
-42 132 -80 140 -115 6 -26 5 -26 -62 -32 -274 -25 -931 -32 -1109 -11 -51 6
-52 7 -80 66 -16 33 -32 61 -35 64 -7 4 -1458 58 -1859 69 -118 3 -524 17
-902 31 -378 13 -719 24 -758 24 -60 0 -70 2 -70 18 0 9 45 159 98 332 l98
315 45 7 c35 6 3145 130 3226 128 17 0 23 9 33 49 l11 49 112 7 c277 18 887
30 970 19z m13404 -381 c181 -206 375 -487 532 -771 56 -100 70 -138 127 -340
56 -198 150 -565 169 -658 5 -28 -1 -39 -50 -98 -130 -153 -315 -283 -527
-370 -96 -40 -316 -106 -351 -106 -17 0 -34 21 -77 98 -142 254 -360 552 -561
767 l-56 60 13 120 c59 510 225 900 506 1187 68 69 195 177 209 178 4 0 34
-30 66 -67z m-40049 -440 l3 -143 242 -2 242 -3 -3 -185 c-2 -102 -5 -206 -8
-231 l-5 -46 -527 -6 c-290 -3 -530 -3 -533 1 -4 4 -10 112 -13 240 l-7 232
230 0 231 0 1 38 c1 20 0 44 -1 52 -1 8 1 57 5 108 l7 93 66 -3 67 -3 3 -142z
m1764 80 c2 -38 3 -95 4 -128 0 -33 2 -68 2 -77 2 -17 20 -18 238 -18 l235 0
-7 -227 c-3 -126 -9 -231 -13 -234 -3 -4 -243 -9 -533 -12 l-527 -6 -5 62 c-3
34 -8 142 -11 240 l-6 177 239 0 239 0 1 136 c1 75 4 140 8 145 3 5 34 9 70 9
l64 0 2 -67z m1752 58 c3 -4 6 -69 8 -144 l2 -137 235 -2 236 -3 -3 -155 c-1
-85 -5 -189 -8 -231 l-6 -76 -531 -6 c-293 -3 -532 -5 -533 -4 -1 1 -5 109 -9
240 l-7 237 236 0 236 0 0 68 c0 38 3 103 6 145 l7 77 63 0 c34 0 65 -4 68 -9z
m1680 0 c3 -4 6 -69 7 -144 l1 -137 236 -2 237 -3 -3 -115 c-1 -63 -5 -167 -8
-231 l-6 -116 -531 -6 c-293 -3 -533 -5 -533 -4 -1 1 -5 109 -9 240 l-8 237
237 0 236 0 0 93 c0 50 3 116 6 145 l7 52 63 0 c34 0 65 -4 68 -9z m3710 -173
c8 -29 20 -80 28 -113 l14 -60 331 -3 331 -2 11 47 c7 27 21 78 33 116 l21 67
1201 0 1202 0 -4 -92 c-1 -51 -9 -256 -16 -455 -7 -200 -16 -366 -20 -370 -4
-5 -1252 -10 -2772 -11 -2309 -3 -2764 -2 -2764 10 0 7 -7 180 -15 383 -8 204
-15 407 -15 453 l0 82 1210 0 1209 0 15 -52z m672 25 c-3 -16 -8 -46 -12 -68
-12 -82 16 -75 -284 -75 l-268 0 -6 28 c-3 15 -8 45 -12 67 -3 22 -8 48 -11
58 -4 16 15 17 297 17 l302 0 -6 -27z m-9102 -705 c5 -47 14 -191 56 -893 6
-93 10 -180 10 -192 0 -23 -2 -23 -112 -22 -160 1 -1105 53 -1113 61 -7 6 79
1021 91 1076 l4 22 529 0 530 0 5 -52z m1750 30 c3 -13 14 -185 26 -383 11
-198 25 -430 30 -515 6 -85 10 -174 10 -197 l0 -43 -112 1 c-152 1 -1105 53
-1113 60 -5 6 75 938 91 1057 l5 42 529 0 530 0 4 -22z m1760 -45 c9 -104 35
-505 46 -723 5 -107 12 -234 16 -282 l7 -88 -114 1 c-163 1 -1106 53 -1115 61
-4 4 15 253 42 553 l49 545 531 0 532 0 6 -67z m1670 58 c7 -10 41 -511 56
-801 6 -113 13 -238 16 -277 l7 -73 -79 0 c-125 -1 -1133 53 -1146 61 -9 6 1
149 37 553 l48 546 528 0 c290 0 530 -4 533 -9z m11371 -693 c-2 -18 -6 -57
-9 -85 l-5 -53 44 0 c51 0 50 2 39 -107 l-7 -61 -46 2 -46 1 -12 -130 c-6 -71
-16 -182 -23 -245 -6 -63 -11 -153 -11 -200 0 -47 -2 -97 -5 -112 l-6 -28
-1279 0 -1279 0 -1 58 c-1 31 -1 73 0 92 1 19 -3 87 -9 150 -14 144 -40 391
-42 406 -1 6 -23 10 -52 10 l-51 -1 -3 83 -3 82 47 0 47 0 -7 85 -6 85 1364 0
1365 0 -4 -32z m3542 -43 l-7 -75 35 0 35 0 0 -70 0 -70 -44 0 -43 0 -7 -112
c-4 -62 -12 -140 -17 -172 -6 -32 -12 -109 -14 -170 -2 -61 -4 -121 -4 -133
l-1 -23 -1094 0 -1094 0 -5 23 c-4 12 -6 73 -6 135 0 62 -2 116 -5 120 -2 4
-9 64 -15 132 -19 210 -15 200 -67 200 l-44 0 0 70 0 70 38 0 39 0 -5 75 -5
75 1168 0 1168 0 -6 -75z m1979 62 c4 -3 3 -67 -1 -141 l-7 -136 -20 40 c-39
77 -94 74 -130 -7 -40 -90 -20 -265 33 -293 41 -23 85 2 108 60 8 20 10 12 10
-46 1 -39 -2 -111 -5 -161 l-7 -90 -141 5 c-78 2 -144 7 -148 11 -4 3 -14 152
-22 331 -16 367 -21 339 62 387 68 40 120 53 195 49 37 -2 70 -6 73 -9z m1552
5 c9 -3 12 -40 11 -141 -1 -96 -3 -127 -10 -106 -4 17 -21 42 -36 57 -22 21
-33 24 -51 17 -60 -23 -84 -192 -39 -279 29 -59 62 -65 101 -20 l26 32 0 -134
0 -133 -137 6 c-76 4 -138 7 -139 8 0 0 -4 83 -8 184 -3 100 -9 236 -12 302
l-6 120 50 33 c27 19 67 40 88 48 36 13 132 17 162 6z m1346 2 c18 -7 21 -57
10 -162 l-7 -61 -21 32 c-28 41 -61 42 -90 4 -18 -24 -21 -43 -21 -117 0 -74
3 -93 21 -117 29 -39 62 -37 91 6 l23 34 0 -127 0 -128 -120 4 c-65 2 -122 7
-126 10 -3 4 -11 127 -18 274 l-11 267 30 23 c70 53 181 80 239 58z m1340 0
c13 -5 16 -25 16 -113 l0 -106 -18 35 c-14 28 -23 35 -47 35 -46 0 -67 -49
-62 -142 4 -79 25 -123 57 -123 23 0 52 30 62 63 8 30 10 -80 1 -166 l-6 -68
-105 6 c-58 3 -108 8 -111 11 -11 10 -27 488 -18 501 5 7 36 26 70 43 58 29
123 39 161 24z m25362 -28 c60 -14 161 -36 224 -51 63 -14 125 -28 138 -30 20
-5 22 -10 17 -61 -5 -56 -10 -100 -25 -213 -5 -35 -8 -69 -7 -75 1 -7 -12 -10
-33 -8 -34 2 -783 113 -787 116 -2 2 56 308 59 311 4 3 239 32 274 34 17 0 80
-10 140 -23z m-4732 -145 l90 -6 18 -70 c10 -38 20 -89 24 -112 l6 -43 -251 0
c-138 0 -251 3 -251 7 0 4 17 58 37 120 l37 113 101 -1 c55 -1 140 -4 189 -8z
m-26458 -254 c3 -5 -122 -916 -126 -920 -7 -7 -266 -16 -825 -28 -269 -6 -492
-13 -494 -15 -2 -2 -6 -64 -9 -139 l-5 -135 50 0 50 0 7 -40 c5 -31 11 -40 26
-40 23 0 24 -1 8 -35 -7 -15 -19 -25 -33 -25 -18 0 -20 5 -17 35 l4 35 -46 0
c-42 0 -46 -2 -46 -24 0 -53 -5 -56 -105 -56 l-93 0 -15 38 -15 37 29 3 c26 3
29 7 29 39 l0 35 53 -4 52 -3 -7 90 c-3 50 -7 125 -7 167 -1 73 0 78 22 82 12
3 312 14 667 26 355 12 645 23 646 24 0 0 11 75 23 166 13 91 26 181 31 200 5
19 11 55 14 80 3 25 14 107 25 183 12 76 21 142 21 148 0 6 -47 7 -125 3
l-125 -7 0 40 c0 22 2 42 4 44 4 4 329 0 332 -4z m-9701 -36 c347 -14 690 -32
745 -40 l45 -6 0 -440 0 -440 -55 -3 -56 -3 -12 -127 c-7 -70 -12 -151 -12
-179 l0 -53 -368 0 -369 0 -12 143 c-7 78 -15 155 -18 171 l-5 29 -867 -7
c-476 -3 -999 -7 -1161 -8 l-295 -1 -3 321 -2 322 -53 0 c-170 2 -572 -1 -575
-4 -2 -2 -5 -185 -8 -407 -2 -221 -6 -405 -9 -407 -2 -3 -123 0 -267 5 l-263
10 -130 75 -130 76 -3 92 -3 92 -57 -4 c-31 -3 -254 0 -495 7 l-438 12 -37 37
-37 37 39 33 38 33 152 6 c83 4 305 10 494 13 l342 7 0 87 0 88 133 76 134 75
229 9 c126 5 244 7 263 4 20 -3 36 0 40 7 5 8 99 19 272 31 145 11 265 20 267
20 6 0 1 110 -5 110 -5 0 -123 -22 -263 -50 -140 -27 -258 -50 -262 -50 -5 0
-8 6 -8 14 0 17 275 86 465 117 189 30 175 25 175 60 l0 32 1093 -6 c600 -3
1209 -10 1352 -16z m6175 -34 l46 -2 -71 -532 c-39 -293 -73 -535 -76 -537 -9
-9 -458 -26 -999 -37 -300 -6 -546 -12 -546 -13 -1 0 -4 -74 -8 -163 l-7 -163
60 0 c55 0 61 -2 66 -23 4 -13 5 -27 4 -33 -4 -24 3 -34 26 -34 30 0 30 0 8
-45 -12 -25 -23 -35 -40 -35 -21 0 -22 3 -17 44 l6 44 -51 3 -51 4 -6 -47 -7
-48 -108 0 -109 0 -20 40 c-25 50 -25 50 9 50 25 0 29 4 35 40 l6 40 57 0 56
0 -6 194 -6 194 107 6 c59 3 379 15 712 26 333 11 637 23 675 26 l70 5 2 34
c3 30 55 393 67 465 16 91 56 372 56 391 0 20 -5 21 -140 18 -77 -2 -142 0
-145 3 -4 3 -4 26 0 50 l6 43 147 -3 c81 -1 167 -3 192 -5z m-17432 -239 l3
-138 249 0 c137 0 250 -3 252 -7 2 -5 2 -90 0 -190 l-4 -183 -559 0 -559 0 0
83 c0 46 -3 132 -7 190 l-6 107 241 0 242 0 1 33 c1 17 2 57 3 87 1 30 2 79 4
108 l2 53 68 -3 67 -3 3 -137z m1764 75 c1 -38 3 -95 3 -128 1 -33 2 -66 3
-72 2 -10 60 -13 251 -13 138 0 252 -3 255 -8 2 -4 2 -89 -1 -190 l-6 -182
-559 0 -558 0 0 123 c0 67 -3 152 -7 190 l-6 67 241 0 240 0 1 131 c0 72 3
135 7 140 3 5 34 9 70 9 l64 0 2 -67z m1756 -75 l3 -138 244 0 c134 0 245 -3
247 -7 2 -5 2 -90 0 -190 l-3 -183 -559 0 -560 0 0 63 c0 34 -3 119 -7 190
l-6 127 246 0 247 0 2 28 c0 15 0 34 -1 42 0 8 2 59 5 113 l6 98 67 -3 66 -3
3 -137z m1680 0 l3 -138 244 0 245 0 0 -174 c0 -96 -3 -181 -6 -190 -6 -14
-64 -16 -559 -16 l-552 0 -6 128 c-4 70 -7 155 -7 190 l0 62 245 0 245 0 0 88
c0 48 3 111 7 140 l6 53 66 -3 66 -3 3 -137z m-4856 -558 l148 0 0 -132 c0
-73 -7 -319 -15 -548 -8 -228 -16 -475 -18 -548 -3 -96 -7 -136 -17 -142 -7
-4 -239 -9 -515 -9 l-503 -2 -6 173 c-3 95 -11 353 -16 573 -5 220 -12 456
-15 524 l-6 124 407 -6 c224 -4 474 -7 556 -7z m1919 -9 c6 -6 -1 -308 -20
-811 -6 -151 -11 -332 -11 -402 0 -69 -3 -133 -6 -142 -5 -14 -61 -16 -520
-16 l-514 0 0 37 c0 54 -29 1120 -34 1247 l-4 108 552 -7 c303 -4 554 -10 557
-14z m1591 9 l148 0 0 -87 c1 -132 -30 -1084 -38 -1193 l-7 -95 -511 -3 -512
-3 -6 153 c-3 84 -11 333 -16 553 -5 220 -12 465 -16 544 l-6 144 408 -6 c224
-4 474 -7 556 -7z m1681 0 l150 0 -7 -302 c-4 -167 -9 -328 -11 -358 -3 -30
-9 -200 -15 -378 -5 -178 -12 -327 -15 -331 -3 -5 -234 -10 -514 -10 l-509 -2
-6 113 c-3 62 -10 304 -16 538 -5 234 -13 497 -16 584 l-7 159 408 -6 c225 -4
476 -7 558 -7z m21475 -463 l143 -62 -6 -125 c-3 -69 -8 -175 -11 -236 l-6
-111 -266 -7 c-147 -3 -325 -9 -395 -13 l-128 -6 0 49 c0 27 -4 132 -9 234 -6
102 -9 193 -8 203 2 13 44 36 148 80 l145 62 125 -3 125 -3 143 -62z m-7573
-96 l40 -7 7 -374 c3 -206 8 -489 11 -629 l4 -253 -56 4 c-32 2 -81 16 -115
31 l-58 27 6 87 c3 49 10 309 16 578 6 270 13 505 16 523 5 36 -5 34 129 13z
m6238 -58 l159 -68 -6 -185 c-4 -102 -9 -220 -13 -262 l-6 -78 -226 -1 c-124
0 -234 -2 -244 -4 -9 -2 -99 -5 -200 -6 l-182 -3 -6 104 c-4 58 -10 179 -13
270 l-7 166 153 66 153 66 140 1 140 1 158 -67z m-6049 -60 c3 -65 11 -333 17
-596 9 -359 9 -481 1 -489 -7 -7 -14 -10 -16 -7 -8 8 -40 1174 -33 1192 15 40
25 9 31 -100z m4732 -159 l174 -77 -5 -211 c-3 -116 -9 -222 -12 -236 -3 -14
-5 -48 -4 -75 l2 -51 -393 -12 c-216 -7 -432 -12 -479 -12 l-87 0 -7 133 c-3
72 -7 208 -8 301 l-2 170 75 32 c41 18 98 42 125 54 28 12 68 30 90 40 33 15
66 19 198 19 l159 1 174 -76z m-8686 -27 l75 -12 6 -295 c4 -162 10 -493 14
-734 l7 -439 -66 5 c-43 4 -87 16 -132 37 l-66 31 6 162 c4 90 11 341 16 558
5 217 13 464 16 548 7 175 -6 160 124 139z m250 -39 c0 -18 7 -331 17 -696 13
-508 14 -665 5 -674 -6 -6 -15 -8 -19 -4 -13 13 -51 1390 -39 1398 23 16 36 7
36 -24z m31813 -85 c-3 -27 -7 -61 -9 -78 -3 -16 -7 -48 -10 -71 l-6 -41 56
-2 56 -2 2 73 c1 40 2 80 4 88 1 8 2 30 3 48 l1 32 961 0 961 0 -8 -62 c-5
-35 -9 -82 -9 -105 0 -23 -3 -39 -7 -37 -5 3 -8 -4 -8 -15 0 -19 6 -21 55 -21
l55 0 2 43 c1 23 3 60 4 82 2 22 3 57 3 78 l1 37 430 0 430 0 0 -26 c0 -20 4
-25 16 -20 14 5 15 4 4 -9 -7 -9 -10 -28 -6 -47 5 -31 8 -51 20 -168 2 -24 9
-46 16 -48 8 -3 8 -8 -1 -18 -9 -11 -8 -19 7 -36 11 -12 13 -18 7 -14 -15 9
-17 -24 -5 -69 14 -50 7 -55 -73 -55 -42 0 -77 -5 -81 -11 -4 -8 -9 -8 -17 0
-7 7 -98 11 -274 11 -260 0 -267 1 -265 30 0 3 -18 6 -40 8 -38 2 -40 1 -27
-15 8 -10 9 -14 2 -10 -9 6 -12 -4 -10 -35 0 -24 -2 -48 -5 -54 -8 -13 -21
-140 -22 -211 0 -29 -3 -53 -7 -53 -4 0 -7 -12 -7 -27 1 -16 -2 -45 -6 -66 -6
-26 -4 -42 5 -54 8 -9 9 -14 2 -10 -7 5 -14 -3 -18 -21 -6 -28 -8 -29 -83 -36
-42 -3 -79 -11 -81 -17 -2 -8 -6 -8 -11 1 -4 7 -16 10 -26 8 -16 -3 -14 -7 11
-22 17 -9 21 -14 10 -11 -11 4 -28 10 -37 12 -10 3 -18 9 -18 13 0 4 -66 7
-147 7 l-148 -2 -12 105 c-7 58 -18 153 -24 212 -7 59 -15 106 -18 104 -3 -2
-6 19 -7 47 -1 29 -3 64 -5 80 l-3 27 -284 0 c-203 0 -281 -3 -276 -11 4 -8
-1 -7 -15 1 -12 6 -51 10 -87 9 -35 -1 -67 1 -71 4 -12 13 -133 8 -134 -5 0
-10 -2 -10 -6 0 -2 6 -11 12 -19 12 -9 0 -12 -5 -8 -12 6 -10 4 -10 -7 0 -9 8
-49 12 -122 12 -69 0 -106 4 -102 10 4 6 -8 10 -29 10 -31 0 -36 -3 -36 -22 0
-19 2 -20 10 -8 6 9 10 10 10 3 0 -6 -5 -15 -11 -19 -6 -3 -9 -15 -6 -25 3
-11 1 -17 -4 -13 -5 3 -10 -3 -10 -13 -1 -10 -3 -27 -4 -38 -19 -143 -25 -198
-21 -203 3 -2 1 -14 -5 -24 -8 -14 -8 -23 0 -31 6 -6 11 -16 11 -21 0 -6 -4
-5 -9 2 -5 9 -13 -21 -20 -79 -7 -52 -13 -94 -15 -96 -1 -1 -94 -7 -206 -13
-131 -7 -209 -15 -219 -23 -11 -9 -13 -9 -8 0 11 18 -34 13 -58 -6 -18 -15
-19 -15 -6 2 11 14 11 17 -2 17 -11 0 -17 16 -21 58 -28 237 -44 335 -54 328
-4 -2 -9 5 -9 17 -2 17 0 19 8 7 9 -14 3 126 -6 158 -3 8 -31 12 -95 12 -64 0
-89 -3 -84 -11 4 -7 -1 -7 -16 1 -16 9 -91 11 -269 8 -243 -3 -247 -3 -244 17
1 11 14 112 28 225 14 113 28 217 31 233 l6 27 458 0 459 0 -6 -47z m-24908
-69 l180 -80 -4 -160 c-6 -269 -17 -462 -26 -473 -2 -2 -174 -7 -382 -12 -208
-4 -442 -10 -521 -13 l-143 -6 0 62 c0 35 -4 124 -8 198 -5 74 -12 196 -15
270 l-6 135 106 45 c58 25 146 63 196 85 l90 40 177 -5 176 -6 180 -80z
m27920 -424 c-3 -18 2 -20 53 -20 l57 0 -1 -32 c-4 -59 -14 -182 -20 -225 l-5
-43 -389 0 c-328 0 -389 2 -393 14 -3 8 -2 16 3 18 5 2 11 30 12 63 2 33 6 62
10 65 3 3 9 32 11 64 3 32 10 63 14 67 5 5 151 10 324 12 242 1 314 5 315 15
2 18 4 22 8 22 3 0 3 -9 1 -20z m-2072 -11 c34 0 156 -3 271 -6 140 -3 206 -1
202 5 -3 6 -2 14 4 17 6 4 9 1 8 -6 -2 -9 13 -13 52 -13 l55 -1 13 -65 c7 -35
16 -67 20 -70 4 -3 7 -21 6 -40 0 -19 1 -39 4 -44 3 -5 7 -26 8 -47 l4 -39
-563 0 -562 0 -2 33 c0 17 -2 41 -3 52 -4 32 -1 47 10 40 13 -8 22 32 24 104
0 32 4 57 9 54 4 -2 7 3 7 11 0 17 -4 17 242 20 53 0 94 5 91 9 -3 5 4 4 16
-3 12 -6 50 -11 84 -11z m-1358 -9 l43 0 17 -70 c9 -38 21 -70 27 -70 5 0 7 4
3 9 -3 5 -1 12 4 15 10 7 9 -9 -4 -37 -5 -13 0 -28 16 -50 13 -19 16 -26 6
-18 -21 17 -22 8 -1 -13 8 -9 11 -16 5 -16 -7 0 -7 -8 -1 -25 l10 -25 -379 0
-379 0 -6 63 c-3 34 -8 101 -12 150 l-6 87 118 0 c66 1 201 0 302 0 142 -1
182 2 183 12 0 10 2 10 6 1 3 -8 23 -13 48 -13z m-35470 -342 c8 -8 36 -121
31 -125 -2 -2 -52 -10 -112 -18 -60 -7 -183 -23 -274 -35 -91 -12 -196 -22
-233 -23 l-68 -2 -25 75 c-30 95 -30 101 7 125 30 19 43 20 349 15 175 -3 322
-8 325 -12z m-6091 -635 c3 -21 10 -92 16 -158 19 -222 18 -215 52 -215 l31 0
-6 58 c-4 31 -9 123 -13 205 l-7 147 51 0 51 0 5 -42 c3 -24 7 -77 10 -120 4
-68 2 -77 -15 -81 -17 -5 -19 -18 -21 -173 l-3 -169 -55 -4 c-30 -2 -81 -3
-112 -3 -32 0 -55 -4 -53 -9 3 -4 1 -11 -5 -14 -6 -4 -10 -3 -8 2 2 8 -5 189
-18 481 l-6 132 50 0 50 0 6 -37z m360 -15 c3 -29 6 -79 6 -110 0 -49 -3 -58
-17 -58 -10 0 -35 -3 -55 -6 l-38 -7 0 117 0 116 49 0 48 0 7 -52z m176 -48
c0 -91 -2 -100 -19 -100 -10 0 -33 -3 -50 -6 l-31 -6 0 106 0 106 50 0 50 0 0
-100z m180 10 c0 -88 -1 -90 -24 -90 -13 0 -38 -3 -55 -6 l-31 -6 0 49 c0 28
3 71 6 97 l7 46 48 0 49 0 0 -90z m180 15 c0 -82 2 -80 -67 -89 l-43 -6 0 54
c0 29 3 68 6 85 6 30 9 31 55 31 l49 0 0 -75z m180 5 l0 -70 -29 0 c-16 0 -42
-3 -58 -6 -28 -6 -29 -5 -26 38 8 108 8 108 63 108 l50 0 0 -70z m4330 -10
c248 -9 741 -43 798 -55 l22 -5 0 -410 0 -410 -24 0 c-13 0 -37 -3 -53 -6 -33
-7 -32 -3 -50 -249 -3 -44 -6 -81 -7 -81 0 -1 -154 -4 -342 -8 l-341 -7 -7 68
c-3 37 -9 102 -12 143 -9 125 -7 121 -62 116 -26 -3 -181 -8 -344 -11 l-298
-6 0 355 0 356 -50 0 -50 0 0 51 c0 48 -1 51 -22 46 -13 -3 -108 -22 -213 -42
-104 -20 -198 -39 -207 -41 -28 -8 -22 31 6 44 74 33 311 84 464 98 67 6 72 8
72 30 0 23 0 23 148 27 81 1 181 4 222 5 41 1 199 -3 350 -8z m-1320 -676 l0
-415 -77 5 c-43 3 -156 8 -251 12 l-173 6 -124 71 -125 71 0 83 0 83 -152 0
c-84 0 -292 5 -461 10 l-309 9 -33 28 c-18 15 -34 33 -34 38 -1 6 15 23 35 39
l37 29 271 8 c149 4 355 9 459 10 l187 1 0 83 0 83 126 71 125 72 192 8 c106
4 218 9 250 9 l57 2 0 -416z m37964 -216 c-4 -24 -8 -45 -10 -47 -2 -2 4 -10
14 -18 15 -11 15 -12 0 -7 -13 4 -16 -1 -14 -25 1 -16 -1 -28 -5 -26 -3 3 -10
-23 -13 -58 -4 -34 -10 -74 -13 -89 l-5 -28 82 0 82 0 -4 25 c-3 14 -1 25 3
25 5 0 9 36 9 80 0 71 -2 79 -17 73 -12 -4 -10 1 7 16 14 12 18 19 10 15 -12
-6 -13 -4 -2 7 13 14 17 63 4 55 -5 -3 -9 1 -9 9 0 8 4 12 9 9 4 -3 8 2 8 10
0 14 139 16 1406 16 l1406 0 -5 -52 c-3 -29 -8 -63 -11 -75 -15 -67 -17 -111
-6 -118 8 -5 7 -10 -3 -18 -8 -7 -17 -27 -21 -44 l-5 -33 83 0 84 0 -1 70 c0
38 3 73 6 77 11 11 8 75 -3 68 -5 -3 -10 -1 -10 4 0 6 4 11 9 11 5 0 8 19 7
43 0 23 4 48 11 55 9 9 147 12 626 12 666 0 627 3 627 -51 0 -10 6 -19 13 -19
9 0 8 -3 -2 -9 -7 -5 -11 -14 -7 -19 4 -6 7 -27 8 -46 1 -19 4 -33 8 -31 3 2
6 -13 4 -33 -1 -20 2 -46 7 -57 4 -11 8 -14 8 -6 1 8 4 11 7 8 4 -4 2 -12 -3
-19 -11 -14 -13 -48 -3 -48 3 0 6 -19 5 -42 0 -26 5 -43 12 -43 6 0 15 -4 20
-8 4 -5 1 -7 -7 -5 -22 4 -27 -52 -6 -64 9 -5 16 -14 16 -21 0 -7 -4 -6 -11 3
-8 11 -9 5 -5 -25 3 -22 7 -63 10 -92 3 -29 8 -68 12 -88 l6 -35 -202 0 c-120
0 -209 -4 -221 -10 -11 -7 -19 -7 -19 -1 0 5 6 11 13 14 6 3 -121 5 -283 6
-162 0 -305 1 -318 1 -21 0 -23 3 -17 30 l7 30 -56 0 c-31 0 -56 -3 -57 -7 0
-5 -6 -57 -13 -118 -10 -82 -11 -114 -2 -124 8 -11 8 -13 -1 -8 -7 5 -12 1
-12 -10 -3 -72 -9 -124 -14 -130 -11 -10 -8 -85 2 -78 5 3 13 0 17 -6 4 -7 3
-9 -3 -6 -20 13 -30 -19 -42 -143 -7 -69 -15 -136 -18 -150 -3 -17 -2 -21 5
-12 7 11 10 11 15 -2 4 -9 1 -15 -6 -13 -7 1 -13 -12 -15 -30 -3 -32 -4 -33
-53 -33 -32 0 -49 -4 -50 -12 0 -10 -2 -10 -6 0 -7 17 -23 15 -39 -5 -13 -17
-14 -17 -8 0 6 17 -10 24 -20 8 -3 -5 -15 -7 -27 -4 -11 3 -142 0 -290 -7
-149 -6 -273 -9 -277 -6 -3 4 -14 79 -24 168 -9 89 -21 164 -26 167 -4 3 -8
29 -9 56 -1 60 -10 162 -23 265 -6 41 -10 92 -10 113 1 21 -3 36 -8 33 -5 -3
-7 6 -4 19 4 23 1 25 -32 25 -22 0 -35 -4 -31 -10 4 -7 -2 -7 -19 0 -15 5
-140 8 -295 7 -148 -1 -267 1 -264 6 7 12 -12 8 -26 -5 -11 -11 -13 -10 -7 0
6 10 -89 12 -481 12 -484 -1 -488 -1 -491 20 -3 17 -11 20 -56 20 l-52 0 -3
-52 c-1 -29 -6 -69 -11 -88 -7 -30 -27 -202 -29 -250 0 -8 -7 -60 -15 -116 -8
-55 -13 -118 -11 -139 2 -26 0 -34 -6 -24 -6 10 -9 5 -9 -18 0 -18 5 -33 11
-33 6 0 3 -7 -5 -16 -17 -16 -22 -59 -7 -49 5 3 13 0 17 -6 4 -7 3 -9 -3 -6
-6 4 -15 -5 -22 -19 -14 -32 -14 -57 1 -48 6 4 8 3 5 -3 -3 -5 -20 -8 -37 -5
-17 2 -37 -2 -47 -9 -9 -8 -14 -9 -10 -3 5 8 -7 12 -38 11 -25 0 -45 -4 -45
-9 0 -4 5 -8 12 -8 6 0 8 -3 5 -6 -4 -4 -13 -1 -22 6 -12 10 -59 11 -212 5
-108 -4 -231 -10 -273 -14 -41 -3 -82 -5 -91 -3 -12 2 -18 29 -28 130 -7 70
-17 147 -23 172 -5 25 -10 55 -10 67 0 14 -5 20 -12 16 -6 -4 -5 1 3 10 7 9 9
17 4 17 -6 0 -8 11 -5 25 7 38 -7 97 -21 89 -9 -5 -8 -3 1 7 13 14 17 63 5 56
-5 -3 -9 38 -10 91 -1 53 -6 98 -11 100 -4 1 -6 18 -4 37 3 27 1 35 -11 35 -9
0 -21 -8 -27 -17 -11 -17 -11 -17 -6 0 5 16 -19 17 -419 17 -393 0 -425 -1
-434 -17 -6 -10 -11 -13 -11 -8 0 6 -27 12 -62 13 -34 1 -63 4 -65 6 -2 2 18
168 44 370 l47 366 673 0 673 0 -6 -42z m-45914 -108 c0 -47 -2 -51 -40 -75
-22 -14 -44 -25 -50 -25 -5 0 -10 -4 -10 -10 0 -5 -5 -10 -12 -10 -6 0 -27
-12 -46 -27 -20 -15 -32 -21 -28 -15 4 7 2 12 -3 12 -7 0 -11 36 -11 100 l0
100 100 0 100 0 0 -50z m13296 -540 l-7 -410 31 0 c28 0 30 -2 30 -40 l0 -40
-427 0 c-235 0 -456 -3 -490 -6 l-63 -7 0 47 c0 46 0 46 35 46 l35 0 -5 328
c-3 180 -8 364 -10 410 l-5 82 442 0 441 0 -7 -410z m1689 368 c-2 -24 -7
-208 -10 -410 l-5 -368 30 0 c28 0 30 -2 30 -40 l0 -40 -427 0 c-235 0 -456
-3 -490 -6 l-63 -7 0 47 0 46 35 0 35 0 -5 368 c-3 202 -8 386 -10 410 l-5 42
445 0 445 0 -5 -42z m1781 -368 l-8 -410 31 0 c29 0 31 -2 31 -40 l0 -40 -452
0 c-249 -1 -621 -2 -826 -3 l-372 -2 0 43 c0 40 1 42 31 42 l32 0 -8 410 -7
410 778 0 777 0 -7 -410z m-7395 -11 l36 -9 13 -90 c12 -81 11 -92 -4 -108 -9
-10 -16 -24 -16 -31 0 -7 -5 -9 -10 -6 -6 3 -13 -2 -17 -12 -4 -10 -15 -25
-25 -34 -10 -9 -18 -23 -18 -32 0 -8 -3 -17 -7 -19 -5 -1 -27 -24 -50 -50
l-42 -47 -10 37 c-5 20 -33 127 -61 237 -28 110 -53 207 -56 216 -5 17 39 8
267 -52z m37576 -101 c213 -3 240 -1 230 12 -7 9 -4 8 9 -2 19 -16 51 -18 355
-18 254 0 338 3 349 13 12 10 12 9 1 -5 -13 -17 -7 -18 98 -18 87 0 110 3 105
13 -5 8 -2 8 9 -2 9 -7 17 -10 17 -7 0 4 8 2 18 -3 14 -7 22 -32 32 -95 7 -47
16 -84 19 -82 3 2 7 -21 8 -53 2 -39 8 -60 20 -68 9 -7 12 -13 5 -13 -6 0 -9
-9 -6 -22 3 -13 7 -32 8 -43 2 -11 4 -24 5 -28 0 -5 5 -5 11 -2 6 3 7 -1 4 -9
-6 -14 -95 -16 -834 -16 l-828 0 5 42 c4 24 2 39 -3 35 -6 -3 -10 3 -11 13 -1
11 3 23 9 26 8 5 9 1 4 -12 -5 -12 -4 -15 2 -9 11 11 22 71 27 147 2 26 5 50
8 55 3 4 8 28 12 53 3 25 9 54 12 65 5 17 4 18 -10 7 -12 -10 -17 -10 -23 -1
-4 7 -3 9 3 6 6 -4 16 0 23 8 7 8 21 15 32 15 13 0 17 4 12 13 -6 9 -5 9 7 0
10 -8 88 -13 256 -15z m2948 -6 c11 -3 144 -7 295 -9 l275 -4 11 -34 c6 -19 8
-32 4 -30 -8 5 -20 -44 -20 -82 0 -17 4 -22 13 -17 9 6 9 5 0 -7 -7 -9 -16
-46 -19 -84 -5 -58 -4 -71 11 -81 15 -11 15 -13 -5 -19 -19 -6 -21 -12 -17
-41 l6 -34 -575 0 -575 0 7 48 c4 26 19 124 33 217 l26 170 248 3 c182 2 246
5 241 14 -5 7 -3 8 7 3 7 -5 23 -11 34 -13z m-4503 -134 c18 -69 35 -125 39
-123 3 3 4 -7 1 -22 -3 -17 -1 -24 6 -19 6 3 9 -1 8 -11 -2 -10 1 -31 6 -48 5
-16 12 -42 14 -57 l5 -28 -550 0 -551 0 0 23 c0 12 -7 101 -15 197 -8 96 -15
184 -15 195 0 20 7 20 509 20 l510 0 33 -127z m-45224 -354 c22 -3 32 -10 32
-23 0 -10 3 -38 6 -62 l6 -44 -69 1 c-37 0 -153 1 -257 2 l-189 2 7 54 c11 96
-9 89 225 82 113 -4 221 -9 239 -12z m1012 -325 c470 -39 858 -74 862 -77 17
-17 32 -237 33 -457 l0 -240 -44 -95 c-24 -52 -48 -101 -54 -108 -10 -13 -134
-12 -317 2 -19 2 -93 6 -165 10 -71 4 -146 9 -165 11 -60 6 -191 15 -305 21
-128 6 -203 11 -300 19 -38 3 -117 7 -175 10 -113 5 -274 16 -276 18 0 1 3 45
9 97 5 52 10 227 10 387 2 208 5 293 13 293 26 0 946 -50 1017 -55 72 -5 78
-4 75 12 -3 16 -49 21 -513 55 -281 20 -529 37 -551 37 -37 1 -42 4 -47 27 -8
45 4 104 22 104 8 0 400 -32 871 -71z m-1406 50 c158 -12 195 -17 180 -27 -6
-4 -14 -15 -17 -26 -6 -16 -14 -18 -57 -12 -55 7 -56 6 -44 -53 4 -17 12 -31
20 -31 7 0 16 -5 19 -10 9 -15 -15 -41 -29 -33 -6 4 -4 -2 4 -12 9 -11 10 -16
3 -11 -7 4 -14 2 -14 -3 -1 -6 -2 -17 -3 -23 -1 -8 -20 -14 -51 -16 l-50 -3
-67 136 c-54 107 -64 135 -51 135 9 0 80 -5 157 -11z m10316 -289 l0 -208 -42
-6 c-24 -3 -96 -8 -161 -12 -73 -4 -120 -11 -122 -18 -2 -6 -11 -59 -21 -118
l-18 -108 -292 0 -291 0 -19 121 c-10 66 -21 125 -24 129 -3 5 -200 17 -439
29 -238 11 -435 21 -437 23 -4 5 -34 311 -34 351 l0 28 950 -2 950 -1 0 -208z
m-1670 -295 l0 -65 218 0 c119 0 241 -3 270 -7 l54 -6 -7 -81 c-3 -45 -9 -89
-11 -98 -5 -17 -26 -18 -268 -18 l-263 0 -7 -37 c-3 -21 -6 -63 -6 -94 0 -31
-3 -97 -6 -147 -7 -87 -8 -92 -30 -92 -28 0 -29 2 -49 260 -8 107 -19 231 -25
275 -5 44 -11 101 -14 128 l-6 47 75 0 75 0 0 -65z"/>
<path d="M34580 23293 l0 -43 -94 0 c-90 0 -95 1 -98 23 -3 19 -7 16 -28 -23
-22 -42 -24 -57 -28 -250 -2 -113 3 -325 11 -471 14 -249 17 -271 45 -353 49
-143 159 -306 207 -306 23 0 69 46 93 93 54 109 69 704 23 961 -38 214 -68
317 -111 381 l-20 30 0 -42z"/>
<path d="M34034 20493 c3 -27 8 -74 11 -105 l6 -58 202 1 c117 1 191 4 177 9
-14 4 -40 8 -57 9 l-33 1 0 85 0 85 88 1 c73 1 81 3 47 10 -22 4 -132 8 -243
8 l-204 1 6 -47z"/>
<path d="M36268 23293 c-37 -41 -45 -85 -52 -273 -8 -231 16 -708 39 -795 20
-77 72 -187 125 -264 46 -68 89 -98 119 -82 34 19 71 72 85 124 22 78 40 320
40 527 -1 271 -51 586 -115 725 -22 46 -24 48 -27 23 l-3 -28 -94 0 -94 0 -3
31 c-3 30 -4 31 -20 12z"/>
<path d="M35915 20513 c2 -16 7 -63 11 -105 l6 -78 206 1 c117 1 194 5 177 9
-16 4 -45 8 -62 9 l-33 1 0 85 0 85 88 1 c175 3 28 17 -185 18 l-212 1 4 -27z"/>
<path d="M38068 23293 c-46 -53 -52 -80 -56 -293 -2 -113 3 -325 11 -471 14
-250 17 -272 45 -353 49 -143 159 -306 207 -306 23 0 69 46 93 92 55 110 69
703 23 963 -30 167 -56 268 -88 334 -27 56 -27 56 -31 24 l-3 -33 -96 0 -95 0
4 30 c5 35 6 35 -14 13z"/>
<path d="M37714 20493 c3 -27 8 -74 11 -105 l6 -58 202 1 c117 1 191 4 177 9
-14 4 -40 8 -57 9 l-33 1 0 85 0 85 88 1 c176 3 28 17 -186 18 l-214 1 6 -47z"/>
<path d="M3460 16165 l-95 -95 90 -90 c49 -49 94 -90 100 -90 6 0 51 41 100
90 l90 90 -95 95 -95 95 -95 -95z"/>
<path d="M29611 19004 c-12 -15 -21 -34 -21 -44 0 -10 9 -29 21 -44 41 -52
129 -23 129 44 0 67 -88 96 -129 44z"/>
<path d="M25477 18839 c-21 -12 -47 -61 -47 -89 0 -66 74 -120 135 -100 115
38 93 201 -27 200 -24 0 -51 -5 -61 -11z"/>
<path d="M29560 18620 c-11 -11 -20 -33 -20 -50 0 -65 78 -93 125 -45 30 30
31 54 4 89 -26 33 -79 36 -109 6z"/>
<path d="M29772 18194 c-16 -11 -22 -25 -22 -54 0 -29 6 -43 22 -54 75 -53
161 41 95 102 -27 26 -64 28 -95 6z"/>
<path d="M22340 18933 c0 -8 265 -1026 297 -1140 l14 -53 262 0 c263 0 271 1
369 39 l27 10 -30 73 c-17 40 -41 96 -54 123 -25 56 -354 848 -377 910 l-16
40 -246 3 c-135 1 -246 -1 -246 -5z"/>
<path d="M4695 16099 l-80 -80 80 -74 c44 -41 82 -74 85 -74 3 0 41 33 85 74
l80 74 -80 80 c-44 45 -82 81 -85 81 -3 0 -41 -36 -85 -81z"/>
<path d="M5825 16045 c-38 -35 -68 -65 -65 -67 3 -2 36 -33 73 -68 l68 -64 69
69 69 69 -66 60 c-36 34 -69 62 -72 63 -3 1 -37 -27 -76 -62z"/>
<path d="M41619 17463 c-14 -37 -39 -151 -39 -183 0 -25 3 -26 98 -37 151 -19
309 -79 405 -155 l40 -32 49 53 c26 29 48 60 48 69 0 9 -35 51 -78 92 -119
115 -285 193 -459 215 -51 7 -53 6 -64 -22z"/>
<path d="M40995 17284 c-78 -60 -148 -127 -196 -187 -37 -46 -39 -53 -39 -118
0 -38 4 -69 8 -69 5 0 33 21 63 47 48 42 214 156 238 165 10 3 3 208 -8 208
-3 0 -33 -21 -66 -46z"/>
<path d="M41872 17080 c-33 -14 -55 -74 -50 -137 4 -48 3 -53 -21 -63 -15 -6
-40 -21 -56 -34 l-30 -24 65 15 c79 18 243 13 309 -11 24 -9 46 -14 49 -12 7
7 -86 64 -125 77 -32 10 -33 12 -33 66 0 65 -23 119 -53 127 -27 7 -26 7 -55
-4z"/>
<path d="M40974 16992 c-20 -13 -34 -50 -34 -91 0 -23 -4 -41 -10 -41 -13 0
-50 -37 -50 -50 0 -5 19 -3 41 5 23 8 62 15 88 16 38 0 43 2 25 11 -21 10 -21
10 -2 46 34 66 -7 138 -58 104z"/>
<path d="M15264 17693 c3 -43 10 -433 16 -868 6 -434 13 -814 16 -842 l5 -53
44 0 43 0 6 273 c3 149 9 563 12 920 l6 647 -76 0 -77 0 5 -77z"/>
<path d="M15315 15780 c-28 -31 -31 -117 -5 -158 26 -41 49 -39 73 8 21 41 18
107 -7 145 -20 30 -37 32 -61 5z"/>
<path d="M6952 15987 l-52 -53 54 -53 54 -54 29 21 c15 11 41 34 58 51 l29 31
-54 55 c-30 30 -57 55 -60 55 -3 0 -29 -24 -58 -53z"/>
<path d="M25719 16921 c-53 -54 -29 -138 45 -157 37 -9 84 13 102 49 50 96
-70 184 -147 108z"/>
<path d="M18553 15673 c9 -378 42 -794 88 -1095 l11 -78 100 0 100 0 -6 98
c-17 250 -26 581 -26 950 l0 402 -137 0 -136 0 6 -277z m208 -98 c-1 -279 10
-702 25 -942 l6 -103 -46 0 c-25 0 -46 2 -46 5 0 2 -9 73 -19 157 -43 336 -71
739 -71 1020 l0 169 76 -3 76 -3 -1 -300z"/>
<path d="M20583 15863 c4 -142 14 -341 22 -443 15 -185 51 -499 61 -532 5 -15
18 -18 90 -18 l85 0 -6 48 c-12 104 -25 560 -25 872 l0 330 -117 0 -116 0 6
-257z m177 -75 c0 -263 14 -758 25 -845 l5 -43 -39 0 c-47 0 -44 -9 -66 190
-30 255 -45 475 -52 723 l-6 247 66 0 67 0 0 -272z"/>
<path d="M22384 16053 c7 -234 27 -498 51 -683 23 -175 14 -160 95 -160 50 0
70 4 70 13 -1 6 -5 86 -10 177 -5 91 -10 324 -10 518 l-1 352 -101 0 -101 0 7
-217z m152 -83 c2 -294 13 -675 21 -707 5 -21 1 -23 -30 -23 -41 0 -38 -9 -61
200 -30 272 -56 756 -41 779 4 7 27 11 58 9 l52 -3 1 -255z"/>
<path d="M52930 16268 c0 -84 9 -639 20 -1233 11 -594 20 -1144 20 -1222 l0
-143 75 0 75 0 0 173 c0 219 18 1876 24 2275 l5 302 -109 0 -110 0 0 -152z"/>
<path d="M53011 13462 c-66 -66 -67 -202 -1 -275 26 -29 30 -30 52 -18 45 24
63 68 63 156 0 68 -4 85 -23 113 -38 53 -58 58 -91 24z"/>
<path d="M12519 16038 c-56 -79 -8 -255 60 -219 47 26 63 166 25 218 -30 40
-57 41 -85 1z"/>
<path d="M26074 15221 c-74 -45 -40 -146 49 -143 84 2 101 115 22 147 -42 18
-34 19 -71 -4z"/>
<path d="M3420 14505 l0 -45 221 0 220 0 -3 43 -3 42 -72 3 c-68 3 -73 1 -73
-18 0 -18 -6 -20 -80 -20 -73 0 -80 2 -80 20 0 18 -7 20 -65 20 l-65 0 0 -45z"/>
<path d="M5177 14543 c-4 -3 -7 -24 -7 -45 l0 -38 220 0 220 0 0 45 0 45 -69
0 c-64 0 -69 -1 -64 -20 5 -19 0 -20 -81 -20 -79 0 -86 2 -86 20 0 18 -7 20
-63 20 -35 0 -67 -3 -70 -7z"/>
<path d="M6930 14505 l0 -45 220 0 220 0 0 23 c-1 61 -8 67 -76 67 -57 0 -64
-2 -64 -20 0 -18 -7 -20 -80 -20 -73 0 -80 2 -80 20 0 18 -7 20 -70 20 l-70 0
0 -45z"/>
<path d="M8608 14505 l-3 -45 222 0 223 0 0 23 c-1 61 -8 67 -76 67 -57 0 -64
-2 -64 -20 0 -18 -7 -20 -80 -20 -73 0 -80 2 -80 20 0 18 -7 20 -69 20 l-69 0
-4 -45z"/>
<path d="M10633 14600 c-117 -24 -199 -118 -210 -240 -10 -106 41 -202 135
-258 42 -24 57 -27 137 -27 80 0 95 3 137 27 156 92 183 301 56 428 -59 60
-164 88 -255 70z m136 -49 c12 -8 12 -39 -3 -216 -9 -114 -19 -212 -22 -216
-7 -12 -95 -11 -114 1 -11 7 -16 41 -21 142 -13 241 -11 286 9 291 31 8 137 7
151 -2z"/>
<path d="M15140 14590 c-55 -26 -115 -82 -143 -135 -16 -31 -22 -58 -22 -115
0 -117 48 -194 158 -252 59 -32 184 -32 243 -1 106 57 154 133 154 247 0 85
-21 137 -77 193 -56 56 -105 77 -193 80 -60 3 -84 -1 -120 -17z m205 -42 c8
-7 -13 -419 -21 -427 -5 -6 -124 -15 -125 -10 0 2 -8 101 -18 219 -12 153 -14
217 -7 223 13 9 161 5 171 -5z"/>
<path d="M12534 14218 c3 -18 8 -52 12 -75 l7 -43 427 0 428 0 11 63 c6 35 11
69 11 75 0 9 -114 12 -451 12 l-451 0 6 -32z"/>
<path d="M4030 13811 l-75 -16 14 -118 c16 -134 17 -131 -58 -141 -190 -25
-384 -61 -397 -73 -8 -8 -14 -10 -14 -4 0 14 -18 14 -98 0 l-65 -11 7 -104 7
-104 -86 0 c-55 0 -84 -4 -80 -10 3 -5 -4 -10 -15 -10 -12 0 -31 -11 -42 -25
-11 -14 -23 -23 -28 -20 -9 6 -26 -82 -17 -91 3 -3 153 -12 334 -20 180 -7
357 -16 393 -18 36 -3 134 -8 219 -12 l154 -6 -6 123 c-4 68 -13 243 -22 389
-8 146 -14 271 -15 278 0 15 -15 14 -110 -7z"/>
<path d="M5783 13813 c-84 -18 -79 -5 -59 -158 7 -55 12 -101 11 -103 -2 -3
-451 -75 -598 -96 l-48 -7 7 -105 7 -104 -77 0 c-47 0 -88 -6 -104 -14 -44
-23 -82 -70 -89 -108 l-5 -36 83 -6 c46 -3 208 -11 359 -17 151 -5 286 -12
300 -14 14 -2 102 -6 195 -10 l170 -7 -2 79 c-2 43 -8 134 -13 203 -5 69 -12
190 -15 270 -3 80 -8 169 -11 198 -6 59 -1 58 -111 35z"/>
<path d="M7537 13813 c-63 -12 -77 -18 -73 -32 2 -9 10 -63 16 -120 9 -73 9
-105 2 -110 -6 -4 -109 -22 -229 -40 -120 -18 -223 -37 -229 -42 -6 -5 -14 -6
-17 -3 -3 4 -41 1 -84 -6 l-78 -12 7 -76 c3 -43 7 -89 7 -104 l1 -28 -83 0
c-71 0 -87 -3 -102 -20 -10 -11 -21 -17 -25 -15 -4 3 -11 -2 -14 -11 -3 -9
-11 -12 -18 -8 -7 4 -10 4 -6 -1 4 -4 1 -14 -7 -22 -8 -8 -15 -29 -15 -48 l0
-33 83 -6 c45 -3 197 -11 337 -16 140 -6 327 -15 415 -20 88 -5 184 -9 214
-10 l54 0 -6 108 c-23 396 -36 650 -37 670 0 26 -3 26 -113 5z"/>
<path d="M9217 13813 c-76 -15 -78 -16 -73 -42 12 -64 27 -213 22 -218 -5 -6
-451 -82 -486 -84 -8 0 -48 -5 -88 -11 l-72 -11 5 -31 c3 -17 6 -62 7 -101 l3
-70 -87 -5 c-64 -4 -91 -10 -105 -23 -10 -9 -29 -25 -41 -35 -15 -11 -27 -34
-31 -59 l-8 -41 81 -6 c45 -3 203 -11 351 -17 149 -5 293 -12 320 -14 28 -2
119 -6 204 -10 l154 -8 -6 109 c-18 284 -26 430 -32 557 -6 119 -9 137 -24
136 -9 -1 -51 -8 -94 -16z"/>
<path d="M14250 12662 c-45 -17 -51 -68 -12 -105 64 -61 206 -97 388 -97 178
0 323 37 387 97 33 32 35 62 4 91 -22 21 -28 21 -387 21 -201 -1 -372 -3 -380
-7z"/>
<path d="M14880 12110 l0 -40 359 0 359 0 5 33 c2 17 3 35 0 40 -2 4 -166 7
-364 7 l-359 0 0 -40z"/>
<path d="M14884 12008 c3 -13 6 -31 6 -40 0 -17 23 -18 349 -18 380 0 361 -3
361 56 l0 24 -361 0 -361 0 6 -22z"/>
<path d="M14897 11913 c-4 -3 -7 -21 -7 -40 l0 -33 350 0 350 0 0 40 0 40
-343 0 c-189 0 -347 -3 -350 -7z"/>
<path d="M14900 11765 l0 -35 340 0 340 0 0 35 0 35 -340 0 -340 0 0 -35z"/>
<path d="M3456 12433 c-4 -16 -9 -36 -12 -45 -5 -17 9 -18 192 -18 l197 0 -7
31 c-3 17 -6 38 -6 45 0 10 -15 14 -55 14 -48 0 -55 -2 -55 -20 0 -18 -7 -20
-80 -20 -73 0 -80 2 -80 20 0 17 -7 20 -44 20 -40 0 -44 -3 -50 -27z"/>
<path d="M5223 12415 l-10 -45 197 0 197 0 -10 45 -10 45 -59 0 c-51 0 -58 -2
-58 -20 0 -18 -7 -20 -80 -20 -73 0 -80 2 -80 20 0 17 -7 20 -38 20 -38 0 -39
-1 -49 -45z"/>
<path d="M6966 12433 c-4 -16 -9 -36 -12 -45 -5 -17 9 -18 191 -18 l197 0 -7
37 c-9 52 -11 53 -61 53 -37 0 -44 -3 -44 -20 0 -18 -7 -20 -80 -20 -73 0 -80
2 -80 20 0 17 -7 20 -49 20 -45 0 -49 -2 -55 -27z"/>
<path d="M8647 12443 c-3 -10 -8 -30 -11 -45 l-6 -28 196 0 196 0 -7 37 c-9
52 -11 53 -61 53 -37 0 -44 -3 -44 -20 0 -18 -7 -20 -80 -20 -73 0 -80 2 -80
20 0 17 -7 20 -49 20 -39 0 -51 -4 -54 -17z"/>
<path d="M4013 11968 c0 -7 -3 -159 -7 -338 -3 -179 -9 -403 -12 -497 l-6
-173 -252 -1 c-138 0 -295 0 -348 1 -79 1 -98 -2 -98 -13 0 -8 6 -19 13 -25 7
-6 156 -13 368 -17 l356 -7 7 531 c4 291 5 535 1 541 -9 14 -22 13 -22 -2z"/>
<path d="M3775 11734 c-6 -2 -9 -114 -7 -314 l3 -310 34 0 34 0 1 315 0 315
-27 -1 c-16 0 -32 -2 -38 -5z"/>
<path d="M3621 11713 l-34 -4 7 -67 c3 -37 6 -172 6 -299 l0 -233 33 0 32 0 4
305 c2 173 0 304 -5 303 -5 0 -24 -3 -43 -5z"/>
<path d="M3436 11683 c-18 -5 -19 -13 -12 -126 3 -66 6 -194 6 -284 l0 -163
30 0 30 0 0 93 c0 52 3 182 7 290 l6 197 -24 -1 c-13 -1 -33 -4 -43 -6z"/>
<path d="M5777 11703 c-4 -153 -7 -352 -7 -443 0 -91 -3 -195 -7 -232 l-6 -68
-348 0 c-192 0 -349 -4 -349 -8 0 -5 6 -15 13 -24 10 -14 59 -17 368 -23 l357
-7 7 525 c4 290 5 533 2 542 -18 45 -24 -11 -30 -262z"/>
<path d="M5545 11730 c-3 -5 -5 -147 -4 -315 l2 -305 33 0 34 0 0 293 c0 160
3 302 6 315 6 20 3 22 -29 22 -20 0 -39 -4 -42 -10z"/>
<path d="M5395 11713 l-30 -4 2 -267 c3 -323 5 -332 41 -332 l27 0 4 305 c2
168 -1 304 -5 303 -5 0 -22 -3 -39 -5z"/>
<path d="M5211 11683 c-23 -5 -24 -7 -17 -71 3 -37 6 -165 6 -284 l0 -218 28
0 29 0 6 188 c4 103 7 233 7 290 0 111 3 106 -59 95z"/>
<path d="M7517 11792 c-4 -103 -7 -261 -7 -352 0 -91 -3 -236 -7 -322 l-6
-158 -349 0 c-289 0 -348 -2 -348 -14 0 -7 6 -18 13 -24 7 -6 156 -13 370 -17
l357 -7 0 219 c0 121 3 361 7 535 5 275 4 315 -9 320 -13 5 -16 -20 -21 -180z"/>
<path d="M7285 11732 c-6 -4 -9 -117 -7 -314 l3 -308 33 0 33 0 2 315 2 315
-28 0 c-15 0 -32 -4 -38 -8z"/>
<path d="M7131 11713 l-34 -4 7 -106 c3 -58 6 -193 6 -300 l0 -193 33 0 32 0
4 305 c2 169 -1 304 -5 303 -5 0 -24 -3 -43 -5z"/>
<path d="M6946 11683 c-18 -5 -19 -13 -13 -162 4 -86 7 -213 7 -283 l0 -128
30 0 30 0 0 123 c0 68 3 199 7 290 l6 167 -24 -1 c-13 -1 -33 -4 -43 -6z"/>
<path d="M9197 11837 c-4 -78 -7 -212 -7 -298 0 -86 -3 -251 -7 -367 l-6 -212
-349 0 c-355 0 -364 -1 -340 -36 5 -8 120 -14 369 -19 l362 -7 0 248 c1 137 4
378 7 535 6 249 5 286 -8 291 -13 5 -16 -15 -21 -135z"/>
<path d="M8964 11732 c-8 -5 -9 -99 -6 -314 l5 -308 31 0 31 0 3 315 3 315
-28 0 c-15 0 -33 -4 -39 -8z"/>
<path d="M8811 11713 l-34 -4 6 -151 c4 -83 7 -218 7 -300 l0 -148 30 0 30 0
0 93 c0 52 3 189 7 305 3 126 2 211 -3 210 -5 0 -24 -3 -43 -5z"/>
<path d="M8626 11683 c-18 -5 -19 -14 -13 -207 4 -110 7 -238 7 -283 l0 -83
30 0 30 0 0 178 c0 97 3 228 7 290 l6 112 -24 -1 c-13 -1 -33 -4 -43 -6z"/>
<path d="M14258 9308 c-28 -28 -23 -72 12 -101 64 -55 198 -87 360 -87 212 0
390 62 390 137 0 36 -19 67 -34 54 -6 -5 -18 -6 -25 -2 -7 5 -24 6 -37 2 -13
-3 -88 -3 -166 2 -79 4 -204 6 -280 5 -75 -2 -135 0 -133 3 10 14 -72 2 -87
-13z"/>
<path d="M14868 8795 l4 -35 333 0 c359 0 345 -2 345 51 0 18 -12 19 -343 19
l-343 0 4 -35z"/>
<path d="M14874 8715 c-4 -8 -3 -26 0 -40 l6 -25 328 2 327 3 3 38 3 37 -331
0 c-285 0 -331 -2 -336 -15z"/>
<path d="M14880 8585 l0 -35 325 0 325 0 0 35 0 35 -325 0 -325 0 0 -35z"/>
<path d="M14890 8475 l0 -35 314 0 314 0 6 23 c13 49 26 47 -314 47 l-320 0 0
-35z"/>
<path d="M7077 6913 c-4 -71 -7 -152 -7 -180 l0 -53 38 0 38 0 1 172 c1 180
-1 188 -43 188 -20 0 -21 -7 -27 -127z"/>
<path d="M7196 6998 c-3 -18 -8 -97 -11 -175 l-6 -143 40 0 40 0 3 175 3 175
-32 0 c-29 0 -33 -4 -37 -32z"/>
<path d="M7310 6920 c0 -58 -3 -135 -7 -172 l-6 -68 42 0 41 0 0 169 0 169
-35 4 -35 4 0 -106z"/>
<path d="M7430 6963 c0 -32 -3 -109 -7 -171 l-6 -113 39 3 39 3 3 168 2 167
-35 0 -35 0 0 -57z"/>
<path d="M14764 6695 c6 -24 19 -112 21 -140 2 -25 55 -31 303 -34 134 -1 172
1 173 11 0 7 2 22 4 33 2 11 6 38 10 60 3 22 8 51 11 65 3 14 -9 -8 -26 -48
l-32 -72 -200 2 c-166 3 -202 6 -210 18 -4 8 -19 40 -33 70 -14 30 -23 46 -21
35z"/>
<path d="M10326 29968 c-3 -18 -7 -619 -9 -1335 l-5 -1303 224 0 c203 0 223
-2 228 -17 3 -10 15 -70 26 -133 12 -63 24 -125 27 -137 l5 -23 2032 0 c1125
1 2105 5 2196 10 91 5 318 13 506 16 l341 7 29 151 29 151 224 3 224 2 -6 482
c-4 265 -7 859 -7 1320 l0 838 -3030 0 -3029 0 -5 -32z"/>
<path d="M27436 29918 c-3 -46 -7 -647 -9 -1335 l-4 -1253 225 -2 225 -3 22
-115 c12 -63 25 -132 29 -152 l7 -38 2032 0 c1126 1 2106 5 2197 10 91 5 318
13 506 16 l341 7 29 151 29 151 224 3 224 2 -6 512 c-4 281 -7 875 -7 1320 l0
808 -3029 0 -3029 0 -6 -82z"/>
<path d="M44546 29878 c-3 -68 -7 -669 -9 -1335 l-4 -1213 223 0 c203 0 223
-2 228 -17 5 -18 56 -279 56 -288 0 -9 4064 -4 4230 5 91 5 318 13 506 16
l341 7 29 151 29 151 224 3 224 2 -6 548 c-4 301 -7 895 -7 1320 l0 772 -3029
0 -3029 0 -6 -122z"/>
<path d="M33620 15720 c0 -11 -27 -283 -60 -606 -34 -323 -59 -588 -58 -589 2
-2 49 -26 105 -54 l103 -51 345 0 c335 0 345 -1 345 -19 0 -26 38 -845 43
-933 l4 -68 -498 0 c-275 0 -499 -2 -499 -5 0 -6 -188 -1251 -195 -1292 l-6
-33 2356 0 c2239 0 2356 1 2351 18 -28 98 -60 207 -61 209 -1 2 -106 18 -234
36 -131 19 -236 39 -240 45 -4 7 -69 220 -145 475 -76 254 -142 466 -147 471
-5 5 -223 24 -486 42 -453 31 -508 33 -1060 34 l-583 0 1 58 c0 31 10 260 22
507 l22 450 335 3 335 2 53 578 c29 317 52 586 52 597 0 14 -29 39 -93 83
l-92 62 -1007 0 c-998 0 -1008 0 -1008 -20z m579 -396 l54 -6 -6 -91 c-4 -51
-12 -156 -18 -234 l-12 -143 -176 0 -176 0 16 243 c10 133 18 243 18 244 2 3
242 -7 300 -13z"/>
<path d="M34011 15239 c9 -13 42 -68 74 -121 31 -54 61 -98 65 -98 7 0 25 219
18 225 -2 1 -41 6 -87 10 l-85 7 15 -23z"/>
<path d="M33959 15138 c0 -18 -4 -75 -7 -126 l-7 -92 83 0 c45 0 82 3 82 6 0
8 -142 244 -146 244 -2 0 -4 -15 -5 -32z"/>
<path d="M40656 12882 c-72 -218 -102 -392 -113 -649 l-6 -163 30 0 30 0 6
188 c7 199 29 387 72 596 14 71 24 130 22 133 -3 2 -21 -45 -41 -105z"/>
<path d="M39085 12353 c-71 -42 -222 -122 -335 -179 l-205 -103 343 -1 342 0
0 180 c0 99 -3 180 -7 179 -5 0 -66 -34 -138 -76z"/>
<path d="M46810 12198 c0 -35 7 -211 15 -393 8 -181 15 -342 15 -358 l0 -27
-457 2 -458 3 -7 65 c-4 36 -10 89 -13 118 l-6 52 -2430 0 c-1530 -1 -2429 -4
-2429 -10 0 -6 -7 -10 -15 -10 -8 0 -15 4 -15 9 0 6 -92 9 -227 8 -129 -1
-208 -4 -183 -8 42 -7 42 -7 -5 -2 -93 10 -6195 12 -6195 2 0 -5 -19 -8 -42
-8 l-43 2 40 6 c22 4 -358 8 -844 9 l-883 1 6 -37 c3 -20 6 -99 6 -175 0 -83
4 -136 9 -132 5 3 12 1 16 -5 9 -15 132 -13 138 3 3 9 7 9 19 0 11 -9 88 -15
264 -20 137 -3 357 -10 489 -14 132 -4 291 -7 353 -6 61 1 112 -1 112 -5 0 -5
36 -8 81 -8 44 0 78 4 75 8 -3 5 1 9 9 9 8 0 12 -4 9 -9 -4 -6 32 -8 85 -6 50
2 91 0 91 -4 0 -5 22 -8 49 -8 39 0 51 4 54 18 4 16 5 16 6 0 1 -20 21 -25 21
-5 0 8 2 9 8 1 10 -16 252 -25 252 -10 0 7 3 6 8 -1 6 -10 44 -12 145 -10 75
1 137 -1 137 -4 0 -3 42 -6 93 -7 50 0 163 -4 250 -7 126 -6 161 -5 174 6 12
10 14 10 9 2 -5 -10 4 -13 36 -13 48 0 70 14 60 38 -5 14 -4 15 10 2 14 -13
14 -16 -1 -28 -14 -11 -12 -13 17 -9 18 2 35 0 38 -5 7 -11 204 -8 204 3 0 5
-4 9 -10 9 -5 0 -10 6 -10 13 1 7 8 4 18 -8 10 -11 24 -21 31 -23 15 -3 505
-20 666 -23 340 -6 465 -6 380 1 l-90 7 97 0 c78 0 95 -2 91 -13 -7 -18 2 -18
35 2 25 15 26 15 7 0 -18 -16 -13 -17 85 -16 125 0 476 -9 609 -17 78 -5 92
-3 85 8 -6 11 -5 12 7 2 12 -10 18 -10 29 0 10 9 11 9 6 -1 -6 -10 6 -13 56
-13 34 0 118 -2 186 -5 100 -5 122 -4 122 7 0 10 2 11 8 2 5 -7 60 -14 156
-19 112 -5 147 -4 142 4 -9 14 6 16 20 3 8 -9 273 -21 714 -33 144 -4 328 -1
400 5 l55 5 -50 -7 -50 -8 40 -2 c22 -1 77 -5 122 -7 70 -5 84 -3 89 10 3 9
11 16 16 16 7 0 6 -5 -1 -14 -10 -12 21 -15 201 -21 117 -4 233 -5 258 -3 25
3 54 1 65 -3 11 -3 168 -10 350 -14 317 -7 329 -6 315 11 -11 13 -7 12 14 -4
28 -21 38 -23 180 -21 83 0 162 -2 176 -5 14 -3 140 -8 280 -11 140 -3 362 -8
494 -11 199 -5 237 -4 231 7 -5 8 1 6 12 -4 17 -15 42 -17 179 -18 87 -1 195
-2 239 -3 62 -1 79 2 77 12 -1 8 2 11 8 7 5 -3 10 -1 10 6 0 7 3 9 6 6 4 -4 2
-12 -3 -19 -7 -8 -11 -85 -10 -198 0 -141 2 -165 7 -100 l6 85 2 -81 c2 -63
-2 -84 -13 -94 -13 -11 -16 -41 -15 -179 1 -91 6 -171 11 -178 7 -7 6 -14 -2
-19 -8 -4 -9 -3 -5 4 4 7 2 12 -4 12 -7 0 -10 -20 -8 -57 2 -39 7 -57 15 -56
12 3 8 -21 -7 -42 -4 -5 -7 -56 -6 -112 0 -57 -2 -103 -6 -103 -4 0 -8 -80 -9
-177 -1 -98 -4 -259 -6 -357 -3 -139 -1 -181 9 -187 10 -7 8 -9 -5 -9 -17 0
-18 -13 -15 -184 2 -101 0 -182 -4 -179 -5 2 -9 -80 -10 -184 -1 -103 -4 -264
-7 -358 -5 -203 -4 -383 3 -482 3 -40 1 -75 -5 -78 -5 -3 -6 2 -3 12 5 15 4
16 -5 3 -6 -8 -11 -49 -10 -90 0 -87 -12 -564 -19 -694 -3 -73 -2 -87 9 -80
11 6 12 5 3 -7 -16 -19 -30 -404 -15 -394 6 3 8 12 4 18 -5 8 -2 8 9 0 8 -7
19 -9 23 -5 5 4 5 1 1 -6 -5 -7 -10 -11 -13 -8 -3 3 -11 -1 -19 -8 -10 -10
-15 -69 -19 -227 -4 -118 -10 -329 -14 -469 -4 -140 -7 -256 -6 -258 1 -1 541
-2 1199 -2 847 0 1204 -3 1218 -11 12 -6 18 -7 14 -1 -4 6 28 11 87 12 50 1
97 2 103 3 8 0 12 34 12 106 1 58 1 111 1 118 1 8 15 7 54 -3 28 -7 67 -14 85
-14 17 0 32 -5 32 -11 0 -8 20 -10 60 -7 l59 4 3 -40 c2 -23 2 25 -1 106 l-4
147 159 3 158 3 81 117 c44 65 103 150 131 190 27 40 106 154 174 253 68 99
150 218 183 265 81 117 221 321 323 469 l86 125 -6 320 c-3 177 -5 480 -5 674
l-1 352 -175 0 -175 0 0 -67 c0 -38 7 -214 15 -393 8 -179 15 -337 15 -353 l0
-27 -457 2 -457 3 -48 414 c-26 227 -49 415 -50 417 -2 1 -49 4 -105 5 -81 2
-100 5 -96 16 8 19 -27 94 -40 86 -6 -3 -7 -1 -3 5 7 12 -9 52 -25 62 -5 3
-10 21 -11 39 l-3 33 128 -2 c90 -1 127 2 127 10 0 14 -80 704 -86 740 -2 14
-6 59 -10 100 -3 41 -9 79 -14 84 -5 5 -6 15 -3 22 3 7 0 53 -7 101 -17 125
-22 166 -22 183 0 8 -7 67 -14 130 -8 63 -17 147 -20 185 -4 39 -10 77 -15 86
-5 9 -5 19 -2 23 3 3 257 6 563 6 l557 0 6 -122 c3 -68 18 -424 32 -793 14
-368 28 -689 31 -712 l5 -43 179 0 178 0 -4 618 c-2 339 -6 939 -9 1332 -2
393 -5 869 -5 1058 l0 342 -165 0 -165 0 0 -62z"/>
<path d="M36366 10480 c-124 -171 -226 -314 -226 -319 0 -4 -48 -50 -106 -102
l-105 -94 -132 -23 c-169 -29 -407 -89 -567 -143 -520 -174 -871 -429 -1019
-740 -62 -130 -76 -192 -76 -349 1 -158 19 -238 90 -387 70 -148 155 -264 305
-413 150 -151 303 -270 508 -397 150 -92 425 -234 597 -307 l110 -47 1 -107
c1 -175 44 -282 164 -403 116 -118 240 -169 408 -169 218 0 398 111 496 306
l25 50 123 -22 c450 -83 890 -123 1333 -124 l220 0 155 -135 c85 -74 163 -135
172 -135 34 0 158 30 221 54 133 50 248 149 302 260 22 45 32 56 58 61 311 64
623 170 867 296 169 88 300 180 410 289 135 133 227 289 265 447 27 111 17
320 -20 433 -135 417 -560 814 -1221 1140 -89 44 -166 80 -171 80 -6 0 -13 40
-16 88 -7 106 -23 172 -84 338 l-46 126 -178 -178 -178 -178 -93 29 c-51 15
-104 32 -117 37 -23 8 -12 21 189 224 125 126 209 219 204 224 -5 5 -79 32
-164 62 l-155 53 -160 0 c-154 0 -163 -1 -248 -31 -48 -18 -113 -47 -144 -65
-75 -45 -193 -157 -239 -227 -21 -32 -38 -58 -40 -60 -1 -2 -75 8 -165 22 -90
14 -235 33 -321 43 -145 15 -157 18 -143 33 8 9 15 21 15 26 -1 7 -645 554
-844 717 l-34 27 -226 -310z m466 -95 c111 -93 228 -192 258 -220 30 -27 76
-68 102 -89 l47 -40 -26 -30 c-15 -17 -31 -30 -37 -28 -6 2 -8 0 -4 -4 11 -10
-12 -35 -26 -27 -6 3 -8 2 -3 -2 10 -12 -33 -56 -47 -48 -6 3 -8 3 -4 -2 11
-11 -12 -36 -26 -28 -6 3 -7 2 -3 -2 9 -10 -121 -145 -139 -145 -7 0 -31 16
-54 35 -49 41 -46 42 -144 -63 l-69 -74 47 -47 c25 -26 46 -51 46 -56 0 -13
-151 -235 -160 -235 -4 0 -10 -9 -13 -21 -4 -13 -10 -18 -18 -13 -7 4 -10 3
-6 -4 9 -13 -161 -224 -174 -216 -5 3 -8 1 -7 -5 5 -17 -142 -172 -155 -165
-7 4 -9 4 -5 -1 10 -11 -11 -37 -23 -29 -5 3 -8 1 -7 -4 2 -5 -20 -30 -49 -56
-42 -38 -56 -45 -70 -37 -23 12 -53 47 -47 55 2 3 1 4 -2 1 -4 -2 -20 5 -36
17 -27 19 -39 20 -127 15 -112 -6 -224 -39 -313 -93 -103 -63 -209 -199 -292
-374 l-41 -87 -57 26 -58 26 36 105 c89 266 370 769 594 1065 142 188 274 334
412 457 l67 60 50 -43 c50 -43 78 -56 78 -35 0 19 74 116 84 110 5 -3 6 1 3 9
-3 8 2 20 11 27 15 13 21 50 8 50 -5 1 -25 16 -46 35 l-39 34 48 68 c58 81
140 194 152 209 5 5 22 29 37 52 15 24 32 41 36 40 5 -2 100 -79 211 -173z
m2091 -245 c21 -6 37 -15 35 -20 -2 -5 -85 -92 -186 -194 l-183 -183 11 -44
c35 -129 117 -229 232 -284 138 -67 115 -77 329 145 l187 194 11 -40 c68 -237
5 -465 -174 -633 -148 -138 -381 -193 -572 -136 l-47 14 -100 -97 c-56 -53
-217 -211 -359 -352 -142 -140 -264 -255 -271 -255 -8 0 -33 16 -57 37 -167
139 -197 166 -191 173 4 5 2 5 -4 2 -10 -6 -124 77 -124 90 0 13 302 333 570
605 85 87 155 161 155 165 0 5 -8 40 -18 80 -57 241 35 500 227 638 123 87
223 116 381 111 61 -3 127 -10 148 -16z m-2078 -1084 c223 -180 204 -158 170
-202 -24 -32 -26 -39 -13 -48 40 -30 495 -392 506 -403 7 -7 63 -52 123 -99
60 -47 109 -88 109 -91 0 -2 -7 -11 -15 -19 -14 -14 -19 -11 -16 9 2 12 -6 8
-20 -10 -12 -14 -12 -16 0 -8 10 5 12 4 7 -4 -4 -6 -11 -9 -16 -6 -11 7 -41
-5 -35 -15 2 -4 -3 -7 -13 -6 -18 1 -92 60 -496 393 l-221 183 -55 -60 -55
-60 -135 121 c-74 66 -148 133 -164 149 l-29 28 93 146 c55 84 98 142 104 139
6 -4 83 -65 171 -137z m274 -948 c27 -24 52 -51 56 -61 4 -9 10 -15 14 -13 4
3 39 -23 77 -57 38 -34 91 -80 117 -101 l48 -38 -360 -355 -360 -354 6 -62
c24 -256 -207 -467 -467 -427 -179 28 -313 163 -349 350 -31 166 63 344 225
424 51 26 73 31 160 34 l102 4 333 349 c184 191 337 348 341 349 4 0 30 -19
57 -42z m1801 -749 c58 -46 107 -86 110 -89 3 -3 28 -23 55 -45 28 -22 55 -44
61 -50 6 -6 39 -33 73 -60 60 -49 61 -51 61 -100 0 -61 -22 -150 -51 -207 -29
-58 -100 -130 -156 -160 l-48 -26 -260 234 c-143 128 -261 237 -263 243 -6 17
289 362 302 353 6 -5 58 -47 116 -93z"/>
<path d="M36147 7053 c2 -82 3 -154 3 -160 0 -10 39 -13 161 -13 l161 0 -6 23
c-3 12 -6 84 -6 160 l0 137 -157 0 -158 0 2 -147z"/>
<path d="M38746 7098 c-20 -29 -20 -44 3 -94 37 -82 151 -164 229 -164 35 0
72 29 72 58 0 34 -47 118 -85 151 -80 70 -188 94 -219 49z"/>
<path d="M26220 7858 c0 -57 9 -375 20 -708 11 -333 20 -622 20 -642 l0 -38
170 0 c94 0 170 1 170 3 6 40 67 1474 64 1479 -3 4 -104 8 -225 8 l-219 0 0
-102z"/>
<path d="M9900 7904 c-118 -12 -223 -23 -232 -23 -14 -1 -18 -10 -18 -35 0
-70 -16 -66 281 -66 l268 0 5 33 c3 17 7 51 9 73 l5 42 -52 0 c-28 0 -148 -11
-266 -24z"/>
<path d="M24477 7783 c-3 -7 38 -1352 42 -1360 1 -2 50 -3 110 -3 l109 0 -4
73 c-6 90 -64 1252 -64 1278 0 17 -8 19 -94 19 -52 0 -97 -3 -99 -7z"/>
<path d="M9166 7228 c-5 -41 -9 -204 -22 -840 l-5 -268 785 0 786 0 0 103 c-1
82 -27 1035 -29 1045 -1 1 -14 2 -31 2 -33 0 -33 2 -50 -165 -6 -55 -13 -115
-16 -132 l-5 -33 -149 0 c-82 0 -151 -4 -154 -9 -3 -4 -12 -98 -21 -207 -9
-109 -18 -209 -21 -222 l-4 -22 -298 2 -297 3 -18 219 c-10 121 -19 221 -20
222 -1 1 -72 6 -157 11 l-155 8 -17 149 c-9 82 -19 155 -22 163 -3 7 -20 13
-40 13 -33 0 -35 -2 -40 -42z"/>
<path d="M47073 6828 c-115 -161 -292 -408 -393 -548 -101 -140 -203 -283
-228 -317 l-44 -63 882 0 882 0 -24 33 c-14 17 -92 127 -175 242 -82 116 -210
293 -283 395 -73 102 -192 267 -263 368 -72 100 -134 182 -137 182 -4 0 -102
-132 -217 -292z"/>
<path d="M3925 6848 c-146 -80 -145 -269 2 -338 118 -55 263 33 263 160 0 50
-26 115 -56 142 -49 43 -161 63 -209 36z"/>
<path d="M3829 5517 c-3 -4 -197 -7 -432 -7 l-427 -1 -5 -22 c-7 -35 -21 -227
-16 -232 2 -3 794 -5 1759 -5 l1755 0 -6 52 c-3 29 -9 88 -13 131 l-7 77 -721
0 c-396 0 -982 3 -1301 6 -319 4 -583 4 -586 1z"/>
<path d="M7466 5493 c-2 -10 -7 -54 -11 -98 -3 -44 -9 -95 -12 -112 l-5 -33
1602 0 1603 0 -6 53 c-3 28 -9 87 -13 130 l-7 77 -1573 0 c-1489 0 -1573 -1
-1578 -17z"/>
<path d="M11646 5483 c-2 -16 -8 -59 -11 -98 -3 -38 -9 -85 -12 -102 l-5 -33
1601 0 c1497 0 1601 1 1601 17 0 9 -5 68 -11 130 l-12 113 -1573 0 -1572 0 -6
-27z"/>
<path d="M18144 5473 c2 -21 0 -42 -4 -48 -4 -5 -11 -47 -14 -92 l-7 -83 1757
0 1757 0 -7 77 c-4 43 -10 102 -13 131 l-6 52 -1733 0 -1732 0 2 -37z"/>
<path d="M22646 5483 c-3 -16 -8 -62 -11 -103 -3 -41 -8 -87 -11 -102 l-6 -28
1596 0 1596 0 0 23 c0 12 -5 70 -12 130 l-11 107 -1568 0 -1567 0 -6 -27z"/>
<path d="M46708 5477 c-4 -76 -8 -125 -14 -174 l-6 -52 347 1 347 0 -5 24 c-3
17 1 28 14 35 13 6 19 6 19 -1 0 -5 6 -9 13 -8 6 2 11 -2 10 -8 -1 -7 17 -15
43 -19 24 -3 42 -10 39 -16 -4 -5 209 -9 555 -9 446 0 560 3 554 13 -5 6 -46
65 -92 129 l-84 118 -869 0 -869 0 -2 -33z"/>
<path d="M48721 5423 c34 -49 73 -107 88 -130 l26 -42 309 -1 308 0 -6 98 c-4
53 -10 112 -13 130 l-5 32 -384 0 -384 0 61 -87z"/>
</g>
</svg>
