<?xml version="1.0" encoding="UTF-8"?>
<!DOCTYPE svg PUBLIC "-//W3C//DTD SVG 1.1//EN" "http://www.w3.org/Graphics/SVG/1.1/DTD/svg11.dtd">
<!-- Creator: CorelDRAW X7 -->
<svg xmlns="http://www.w3.org/2000/svg" xml:space="preserve" width="3543px" height="1866px" version="1.1" style="shape-rendering:geometricPrecision; text-rendering:geometricPrecision; image-rendering:optimizeQuality; fill-rule:evenodd; clip-rule:evenodd"
viewBox="0 0 3543 1866"
 xmlns:xlink="http://www.w3.org/1999/xlink">
 <defs>
  <style type="text/css">
   <![CDATA[
    .fil3 {fill:#FEFEFE}
    .fil0 {fill:#2B2A29}
    .fil2 {fill:#FEFEFE;fill-rule:nonzero}
    .fil1 {fill:#2B2A29;fill-rule:nonzero}
   ]]>
  </style>
 </defs>
 <g id="Vrstva_x0020_1">
  <metadata id="CorelCorpID_0Corel-Layer"/>
  <path class="fil0" d="M2360 1046l-6 0 -15 0c-3,0 -6,-3 -6,-6 0,-14 -1,-29 0,-44 0,-2 2,-5 4,-6 2,-2 4,-3 4,-5l0 -4 -6 0 0 -30 19 0 6 0 19 0 0 30 -6 0 0 4c0,2 2,3 4,5 2,1 4,4 4,6 1,15 0,30 0,44 0,3 -2,6 -5,6l-16 0z"/>
  <path class="fil0" d="M1686 788l0 16 6 1c0,0 0,51 -2,61 -2,10 -19,8 -18,43 0,36 1,124 1,124 0,0 1,8 9,10 7,1 46,1 53,0 8,-2 9,-10 9,-10 0,0 0,-88 1,-124 0,-35 -17,-33 -19,-43 -2,-10 -2,-61 -2,-61l6 -1 0 -16 -44 0z"/>
  <path class="fil1" d="M340 716l357 10 17 11 0 2 0 0 0 0 0 0 -1 0 -7 10 -7 -7 -7 8 -7 -8 -6 8 -7 -8 -7 8 -6 -7 -7 8 -7 -8 -6 8 -7 -7 -7 8 -7 -8 -6 8 -7 -8 -6 8 -7 -7 -7 8 -7 -8 -6 8 -7 -8 -7 9 -6 -8 -7 8 -7 -8 -6 8 -7 -7 -7 8 -7 -8 -6 8 -7 -8 -6 9 -7 -8 -7 8 -7 -8 -6 8 -7 -7 -6 8 -7 -8 -7 8 -7 -8 -6 9 -7 -8 -7 8 -6 -8 -7 8 -7 -7 -6 8 -7 -8 -7 8 -7 -8 -6 9 -7 -8 -6 8 -9 -9 -8 0c-1,2 -2,3 -3,5 0,0 -19,7 -46,2l-26 -7 0 0c0,0 -6,-2 -10,1 0,0 -3,3 -3,9 0,7 -4,23 -8,35 -4,13 -16,44 -20,49 0,0 0,7 4,10 0,0 2,1 3,2 1,0 1,1 1,2 0,1 0,3 -6,6 -7,2 -30,9 -40,0l-2 -17c0,0 0,-2 2,-3 0,0 -2,-6 3,-24 5,-17 19,-59 19,-59 0,0 12,-38 27,-45 0,0 7,-10 46,-10 39,-1 63,1 63,1 0,0 8,2 8,6 0,0 0,1 0,2z"/>
  <path class="fil0" d="M2930 477l6 0 16 0c3,0 5,-2 5,-5 0,-15 1,-30 0,-44 0,-3 -2,-5 -4,-7 -2,-1 -4,-2 -4,-4l0 -4 6 0 0 -30 -19 0 -6 0 -18 0 0 30 5 0 0 4c0,2 -2,3 -4,4 -2,2 -4,4 -4,7 -1,14 0,29 0,44 0,3 3,5 6,5l15 0z"/>
  <path class="fil0" d="M2997 478l8 0 18 0c4,0 7,-3 7,-7 0,-18 1,-36 0,-54 0,-3 -2,-6 -5,-8 -2,-1 -5,-3 -5,-6l0 -5 7 0 0 -37 -22 0 -8 0 -23 0 0 37 7 0 0 5c0,3 -3,5 -5,6 -2,2 -4,5 -5,8 -1,18 0,36 0,54 0,4 3,7 7,7l19 0z"/>
  <path class="fil1" d="M593 557l-427 -1c0,0 -7,-1 -8,9 0,4 -1,9 -1,14l0 0c-1,7 -2,14 -2,14l13 3 -12 -3 9 16 11 -9 6 13 11 -9 7 12 11 -8 7 12 10 -9 7 12 11 -8 7 12 11 -9 6 12 11 -8 7 12 11 -9 7 13 11 -9 6 12 11 -8 7 12 11 -9 7 12 10 -8 7 12 11 -9 7 12 11 -8 6 12 11 -9 7 13 11 -9 7 12 11 -9 6 13 11 -9 7 12 11 -8 7 12 11 -9 6 12 11 -8 7 12 11 -9 7 12 10 -8 7 12 11 -9 7 13 11 -9 6 12 11 -9 7 13 11 -9 7 12 12 -10 4 1c2,1 4,2 8,2 8,0 30,0 41,-1 11,0 41,-3 49,-4 7,0 25,-1 25,-7 0,0 -1,-1 -1,-1l0 0 -1 -1 0 0 0 0 0 0 0 0 0 0 0 0 0 0 0 0 0 0 0 0 0 0 0 0 0 0 0 0 0 0 0 0 0 0 0 0 0 0 0 0 0 0 0 -1 0 0 -1 0 0 0 0 0 0 0 0 0 0 0 0 0 0 0 0 0 0 0 0 0 0 0 0 0 0 0 0 0 0 0 0 0 0 0 0 0 0 0 0 0 -1 0 0 0 0 0 0 0c-2,-2 -20,-13 -21,-32 0,-18 -2,-34 -11,-50 -8,-16 -11,-22 -6,-31 6,-10 12,-10 12,-10l0 0 0 0 0 0 0 0 0 0 0 0 0 0 0 0 0 0 0 0 0 0 0 0 0 0 0 0 0 0 0 0 0 0 0 0 0 0 0 0 0 0 0 0 0 0 0 0 0 0 0 0 0 0c1,0 3,-1 2,-4 -1,-4 -1,-4 -6,-4 -6,1 -52,4 -63,4 -11,0 -88,-1 -88,-1 0,0 -1,0 -2,2zm119 126l0 0c0,0 -12,1 -21,-1 -9,-2 -16,-3 -32,-30 -16,-27 -19,-54 -19,-54 0,0 -1,-4 4,-14 5,-10 23,-10 35,-10 12,-1 16,3 18,7 3,5 2,8 0,13 -1,6 1,10 5,14 4,5 3,7 3,12 0,5 2,10 6,15 4,6 3,8 3,14 0,6 4,11 8,16 4,5 2,9 2,9 -1,10 -12,9 -12,9z"/>
  <path class="fil0" d="M1593 267l0 22 -17 1 -4 -12 -161 0c0,1 -5,8 -5,8 -11,10 -8,-6 -18,28 -3,7 -6,14 -9,22 -3,9 -5,11 -11,20 4,9 15,14 18,55l8 66 533 0c1,-18 6,-80 12,-97 4,-14 4,-13 13,-24 -2,-11 -4,-3 -11,-17l-16 -45c-9,-12 2,7 -16,-15l-155 -1 -6 11 -21 0 0 -56c-37,5 -96,4 -134,2l0 32zm12 22l38 0 0 28 34 0 0 -27 39 -1 0 -33 -111 0 0 33z"/>
  <path class="fil0" d="M3383 1084l0 -848 0 -2 -390 0 0 62 333 0 0 773c8,0 15,6 15,15l42 0zm-18 -42c0,-7 -5,-13 -12,-13 -7,0 -13,6 -13,13 0,7 6,12 13,12 7,0 12,-5 12,-12z"/>
  <path class="fil0" d="M2532 1026c-23,-7 -26,-27 -17,-47 13,-30 16,-13 17,-54l-1 -218c0,-19 5,-51 -7,-66 -69,-90 33,-121 49,-66 5,19 -1,45 -7,62 -11,29 -6,106 -6,141l1 179c0,13 3,20 4,31 3,21 -9,45 -33,38zm-8 -44l1 17 29 -8c0,21 -1,23 -12,27 -19,-4 -29,-19 -18,-36zm33 -373l-38 -15 1 17c-21,-23 -3,-46 18,-47 24,-2 31,34 19,45z"/>
  <path class="fil0" d="M3180 922l-3 -24 14 -11 15 6 7 23c24,-38 -7,-36 -11,-56 -1,-13 0,-163 0,-193 0,-15 -2,-42 0,-55 3,-18 18,-20 15,-40 -5,-39 -63,-24 -50,14 6,18 14,9 14,41l-1 221c0,32 -9,19 -16,38 -6,15 1,31 16,36zm11 -364l16 9 0 17 -16 9 -15 -9 0 -17 15 -9z"/>
  <path class="fil0" d="M2272 1465l-98 0c6,-44 17,-88 34,-130 12,-30 4,-1 0,-65 -1,-14 -6,-62 15,-63 25,-1 15,83 12,99 -4,17 -8,2 3,29 13,34 33,94 34,130z"/>
  <path class="fil0" d="M335 1362c6,-9 1,-35 -3,-45l-4 -27c1,-4 2,-11 3,-15 1,-15 -3,-19 -4,-31 -6,-34 1,-99 5,-113l24 -1c14,23 13,99 6,124 -7,23 4,29 0,43l-8 44c-3,18 -5,14 7,26 8,12 4,14 4,27 1,18 3,113 -1,124l-37 0c-4,-12 -2,-108 -2,-128 2,-6 0,-11 2,-17 1,-4 5,-7 8,-11z"/>
  <path class="fil0" d="M3108 899c-1,-8 -2,-15 -3,-23 5,-3 9,-7 13,-11 5,3 10,5 15,7 2,7 4,14 5,21 23,-35 -6,-33 -9,-52 -2,-12 -1,-153 -1,-182 0,-14 -1,-39 1,-51 3,-17 17,-19 14,-38 -5,-36 -59,-22 -47,13 6,18 13,9 13,39 0,69 0,138 0,208 0,29 -10,17 -16,35 -5,14 1,29 15,34zm11 -342c4,3 9,6 14,9 0,5 0,11 0,16 -5,3 -10,6 -14,8 -5,-2 -10,-5 -15,-8 0,-5 0,-11 0,-16 5,-3 10,-6 15,-9z"/>
  <path class="fil0" d="M3064 875c1,-7 2,-14 3,-21 -4,-3 -8,-6 -12,-10 -4,2 -9,4 -14,6 -1,7 -3,13 -5,20 -21,-33 6,-31 9,-49 2,-11 0,-142 0,-169 0,-13 2,-37 0,-48 -3,-16 -16,-17 -13,-35 5,-34 55,-21 44,12 -6,16 -11,9 -11,36 0,65 -2,129 -2,194 0,28 10,16 16,33 4,13 -2,27 -15,31zm-10 -318c-4,2 -8,5 -13,8 0,5 0,10 0,15 5,2 9,5 13,8 5,-3 9,-6 14,-8 0,-5 0,-10 0,-15 -5,-3 -9,-6 -14,-8z"/>
  <path class="fil0" d="M2987 852c-1,-6 -2,-13 -3,-19 4,-4 8,-7 11,-10 4,2 9,4 13,6 2,6 3,12 5,18 20,-30 -6,-29 -8,-45 -2,-10 -1,-132 -1,-157 0,-12 -1,-34 1,-45 2,-14 14,-16 12,-32 -5,-32 -51,-20 -41,11 5,15 12,8 12,33 0,60 0,120 0,180 -1,26 -9,15 -15,31 -4,12 2,25 14,29zm9 -296c4,3 8,5 12,7 0,5 0,10 0,15 -4,2 -8,4 -12,7 -4,-3 -8,-5 -13,-7 0,-5 0,-10 0,-15 5,-2 9,-4 13,-7z"/>
  <path class="fil0" d="M2931 829c-1,-6 -1,-12 -2,-18 3,-3 6,-6 10,-9 4,2 8,4 11,5 2,6 4,12 5,17 19,-28 -5,-26 -7,-42 -2,-9 -1,-122 -1,-145 0,-11 -1,-31 0,-41 3,-13 14,-15 12,-30 -4,-29 -48,-18 -38,11 5,14 11,7 11,30 0,56 0,111 0,167 0,23 -8,13 -14,28 -4,11 2,23 13,27zm8 -273c4,2 8,4 12,6 0,5 0,9 0,14 -4,2 -8,4 -12,6 -3,-2 -7,-4 -11,-6 0,-5 0,-9 0,-14 4,-2 8,-4 11,-6z"/>
  <path class="fil0" d="M2877 549c-1,6 -2,11 -2,17 3,2 6,5 9,7 3,-1 7,-3 10,-4 2,-5 3,-10 5,-16 17,26 -5,25 -7,39 -2,8 -1,112 -1,133 0,10 -1,28 1,38 2,12 12,13 10,27 -4,26 -43,17 -35,-10 5,-12 10,-6 10,-28 0,-51 0,-101 0,-152 0,-22 -7,-13 -12,-26 -4,-10 1,-22 12,-25zm7 250c4,-2 7,-4 11,-6 0,-4 0,-8 0,-12 -4,-2 -7,-4 -11,-6 -3,2 -7,4 -10,6 0,4 0,8 0,12 3,2 7,4 10,6z"/>
  <path class="fil0" d="M2827 782c-1,-5 -2,-10 -2,-15 2,-2 5,-4 8,-7 3,2 6,3 10,4 1,5 2,10 4,14 15,-23 -5,-22 -7,-34 -1,-8 0,-102 0,-121 0,-10 -1,-27 0,-35 2,-11 11,-12 10,-25 -4,-24 -40,-15 -32,9 4,12 9,6 9,26 0,46 0,92 0,138 0,20 -7,12 -11,24 -3,9 1,19 11,22zm6 -227c4,1 7,3 10,5 0,4 0,7 0,11 -3,2 -6,4 -10,6 -3,-2 -6,-4 -9,-6 0,-4 0,-7 0,-11 3,-2 6,-4 9,-5z"/>
  <path class="fil0" d="M2778 759c-1,-5 -1,-9 -2,-14 3,-2 5,-4 8,-6 2,1 5,3 8,4 2,4 3,8 4,13 14,-22 -4,-20 -6,-32 -1,-7 0,-91 0,-109 0,-8 -1,-23 0,-31 2,-10 10,-11 9,-22 -4,-22 -36,-14 -29,8 4,10 8,5 8,23 0,41 0,83 0,125 0,17 -6,10 -10,21 -3,8 1,17 10,20zm6 -205c3,2 6,3 9,5 0,3 0,7 0,10 -3,2 -6,3 -9,5 -3,-2 -6,-3 -9,-5 0,-3 0,-7 0,-10 3,-2 6,-3 9,-5z"/>
  <path class="fil0" d="M2726 736l-1 -12 6 -6 8 3 3 12c12,-19 -3,-18 -5,-28 -1,-7 0,-82 0,-97 0,-7 -1,-21 0,-28 2,-8 9,-9 8,-20 -3,-19 -32,-12 -26,7 4,10 8,5 8,21l0 111c0,16 -6,9 -9,19 -3,7 1,15 8,18zm6 -182l7 4 0 9 -7 4 -8 -4 0 -9 8 -4z"/>
  <path class="fil0" d="M2441 892c-16,-5 -18,-19 -12,-33 9,-21 12,-9 12,-38l-1 -150c0,-13 4,-35 -4,-45 -48,-63 22,-84 33,-46 4,13 0,31 -5,43 -7,20 -4,73 -4,97l1 124c0,9 2,14 3,22 2,14 -6,31 -23,26zm-5 -31l0 12 20 -6c0,15 -1,16 -8,19 -13,-3 -20,-13 -12,-25zm22 -258l-26 -10 1 12c-15,-16 9,-32 12,-33 12,-3 22,23 13,31z"/>
  <path class="fil0" d="M1988 1233l-3 -2c0,-4 2,-8 1,-12 -2,-6 -1,-39 -1,-46 4,-3 10,-3 11,3l0 39c0,7 -3,-1 0,16l-4 2 -1 86 -2 0 -1 -42c0,-14 0,-29 0,-44z"/>
  <path class="fil0" d="M625 1152c18,10 28,-7 44,-4 20,3 19,17 19,34 0,36 0,72 0,108 0,14 -4,33 -5,48 -6,45 -3,105 -3,152l41 0c5,-5 2,-93 2,-107 -1,-36 -11,-71 -11,-107 0,-24 -3,-97 1,-116 5,-20 26,-14 38,-5 10,9 18,20 28,29 -3,-57 -80,-73 -101,-64 -11,5 -13,7 -26,2 -37,-16 -34,20 -27,30z"/>
  <path class="fil0" d="M2328 726l-12 -41 33 11 -12 35 18 1c5,9 14,56 17,70l46 216 20 -4c-4,-46 -53,-215 -62,-275 -1,-9 2,-10 0,-21 -3,-13 -8,-29 -10,-43 -4,-28 9,-67 3,-96 -6,-29 -35,-49 -60,-27 -22,20 -15,56 -13,82 6,68 -6,51 -8,94 0,0 -4,30 -4,34 -5,5 -25,109 -29,126 -2,11 -6,17 -9,30l-20 95 21 5c5,-16 16,-72 21,-95 3,-13 3,-22 5,-34 9,-40 23,-90 28,-129l6 -29 21 0 0 -5zm-12 -57l33 0c-1,-8 -9,-51 -16,-52 -9,-2 -9,16 -11,23 -2,10 -5,19 -6,29zm-8 -71c4,0 7,3 7,7 0,4 -3,7 -7,7 -4,0 -7,-3 -7,-7 0,-4 3,-7 7,-7zm47 0c4,0 7,3 7,7 0,4 -3,7 -7,7 -4,0 -7,-3 -7,-7 0,-4 3,-7 7,-7zm-24 78c2,0 4,2 4,4 0,2 -2,3 -4,3 -2,0 -4,-1 -4,-3 0,-2 2,-4 4,-4zm25 0c2,0 4,2 4,4 0,2 -2,3 -4,3 -2,0 -4,-1 -4,-3 0,-2 2,-4 4,-4zm-49 0c2,0 3,2 3,4 0,2 -1,3 -3,3 -2,0 -4,-1 -4,-3 0,-2 2,-4 4,-4z"/>
  <path class="fil0" d="M212 981l399 0c2,-8 3,-64 1,-72 -3,-19 -31,-14 -46,-14l-307 1c-16,1 -37,3 -44,16 -7,11 -8,58 -3,69zm18 12l-3 4 -4 -4c-16,-4 -21,5 -36,-1 -3,-6 0,-42 0,-52 1,-69 34,-60 97,-63 116,-5 209,-1 320,-2 18,0 36,0 53,0 14,0 38,-4 42,13 6,25 6,16 19,36 53,84 -8,100 -17,88l-11 -35c-8,-9 -10,-16 -14,-27 -9,-24 -4,-51 -39,-44l-2 76 12 -11 5 7 -11 6 11 7 -11 6 10 7 -4 7 -13 -13 -22 0 -4 -4 -3 3 -3 -3 0 0 -4 3 -3 -3 0 0 -3 3 -4 -3 0 0 -3 3 -4 -3 0 0 -3 3 -4 -3 0 0 -3 3 -3 -3 -1 0 -3 3 -3 -3 -1 0 -3 3 -3 -3 -1 0 -3 3 -3 -3 0 0 -4 3 -3 -3 0 0 -4 3 -3 -3 0 0 -3 3 -4 -3 0 0 -3 3 -4 -3 0 0 -3 3 -4 -3 0 0 -3 3 -3 -3 -1 0 -3 3 -3 -3 -1 0 -3 3 -3 -3 0 0 -4 3 -3 -3 0 0 -4 3 -3 -3 0 0 -4 3 -3 -3 0 0 -3 3 -4 -3 0 0 -3 3 -4 -3 0 0 -3 3 -4 -3 0 0 -3 3 -3 -3 -1 0 -3 3 -3 -3 -1 0 -3 3 -3 -3 0 0 -4 3 -3 -4 0 0 -4 4 -3 -3 -3 3 -3 -4 -1 0 -3 4 -3 -4 0 0 -4 4 -3 -4 0 0 -4 4 -3 -4 0 0 -4 4 -3 -4 0 0 -3 4 -4 -4 0 0 -3 4 -4 -4 0 0 -3 4 -4 -4 0 0 -3 4 -4 -4 0 0 -3 4 -3 -4 0 0 -4 4 -3 -4 0 0 -4 4 -3 -4 0 0 -4 4 -3 -4 -4 4 -3 -4 -3 4 -4 -4 -3 4 -4 -4 -3 4 -4 -4 -3 4 -4 -4 -3 4 -3 -4 -4 4 -3 -4 -4 4 -3 -4 -4 4 -3 -4 -4 4 -3 -4 -3 4 -4 -4 -3 4 -4 -4 -3 4 -4 -4 -3 4 -4 -4z"/>
  <path class="fil1" d="M406 480l306 6 39 -52 -26 -7 -10 -23 4 -36 -22 17c0,0 -19,-18 -42,-6 -24,12 -35,29 -35,29 0,0 -11,6 -26,-2 -15,-7 -90,-57 -109,-66 -10,-4 -60,-12 -80,17 -20,29 -20,82 -21,109 -1,1 -2,3 -3,4 0,0 -66,73 -62,114 2,21 14,44 24,64 7,15 13,27 13,33 -1,15 -7,16 -7,16 -3,4 -2,10 2,13 4,4 10,3 14,-1 0,0 9,-5 11,-27 1,-10 -7,-25 -16,-43 -9,-18 -14,-40 -16,-58 -3,-34 47,-83 62,-101zm249 -47l9 11 -11 0 2 -11zm56 31c-20,-5 -29,-18 -31,-34 13,3 28,7 31,34zm-10 -23c3,3 3,8 0,11 -3,3 -8,2 -11,-1 -3,-3 -3,-8 0,-11 4,-3 9,-3 11,1zm-29 -20c-17,-4 -24,-14 -26,-28 11,3 24,6 26,28zm-8 -19c2,3 2,7 0,9 -3,2 -7,2 -9,0 -3,-3 -3,-7 0,-9 3,-3 7,-3 9,0z"/>
  <path class="fil0" d="M2240 677c9,13 7,7 7,29 -11,9 -8,6 -8,19 0,14 0,56 -4,66 -4,12 -30,20 -29,-20l-1 -40c-31,0 -21,48 -21,70l0 186c0,34 -37,38 -36,-6l-2 -375 58 0 -1 -11 -61 -1c10,-31 75,-53 94,-19 7,14 3,18 5,32 1,10 9,9 16,20 15,28 -7,37 -17,50zm-74 307c-5,0 -9,4 -9,9 0,5 4,9 9,9 4,0 8,-4 8,-9 0,-5 -4,-9 -8,-9zm38 -304l-8 5 5 11 -5 10 8 5 -15 0 1 -31 14 0z"/>
  <path class="fil0" d="M1321 1349c8,-8 -10,-48 -4,-70 5,-22 10,-48 20,-64 8,16 18,45 19,64 1,18 -4,54 -4,70 10,-1 15,-44 15,-53 5,-46 -22,-83 -13,-122 2,-12 -1,-49 -16,-51 -17,-3 -22,37 -19,49 4,22 1,39 -5,61 -11,37 -11,55 -4,91 2,7 3,23 11,25zm16 -195c5,-5 5,-14 0,-18 -6,2 -7,14 0,18zm0 42c4,0 6,3 6,6 0,3 -2,6 -6,6 -3,0 -6,-3 -6,-6 0,-3 3,-6 6,-6z"/>
  <path class="fil0" d="M1142 1346c9,-6 2,-23 0,-33 -6,-43 7,-68 21,-110 10,4 9,22 12,30 3,11 9,20 11,31 3,14 3,32 -1,46l-7 29c-1,4 3,7 6,6 9,-2 14,-44 16,-55 5,-48 -20,-61 -22,-99l0 -5 3 -7 -13 -55 -9 0 -11 53c-1,9 1,-1 2,8 0,5 -4,27 -6,32 -2,7 -4,6 -6,13 -7,18 -13,38 -11,59 2,11 6,51 15,57zm22 -161c3,0 5,3 5,6 0,3 -2,5 -5,5 -3,0 -6,-2 -6,-5 0,-3 3,-6 6,-6zm-1 -35c5,-3 5,-8 0,-12 -3,4 -3,8 0,12zm1 9c4,0 8,4 8,8 0,5 -4,8 -8,8 -5,0 -8,-3 -8,-8 0,-4 3,-8 8,-8z"/>
  <path class="fil0" d="M1232 1340c10,-4 2,-21 1,-31 -2,-11 -2,-27 0,-39 4,-21 13,-42 20,-62 8,9 8,20 11,30 12,38 11,35 9,71 -9,35 -5,32 0,31 9,-4 23,-67 3,-110 -8,-17 -4,-2 -8,-24 -1,-8 -2,-3 -2,-13l0 -17 -11 -52 -3 0 -11 53c-3,13 0,14 -1,21 -1,7 -1,1 -2,7 -3,16 2,5 -8,25 -7,14 -13,39 -11,55 2,11 6,48 13,55zm20 -182c2,-1 3,1 4,-4 0,-4 -1,-5 -3,-7 -3,4 -4,6 -1,11zm1 31c3,0 6,3 6,6 0,3 -3,6 -6,6 -4,0 -6,-3 -6,-6 0,-3 2,-6 6,-6z"/>
  <path class="fil0" d="M1529 1541l14 0c5,-23 3,-229 4,-259 1,-46 16,-42 24,-63l1 -2 2 2c8,21 23,17 24,63 1,30 -1,236 4,259l14 0c4,-13 1,-213 1,-245 1,-88 -9,-61 -25,-98 -2,-5 12,-68 -19,-94l-1 1 0 -1c-32,26 -17,89 -19,94 -16,37 -26,10 -25,98 0,32 -3,232 1,245zm37 -350l0 10c8,5 12,3 14,-5 -2,-7 0,-5 -7,-8l-7 3z"/>
  <g id="_2612413435904">
   <path class="fil0" d="M2479 1123c-7,1 -15,0 -22,0 -11,1 -10,4 -16,4 -5,0 -5,-5 -41,-4 -19,1 -40,17 -57,26l0 17c17,8 24,26 74,26 25,0 6,-4 34,1 3,17 0,33 -1,49 -3,1 -5,2 -5,3 0,1 2,1 4,2 -1,7 -1,15 -1,22l-1 80 33 -1c2,-5 1,-58 0,-101 3,0 5,-1 5,-2 0,-1 -2,-2 -5,-3 0,-23 -1,-43 -1,-50 12,16 5,14 45,14 21,0 41,0 62,0 23,-1 31,-3 36,23 3,19 5,17 35,26 17,47 15,78 22,86 2,2 39,7 46,-5 6,-11 9,-6 5,-48 -4,-40 -14,-83 -34,-118 -5,-8 -9,-16 -15,-24l-1 -23c-10,-18 -25,-12 -44,-12l-141 0c-14,2 -8,4 -16,12zm27 1l42 0c1,0 2,1 2,2l0 0c0,1 -1,2 -2,2l-42 0c-1,0 -2,-1 -2,-2l0 0c0,-1 1,-2 2,-2zm0 9l42 0c1,0 2,1 2,2l0 0c0,1 -1,2 -2,2l-42 0c-1,0 -2,-1 -2,-2l0 0c0,-1 1,-2 2,-2zm0 8l42 0c1,0 2,1 2,3l0 0c0,1 -1,2 -2,2l-42 0c-1,0 -2,-1 -2,-2l0 0c0,-2 1,-3 2,-3zm0 9l42 0c1,0 2,1 2,3l0 0c0,1 -1,2 -2,2l-42 0c-1,0 -2,-1 -2,-2l0 0c0,-2 1,-3 2,-3z"/>
   <path class="fil0" d="M2346 1155l-22 0c-1,0 -1,1 -2,1 -1,0 -2,-1 -2,-1l-6 0c0,0 -1,1 -2,1 -1,0 -1,-1 -1,-1l-6 0c0,0 -1,1 -2,1 -1,0 -2,-1 -2,-1l-6 0c0,0 -1,1 -1,1 -1,0 -2,-1 -2,-1l-6 0c0,0 -1,1 -2,1 -1,0 -1,-1 -2,-1l-5 0c-1,0 -1,1 -2,1 -1,0 -2,-1 -2,-1l-6 0c0,0 -1,1 -2,1 0,0 -1,-1 -1,-1l-6 0c0,0 -1,1 -2,1 -1,0 -2,-1 -2,-1l-5 0c-1,0 -1,1 -2,1 -1,0 -2,-1 -2,-1l-6 0c0,0 -1,1 -2,1 -1,0 -1,-1 -1,-1l-6 0c0,0 -1,1 -2,1 -1,0 -2,-1 -2,-1l-9 0 -3 3 3 4 4 0c0,-1 1,-1 1,-1 1,0 2,0 2,1l6 0c0,-1 1,-1 2,-1 1,0 1,0 2,1l5 0c1,-1 1,-1 2,-1 1,0 2,0 2,1l6 0c0,-1 1,-1 2,-1 0,0 1,0 1,1l6 0c1,-1 1,-1 2,-1 1,0 1,0 2,1l6 0c0,-1 1,-1 1,-1 1,0 2,0 2,1l6 0c0,-1 1,-1 2,-1 0,0 1,0 1,1l6 0c1,-1 1,-1 2,-1 1,0 1,0 2,1l6 0c0,-1 1,-1 1,-1 1,0 2,0 2,1l6 0c0,-1 1,-1 2,-1 1,0 1,0 2,1l5 0c1,-1 1,-1 2,-1 1,0 2,0 2,1l28 0 0 -7z"/>
  </g>
  <g id="_2612413429504">
   <path class="fil0" d="M2895 1051l0 -36c1,0 2,-1 2,-3 0,-1 -1,-2 -2,-2l0 -10c1,0 2,-1 2,-2 0,-2 -1,-3 -2,-3l0 -9c1,-1 2,-2 2,-3 0,-2 -1,-3 -2,-3l0 -9c1,-1 2,-2 2,-3 0,-2 -1,-3 -2,-3l0 -9c1,-1 2,-2 2,-3 0,-1 -1,-3 -2,-3l0 -9c1,0 2,-2 2,-3 0,-1 -1,-2 -2,-3l0 -9c1,0 2,-1 2,-3 0,-1 -1,-2 -2,-3l0 -9c1,0 2,-1 2,-3 0,-1 -1,-2 -2,-3l0 -9c1,0 2,-1 2,-3 0,-1 -1,-2 -2,-2l0 -10c1,0 2,-1 2,-2 0,-2 -1,-3 -2,-3l0 -9c1,-1 2,-2 2,-3 0,-2 -1,-3 -2,-3l0 -14 6 -6 6 6 0 5c-1,1 -1,2 -1,3 0,1 0,2 1,3l0 9c-1,1 -1,2 -1,3 0,1 0,2 1,2l0 10c-1,0 -1,1 -1,3 0,1 0,2 1,2l0 10c-1,0 -1,1 -1,3 0,1 0,2 1,2l0 10c-1,0 -1,1 -1,2 0,2 0,3 1,3l0 10c-1,0 -1,1 -1,2 0,1 0,3 1,3l0 9c-1,1 -1,2 -1,3 0,1 0,2 1,3l0 9c-1,1 -1,2 -1,3 0,1 0,2 1,3l0 9c-1,1 -1,2 -1,3 0,1 0,2 1,3l0 9c-1,1 -1,2 -1,3 0,1 0,2 1,3l0 9c-1,0 -1,2 -1,3 0,1 0,2 1,2l0 45 -12 0z"/>
   <path class="fil0" d="M2922 1040c0,-11 0,-22 0,-33 1,-1 2,-2 2,-3 0,-1 -1,-2 -2,-3 0,-3 0,-5 0,-8 1,-1 2,-2 2,-3 0,-1 -1,-2 -2,-3 0,-3 0,-5 0,-8 1,-1 2,-2 2,-3 0,-1 -1,-2 -2,-3 0,-3 0,-6 0,-8 1,-1 2,-2 2,-3 0,-1 -1,-2 -2,-3 0,-3 0,-6 0,-8 1,-1 2,-2 2,-3 0,-1 -1,-3 -2,-3 0,-3 0,-6 0,-8 1,-1 2,-2 2,-3 0,-1 -1,-3 -2,-3 0,-3 0,-6 0,-8 1,-1 2,-2 2,-3 0,-1 -1,-3 -2,-3 0,-3 0,-6 0,-9 1,0 2,-1 2,-2 0,-2 -1,-3 -2,-3 0,-3 0,-6 0,-9 1,0 2,-1 2,-2 0,-2 -1,-3 -2,-3 0,-3 0,-6 0,-9 1,0 2,-1 2,-2 0,-2 -1,-3 -2,-3 0,-3 0,-6 0,-9 1,0 2,-1 2,-2 0,-2 -1,-3 -2,-3 0,-4 0,-9 0,-13 2,-2 4,-4 6,-5 1,1 3,3 5,5 0,1 0,3 0,5 -1,0 -1,1 -1,2 0,2 0,3 1,3 0,3 0,6 0,9 -1,0 -1,1 -1,2 0,2 0,3 1,3 0,3 0,6 0,9 -1,0 -1,1 -1,2 0,2 0,3 1,3 0,3 0,6 0,9 -1,0 -1,1 -1,3 0,1 0,2 1,2 0,3 0,6 0,9 -1,0 -1,1 -1,3 0,1 0,2 1,2 0,3 0,6 0,9 -1,0 -1,1 -1,3 0,1 0,2 1,2 0,3 0,6 0,9 -1,0 -1,1 -1,3 0,1 0,2 1,2 0,3 0,6 0,9 -1,1 -1,2 -1,3 0,1 0,2 1,2 0,3 0,6 0,9 -1,1 -1,2 -1,3 0,1 0,2 1,2 0,3 0,6 0,9 -1,1 -1,2 -1,3 0,1 0,2 1,2 0,3 0,6 0,9 -1,1 -1,2 -1,3 0,1 0,2 1,2 0,14 0,28 0,42 -4,0 -7,0 -11,0z"/>
   <path class="fil0" d="M2947 1041c0,-10 0,-20 0,-31 1,0 2,-1 2,-2 0,-2 -1,-3 -2,-3 0,-3 0,-5 0,-8 1,0 2,-1 2,-2 0,-2 -1,-3 -2,-3 0,-3 0,-5 0,-8 1,0 2,-1 2,-3 0,-1 -1,-2 -2,-2 0,-3 0,-6 0,-8 1,-1 2,-2 2,-3 0,-1 -1,-2 -2,-2 0,-3 0,-6 0,-8 1,-1 2,-2 2,-3 0,-1 -1,-2 -2,-3 0,-2 0,-5 0,-8 1,0 2,-1 2,-2 0,-1 -1,-2 -2,-3 0,-2 0,-5 0,-8 1,0 2,-1 2,-2 0,-2 -1,-3 -2,-3 0,-3 0,-5 0,-8 1,0 2,-1 2,-3 0,-1 -1,-2 -2,-2 0,-3 0,-5 0,-8 1,0 2,-1 2,-3 0,-1 -1,-2 -2,-2 0,-3 0,-6 0,-8 1,-1 2,-2 2,-3 0,-1 -1,-2 -2,-2 0,-3 0,-6 0,-9 1,0 2,-1 2,-2 0,-1 -1,-2 -2,-3 0,-4 0,-8 0,-12 2,-2 4,-3 6,-5 1,2 3,3 5,5 0,2 0,3 0,5 -1,0 -1,1 -1,2 0,1 0,2 1,3 0,2 0,5 0,8 -1,0 -1,1 -1,2 0,1 0,2 1,3 0,3 0,5 0,8 -1,1 -1,1 -1,3 0,1 0,2 1,2 0,3 0,6 0,8 -1,1 -1,2 -1,3 0,1 0,2 1,2 0,3 0,6 0,8 -1,1 -1,2 -1,3 0,1 0,2 1,2 0,3 0,6 0,9 -1,0 -1,1 -1,2 0,1 0,2 1,2 0,3 0,6 0,9 -1,0 -1,1 -1,2 0,1 0,2 1,3 0,2 0,5 0,8 -1,0 -1,1 -1,2 0,1 0,2 1,3 0,3 0,5 0,8 -1,1 -1,2 -1,3 0,1 0,2 1,2 0,3 0,6 0,8 -1,1 -1,2 -1,3 0,1 0,2 1,2 0,3 0,6 0,9 -1,0 -1,1 -1,2 0,1 0,2 1,2 0,13 0,26 0,39 -4,0 -7,0 -11,0z"/>
   <path class="fil0" d="M2971 1042c0,-9 0,-19 0,-29 1,0 2,-1 2,-2 0,-1 -1,-2 -2,-2 0,-3 0,-6 0,-8 1,0 2,-1 2,-2 0,-2 -1,-3 -2,-3 0,-2 0,-5 0,-7 1,-1 2,-2 2,-3 0,-1 -1,-2 -2,-2 0,-3 0,-5 0,-8 1,0 2,-1 2,-2 0,-1 -1,-2 -2,-2 0,-3 0,-5 0,-8 1,0 2,-1 2,-2 0,-2 -1,-3 -2,-3 0,-2 0,-5 0,-7 1,-1 2,-2 2,-3 0,-1 -1,-2 -2,-2 0,-3 0,-5 0,-8 1,0 2,-1 2,-2 0,-1 -1,-2 -2,-2 0,-3 0,-5 0,-8 1,0 2,-1 2,-2 0,-2 -1,-2 -2,-3 0,-2 0,-5 0,-7 1,-1 2,-2 2,-3 0,-1 -1,-2 -2,-2 0,-3 0,-5 0,-8 1,0 2,-1 2,-2 0,-1 -1,-2 -2,-2 0,-3 0,-5 0,-8 1,0 2,-1 2,-2 0,-1 -1,-2 -2,-3 0,-4 0,-8 0,-11 2,-2 4,-3 5,-5 2,2 4,3 5,5 0,1 0,3 0,4 0,1 -1,1 -1,2 0,1 1,2 1,3 0,2 0,5 0,7 0,1 -1,2 -1,3 0,1 1,2 1,2 0,3 0,5 0,8 0,0 -1,1 -1,2 0,1 1,2 1,2 0,3 0,6 0,8 0,1 -1,1 -1,2 0,1 1,2 1,3 0,2 0,5 0,7 0,1 -1,2 -1,3 0,1 1,2 1,2 0,3 0,5 0,8 0,0 -1,1 -1,2 0,1 1,2 1,2 0,3 0,5 0,8 0,0 -1,1 -1,2 0,1 1,2 1,3 0,2 0,5 0,7 0,1 -1,2 -1,3 0,1 1,2 1,2 0,3 0,5 0,8 0,0 -1,1 -1,2 0,1 1,2 1,2 0,3 0,5 0,8 0,0 -1,1 -1,2 0,1 1,2 1,3 0,2 0,5 0,7 0,1 -1,2 -1,3 0,1 1,2 1,2 0,12 0,24 0,36 -3,0 -6,0 -10,0z"/>
   <path class="fil0" d="M2994 1043c0,-9 0,-18 0,-27 0,0 1,-1 1,-2 0,-1 -1,-2 -1,-3 0,-2 0,-4 0,-7 0,0 1,-1 1,-2 0,-1 -1,-2 -1,-2 0,-2 0,-5 0,-7 0,0 1,-1 1,-2 0,-1 -1,-2 -1,-3 0,-2 0,-4 0,-7 0,0 1,-1 1,-2 0,-1 -1,-2 -1,-2 0,-2 0,-5 0,-7 0,0 1,-1 1,-2 0,-1 -1,-2 -1,-2 0,-3 0,-5 0,-7 0,-1 1,-2 1,-3 0,-1 -1,-2 -1,-2 0,-2 0,-5 0,-7 0,0 1,-1 1,-2 0,-1 -1,-2 -1,-2 0,-3 0,-5 0,-7 0,-1 1,-2 1,-3 0,-1 -1,-2 -1,-2 0,-2 0,-5 0,-7 0,0 1,-1 1,-2 0,-1 -1,-2 -1,-2 0,-3 0,-5 0,-7 0,-1 1,-2 1,-3 0,-1 -1,-2 -1,-2 0,-2 0,-5 0,-7 0,0 1,-1 1,-2 0,-1 -1,-2 -1,-2 0,-4 0,-8 0,-11 1,-2 3,-3 4,-4 2,1 3,2 5,4 0,1 0,3 0,4 -1,0 -1,1 -1,2 0,1 0,2 1,2 0,3 0,5 0,8 -1,0 -1,1 -1,2 0,1 0,1 1,2 0,2 0,5 0,7 -1,0 -1,1 -1,2 0,1 0,2 1,2 0,3 0,5 0,8 -1,0 -1,1 -1,2 0,1 0,1 1,2 0,2 0,5 0,7 -1,0 -1,1 -1,2 0,1 0,2 1,2 0,3 0,5 0,7 -1,1 -1,2 -1,3 0,0 0,1 1,2 0,2 0,4 0,7 -1,0 -1,1 -1,2 0,1 0,2 1,2 0,3 0,5 0,7 -1,1 -1,2 -1,2 0,1 0,2 1,3 0,2 0,4 0,7 -1,0 -1,1 -1,2 0,1 0,2 1,2 0,2 0,5 0,7 -1,1 -1,1 -1,2 0,1 0,2 1,3 0,2 0,4 0,7 -1,0 -1,1 -1,2 0,1 0,2 1,2 0,11 0,23 0,34 -3,0 -6,0 -9,0z"/>
   <path class="fil0" d="M3014 1043c0,-8 0,-17 0,-25 1,0 1,-1 1,-2 0,-1 0,-2 -1,-2 0,-2 0,-4 0,-7 1,0 1,-1 1,-2 0,-1 0,-1 -1,-2 0,-2 0,-4 0,-6 1,0 1,-1 1,-2 0,-1 0,-2 -1,-2 0,-2 0,-5 0,-7 1,0 1,-1 1,-2 0,-1 0,-2 -1,-2 0,-2 0,-4 0,-6 1,-1 1,-2 1,-2 0,-1 0,-2 -1,-3 0,-2 0,-4 0,-6 1,0 1,-1 1,-2 0,-1 0,-2 -1,-2 0,-2 0,-5 0,-7 1,0 1,-1 1,-2 0,-1 0,-2 -1,-2 0,-2 0,-4 0,-6 1,-1 1,-1 1,-2 0,-1 0,-2 -1,-2 0,-3 0,-5 0,-7 1,0 1,-1 1,-2 0,-1 0,-2 -1,-2 0,-2 0,-4 0,-7 1,0 1,-1 1,-2 0,-1 0,-1 -1,-2 0,-2 0,-4 0,-6 1,0 1,-1 1,-2 0,-1 0,-2 -1,-2 0,-4 0,-7 0,-10 2,-2 3,-3 4,-4 2,1 3,2 4,4 0,1 0,2 0,4 0,0 0,1 0,2 0,0 0,1 0,1 0,3 0,5 0,7 0,1 0,1 0,2 0,1 0,2 0,2 0,2 0,5 0,7 0,0 0,1 0,2 0,1 0,1 0,2 0,2 0,4 0,6 0,1 0,2 0,2 0,1 0,2 0,2 0,3 0,5 0,7 0,0 0,1 0,2 0,1 0,2 0,2 0,2 0,4 0,7 0,0 0,1 0,2 0,1 0,1 0,2 0,2 0,4 0,6 0,1 0,1 0,2 0,1 0,2 0,2 0,2 0,5 0,7 0,0 0,1 0,2 0,1 0,1 0,2 0,2 0,4 0,7 0,0 0,1 0,1 0,1 0,2 0,2 0,3 0,5 0,7 0,1 0,1 0,2 0,1 0,2 0,2 0,2 0,5 0,7 0,0 0,1 0,2 0,1 0,1 0,2 0,10 0,21 0,31 -2,0 -5,0 -8,0z"/>
   <path class="fil0" d="M3034 1043c0,-8 0,-15 0,-23 0,0 1,-1 1,-2 0,-1 -1,-2 -1,-2 0,-2 0,-4 0,-6 0,0 1,-1 1,-2 0,-1 -1,-1 -1,-2 0,-2 0,-4 0,-6 0,0 1,-1 1,-2 0,0 -1,-1 -1,-1 0,-2 0,-4 0,-6 0,-1 1,-1 1,-2 0,-1 -1,-2 -1,-2 0,-2 0,-4 0,-6 0,0 1,-1 1,-2 0,-1 -1,-2 -1,-2 0,-2 0,-4 0,-6 0,0 1,-1 1,-2 0,-1 -1,-2 -1,-2 0,-2 0,-4 0,-6 0,0 1,-1 1,-2 0,-1 -1,-1 -1,-2 0,-2 0,-4 0,-5 0,-1 1,-1 1,-2 0,-1 -1,-2 -1,-2 0,-2 0,-4 0,-6 0,0 1,-1 1,-2 0,-1 -1,-2 -1,-2 0,-2 0,-4 0,-6 0,0 1,-1 1,-2 0,-1 -1,-2 -1,-2 0,-2 0,-4 0,-6 0,0 1,-1 1,-2 0,-1 -1,-1 -1,-2 0,-3 0,-6 0,-9 1,-1 2,-2 4,-3 1,1 2,2 3,3 0,1 0,3 0,4 0,0 0,1 0,2 0,0 0,1 0,1 0,2 0,4 0,7 0,0 0,1 0,1 0,1 0,2 0,2 0,2 0,4 0,6 0,1 0,1 0,2 0,1 0,2 0,2 0,2 0,4 0,6 0,0 0,1 0,2 0,1 0,1 0,2 0,2 0,4 0,6 0,0 0,1 0,2 0,0 0,1 0,1 0,2 0,5 0,7 0,0 0,1 0,1 0,1 0,2 0,2 0,2 0,4 0,6 0,1 0,1 0,2 0,1 0,2 0,2 0,2 0,4 0,6 0,0 0,1 0,2 0,1 0,1 0,2 0,2 0,4 0,6 0,0 0,1 0,2 0,0 0,1 0,1 0,3 0,5 0,7 0,0 0,1 0,1 0,1 0,2 0,2 0,2 0,4 0,6 0,1 0,1 0,2 0,1 0,2 0,2 0,10 0,19 0,29 -2,0 -5,0 -7,0z"/>
   <path class="fil0" d="M3052 1042c0,-7 0,-14 0,-21 0,0 1,-1 1,-1 0,-1 -1,-2 -1,-2 0,-2 0,-4 0,-6 0,0 1,0 1,-1 0,-1 -1,-2 -1,-2 0,-2 0,-4 0,-5 0,-1 1,-1 1,-2 0,-1 -1,-2 -1,-2 0,-2 0,-4 0,-5 0,-1 1,-1 1,-2 0,-1 -1,-2 -1,-2 0,-2 0,-3 0,-5 0,0 1,-1 1,-2 0,-1 -1,-2 -1,-2 0,-2 0,-3 0,-5 0,0 1,-1 1,-2 0,-1 -1,-1 -1,-2 0,-1 0,-3 0,-5 0,0 1,-1 1,-2 0,-1 -1,-1 -1,-2 0,-1 0,-3 0,-5 0,0 1,-1 1,-2 0,-1 -1,-1 -1,-1 0,-2 0,-4 0,-6 0,0 1,-1 1,-2 0,0 -1,-1 -1,-1 0,-2 0,-4 0,-6 0,0 1,-1 1,-2 0,0 -1,-1 -1,-1 0,-2 0,-4 0,-6 0,0 1,-1 1,-1 0,-1 -1,-2 -1,-2 0,-3 0,-6 0,-9 1,-1 2,-2 3,-3 1,1 3,2 4,3 0,1 0,3 0,4 -1,0 -1,1 -1,1 0,1 0,2 1,2 0,2 0,4 0,6 -1,0 -1,0 -1,1 0,1 0,2 1,2 0,2 0,4 0,5 -1,1 -1,1 -1,2 0,1 0,1 1,2 0,2 0,4 0,5 -1,1 -1,1 -1,2 0,1 0,1 1,2 0,2 0,3 0,5 -1,1 -1,1 -1,2 0,1 0,1 1,2 0,1 0,3 0,5 -1,0 -1,1 -1,2 0,1 0,1 1,1 0,2 0,4 0,6 -1,0 -1,1 -1,2 0,0 0,1 1,1 0,2 0,4 0,6 -1,0 -1,1 -1,2 0,0 0,1 1,1 0,2 0,4 0,6 -1,0 -1,1 -1,2 0,0 0,1 1,1 0,2 0,4 0,6 -1,0 -1,1 -1,1 0,1 0,2 1,2 0,2 0,4 0,6 -1,0 -1,1 -1,1 0,1 0,2 1,2 0,9 0,18 0,26 -3,0 -5,0 -7,0z"/>
   <path class="fil0" d="M3068 1048c0,-6 0,-12 0,-19 1,0 1,-1 1,-1 0,-1 0,-2 -1,-2 0,-2 0,-3 0,-5 1,0 1,-1 1,-1 0,-1 0,-2 -1,-2 0,-2 0,-3 0,-5 1,0 1,-1 1,-1 0,-1 0,-2 -1,-2 0,-2 0,-3 0,-5 1,0 1,-1 1,-2 0,0 0,-1 -1,-1 0,-2 0,-3 0,-5 1,0 1,-1 1,-2 0,0 0,-1 -1,-1 0,-2 0,-3 0,-5 1,0 1,-1 1,-2 0,0 0,-1 -1,-1 0,-2 0,-3 0,-5 1,0 1,-1 1,-2 0,0 0,-1 -1,-1 0,-2 0,-4 0,-5 1,0 1,-1 1,-2 0,0 0,-1 -1,-1 0,-2 0,-4 0,-5 1,0 1,-1 1,-2 0,-1 0,-1 -1,-1 0,-2 0,-4 0,-5 1,0 1,-1 1,-2 0,-1 0,-1 -1,-1 0,-2 0,-4 0,-5 1,-1 1,-1 1,-2 0,-1 0,-1 -1,-1 0,-3 0,-6 0,-8 1,-1 2,-2 4,-3 1,1 2,2 3,3 0,1 0,2 0,3 -1,0 -1,1 -1,1 0,1 0,2 1,2 0,2 0,3 0,5 -1,0 -1,1 -1,1 0,1 0,2 1,2 0,2 0,3 0,5 -1,0 -1,1 -1,1 0,1 0,2 1,2 0,2 0,3 0,5 -1,0 -1,1 -1,2 0,0 0,1 1,1 0,2 0,3 0,5 -1,0 -1,1 -1,2 0,0 0,1 1,1 0,2 0,3 0,5 -1,0 -1,1 -1,2 0,0 0,1 1,1 0,2 0,4 0,5 -1,0 -1,1 -1,2 0,0 0,1 1,1 0,2 0,4 0,5 -1,1 -1,1 -1,2 0,0 0,1 1,1 0,2 0,4 0,5 -1,1 -1,1 -1,2 0,0 0,1 1,1 0,2 0,4 0,5 -1,1 -1,1 -1,2 0,1 0,1 1,1 0,2 0,4 0,5 -1,1 -1,1 -1,2 0,1 0,1 1,1 0,8 0,16 0,24 -2,0 -5,0 -7,0z"/>
   <path class="fil0" d="M3084 1046c0,-6 0,-12 0,-17 0,-1 1,-1 1,-2 0,-1 -1,-1 -1,-1 0,-2 0,-3 0,-5 0,0 1,0 1,-1 0,-1 -1,-1 -1,-1 0,-2 0,-3 0,-5 0,0 1,-1 1,-1 0,-1 -1,-1 -1,-2 0,-1 0,-3 0,-4 0,0 1,-1 1,-1 0,-1 -1,-2 -1,-2 0,-1 0,-3 0,-4 0,0 1,-1 1,-2 0,0 -1,-1 -1,-1 0,-2 0,-3 0,-4 0,-1 1,-1 1,-2 0,-1 -1,-1 -1,-1 0,-2 0,-3 0,-5 0,0 1,0 1,-1 0,-1 -1,-1 -1,-1 0,-2 0,-3 0,-5 0,0 1,-1 1,-1 0,-1 -1,-1 -1,-2 0,-1 0,-3 0,-4 0,0 1,-1 1,-1 0,-1 -1,-2 -1,-2 0,-1 0,-3 0,-4 0,0 1,-1 1,-2 0,0 -1,-1 -1,-1 0,-2 0,-3 0,-4 0,-1 1,-1 1,-2 0,-1 -1,-1 -1,-1 0,-3 0,-5 0,-7 1,-1 2,-2 3,-3 1,1 2,2 2,3 0,1 0,2 0,3 0,0 0,0 0,1 0,0 0,1 0,1 0,2 0,3 0,5 0,0 0,1 0,1 0,1 0,1 0,1 0,2 0,3 0,5 0,0 0,1 0,1 0,1 0,1 0,2 0,1 0,3 0,4 0,0 0,1 0,2 0,0 0,1 0,1 0,1 0,3 0,4 0,1 0,1 0,2 0,0 0,1 0,1 0,2 0,3 0,5 0,0 0,0 0,1 0,0 0,1 0,1 0,2 0,3 0,5 0,0 0,1 0,1 0,1 0,1 0,1 0,2 0,3 0,5 0,0 0,1 0,1 0,1 0,1 0,2 0,1 0,3 0,4 0,0 0,1 0,2 0,0 0,1 0,1 0,1 0,3 0,4 0,1 0,1 0,2 0,0 0,1 0,1 0,2 0,3 0,5 0,0 0,0 0,1 0,1 0,1 0,1 0,7 0,14 0,22 -1,0 -3,0 -5,0z"/>
   <path class="fil0" d="M3100 1039c0,-5 0,-10 0,-15 0,0 1,0 1,-1 0,-1 -1,-1 -1,-1 0,-2 0,-3 0,-4 0,0 1,-1 1,-1 0,-1 -1,-1 -1,-2 0,-1 0,-2 0,-3 0,-1 1,-1 1,-2 0,0 -1,-1 -1,-1 0,-1 0,-2 0,-4 0,0 1,0 1,-1 0,-1 -1,-1 -1,-1 0,-2 0,-3 0,-4 0,0 1,-1 1,-1 0,-1 -1,-1 -1,-2 0,-1 0,-2 0,-3 0,-1 1,-1 1,-2 0,0 -1,-1 -1,-1 0,-1 0,-3 0,-4 0,0 1,0 1,-1 0,-1 -1,-1 -1,-1 0,-2 0,-3 0,-4 0,0 1,-1 1,-1 0,-1 -1,-1 -1,-2 0,-1 0,-2 0,-4 0,0 1,0 1,-1 0,0 -1,-1 -1,-1 0,-1 0,-3 0,-4 0,0 1,-1 1,-1 0,-1 -1,-1 -1,-1 0,-2 0,-3 0,-4 0,0 1,-1 1,-1 0,-1 -1,-2 -1,-2 0,-2 0,-4 0,-6 1,0 2,-1 2,-2 1,1 2,2 3,2 0,1 0,2 0,3 0,0 -1,0 -1,1 0,0 1,1 1,1 0,1 0,3 0,4 0,0 -1,1 -1,1 0,1 1,1 1,1 0,2 0,3 0,4 0,1 -1,1 -1,2 0,0 1,0 1,1 0,1 0,2 0,4 0,0 -1,0 -1,1 0,0 1,1 1,1 0,1 0,3 0,4 0,0 -1,1 -1,1 0,1 1,1 1,1 0,2 0,3 0,4 0,1 -1,1 -1,2 0,0 1,1 1,1 0,1 0,2 0,4 0,0 -1,0 -1,1 0,0 1,1 1,1 0,1 0,3 0,4 0,0 -1,1 -1,1 0,1 1,1 1,1 0,2 0,3 0,4 0,1 -1,1 -1,2 0,0 1,1 1,1 0,1 0,2 0,4 0,0 -1,0 -1,1 0,0 1,1 1,1 0,1 0,3 0,4 0,0 -1,1 -1,1 0,1 1,1 1,1 0,7 0,13 0,19 -2,0 -3,0 -5,0z"/>
   <path class="fil0" d="M3117 1038l0 -13c1,0 1,-1 1,-1 0,-1 0,-1 -1,-1l0 -4c1,0 1,0 1,-1 0,0 0,-1 -1,-1l0 -3c1,0 1,-1 1,-1 0,-1 0,-1 -1,-1l0 -4c1,0 1,0 1,-1 0,0 0,-1 -1,-1l0 -3c1,0 1,-1 1,-1 0,-1 0,-1 -1,-1l0 -4c1,0 1,0 1,-1 0,0 0,-1 -1,-1l0 -3c1,0 1,-1 1,-1 0,-1 0,-1 -1,-1l0 -4c1,0 1,0 1,-1 0,0 0,-1 -1,-1l0 -3c1,0 1,-1 1,-1 0,-1 0,-1 -1,-1l0 -4c1,0 1,0 1,-1 0,0 0,-1 -1,-1l0 -3c1,0 1,-1 1,-1 0,-1 0,-1 -1,-1l0 -6 2 -1 3 1 0 3c-1,0 -1,0 -1,1 0,0 0,0 1,1l0 3c-1,0 -1,1 -1,1 0,0 0,1 1,1l0 4c-1,0 -1,0 -1,1 0,0 0,0 1,1l0 3c-1,0 -1,1 -1,1 0,0 0,1 1,1l0 4c-1,0 -1,0 -1,1 0,0 0,0 1,1l0 3c-1,0 -1,1 -1,1 0,0 0,1 1,1l0 3c-1,1 -1,1 -1,1 0,1 0,1 1,2l0 3c-1,0 -1,1 -1,1 0,0 0,1 1,1l0 3c-1,1 -1,1 -1,1 0,1 0,1 1,1l0 4c-1,0 -1,1 -1,1 0,0 0,1 1,1l0 3c-1,1 -1,1 -1,1 0,1 0,1 1,1l0 17 -5 0z"/>
  </g>
  <rect class="fil0" x="2868" y="1015" width="272.978" height="31.2044"/>
  <polygon class="fil0" points="821,282 960,282 962,282 962,287 960,287 960,477 821,477 821,287 819,287 819,282 "/>
  <polygon class="fil0" points="955,325 861,324 861,400 955,400 "/>
  <polygon class="fil0" points="987,279 1126,281 1129,281 1129,286 1126,286 1123,478 988,477 987,284 984,284 984,279 "/>
  <polygon class="fil0" points="1155,373 1293,373 1296,373 1296,379 1293,379 1293,477 1155,477 1155,379 1152,379 1152,373 "/>
  <path class="fil0" d="M1982 851l-3 -1 -3 1 -6 0 -4 0 -7 -1 -6 1 -8 -1 -5 1 -4 -1 -4 1 -9 -1 -3 1 -4 -1 -7 1 -3 -1 -4 1 -4 -1 -5 1c3,-26 5,-53 7,-80 4,-34 -15,-51 11,-71 22,-17 14,-46 12,-70 -1,-13 -5,-73 14,-73 21,0 15,59 14,73 -1,25 -10,51 12,70 25,21 10,28 11,71 1,25 6,54 8,80zm-44 -280c3,0 5,2 5,5 0,3 -2,6 -5,6 -3,0 -6,-3 -6,-6 0,-3 3,-5 6,-5z"/>
  <path class="fil0" d="M261 1111l10 0c15,24 14,103 6,130 -7,25 5,30 0,46l-8 45c-5,40 22,27 24,56l-1 150 -62 0 -2 -150c2,-29 29,-16 24,-56l-8 -45c-4,-16 7,-21 0,-46 -8,-27 -8,-106 6,-130l11 0z"/>
  <path class="fil0" d="M410 767l65 0c4,0 8,3 8,7l0 67 6 0 1 15 -7 0 0 182c0,1 0,2 -1,3l1 0c1,0 3,1 3,2l0 0c0,2 -2,3 -3,3l-80 0c-2,0 -3,-1 -3,-3l0 0c0,-1 1,-2 3,-2l0 0c0,-1 0,-2 0,-3l0 -182 -6 0 0 -15 6 0 0 -67c0,-4 3,-7 7,-7z"/>
  <path class="fil0" d="M291 773l63 0c4,0 8,4 8,8l0 65 5 0 0 14 -5 0 0 178c0,1 0,2 -1,3l1 0c1,0 2,1 2,2l0 0c0,2 -1,3 -2,3l-79 0c-1,0 -2,-1 -2,-3l0 0c0,-1 1,-2 2,-2l1 0c-1,-1 -1,-2 -1,-3l0 -178 -5 0 0 -14 5 0 0 -65c0,-4 4,-8 8,-8z"/>
  <path class="fil0" d="M1899 1422l60 0c8,0 14,6 14,13l0 79c0,7 -6,14 -14,14l-60 0c-8,0 -14,-7 -14,-14l0 -79c0,-7 6,-13 14,-13zm1 6c5,0 8,4 8,9 0,4 -3,8 -8,8 -4,0 -8,-4 -8,-8 0,-5 4,-9 8,-9zm59 0c4,0 8,4 8,9 0,4 -4,8 -8,8 -5,0 -9,-4 -9,-8 0,-5 4,-9 9,-9zm-59 76c5,0 8,4 8,8 0,5 -3,8 -8,8 -4,0 -8,-3 -8,-8 0,-4 4,-8 8,-8zm59 0c4,0 8,4 8,8 0,5 -4,8 -8,8 -5,0 -9,-3 -9,-8 0,-4 4,-8 9,-8z"/>
  <path class="fil0" d="M1999 1422l60 0c8,0 14,6 14,13l0 79c0,7 -6,14 -14,14l-60 0c-8,0 -14,-7 -14,-14l0 -79c0,-7 6,-13 14,-13zm1 6c4,0 8,4 8,9 0,4 -4,8 -8,8 -5,0 -8,-4 -8,-8 0,-5 3,-9 8,-9zm58 0c5,0 9,4 9,9 0,4 -4,8 -9,8 -4,0 -8,-4 -8,-8 0,-5 4,-9 8,-9zm-58 76c4,0 8,4 8,8 0,5 -4,8 -8,8 -5,0 -8,-3 -8,-8 0,-4 3,-8 8,-8zm58 0c5,0 9,4 9,8 0,5 -4,8 -9,8 -4,0 -8,-3 -8,-8 0,-4 4,-8 8,-8z"/>
  <polygon class="fil0" points="2020,489 2435,489 2435,226 2020,228 "/>
  <g id="_2612413420544">
   <path class="fil2" d="M2032 234l119 0 3 0 0 3 0 67 0 3 -3 0 -120 1 -4 0 0 -3 2 -68 0 -3 3 0zm115 6l-111 0 -3 63 114 -3 0 -60z"/>
   <path class="fil2" d="M2165 234l121 0 4 0 0 3 0 67 0 3 -4 0 -118 0 -4 0 0 -3 -2 -67 0 -3 3 0zm118 6l-114 1 1 61 113 -2 0 -60z"/>
   <path class="fil2" d="M2303 234l119 0 3 0 0 3 0 67 0 3 -3 0 -119 0 -3 0 0 -3 0 -67 0 -3 3 0zm115 6l-111 0 0 60 111 0 0 -60z"/>
   <path class="fil2" d="M2032 391l119 0 3 0 0 4 0 71 0 3 -3 0 -119 0 -3 0 0 -3 0 -71 0 -4 3 0zm115 7l-112 -1 1 65 111 0 0 -64z"/>
   <path class="fil2" d="M2165 391l121 0 4 0 0 4 0 71 0 3 -4 0 -118 0 -4 0 0 -3 -2 -71 0 -4 3 0zm118 7l-112 0 0 64 112 0 0 -64z"/>
   <path class="fil2" d="M2302 392l122 -2 3 0 0 4 -2 72 0 3 -3 0 -119 0 -3 0 0 -3 -1 -71 0 -3 3 0zm116 6l-112 1 1 63 111 0 0 -64z"/>
   <path class="fil2" d="M2032 312l119 0 3 0 0 4 0 66 0 4 -3 0 -119 0 -3 0 0 -4 0 -66 0 -4 3 0zm117 6l-113 1 0 60 111 0 2 -61z"/>
   <path class="fil2" d="M2168 312l118 0 4 0 0 4 0 66 0 4 -4 0 -118 0 -4 0 0 -4 0 -66 0 -4 4 0zm115 7l-112 0 0 60 112 0 0 -60z"/>
   <path class="fil2" d="M2303 312l119 0 3 0 0 4 0 66 0 4 -3 0 -119 0 -3 0 0 -4 0 -66 0 -4 3 0zm116 7l-112 0 -1 61 112 -1 1 -60z"/>
  </g>
  <path class="fil3" d="M2179 409c1,-3 3,-6 6,-7l0 5 16 0 0 0 0 0 7 1 0 -1 1 1 1 0 0 -1 1 1 1 0 0 0 1 0 1 0 1 0 0 1 1 0 1 -1 0 1 1 0 1 -1 0 1 1 0 1 -1 0 1 1 0 1 0 0 0 1 0 1 0 0 0 2 1 0 -1 0 1 2 0 0 -1 1 1 1 0 0 -1 1 1 3 0 0 2 -5 0 0 1 -1 -1 -1 0 0 1 -1 -1 -1 0 0 1 -1 -1 -1 1 0 0 -1 0 -1 0 -1 0 0 0 -1 0 -1 1 0 -1 -1 0 -1 1 0 -1 -2 0 0 1 0 -1 -2 1 0 0 -1 0 -1 0 0 0 -1 0 -1 0 0 1 -1 -1 -1 0 0 1 -1 -1 -5 1 0 0 0 0 -16 0 0 5c-3,-1 -6,-4 -6,-9l4 0 0 -2 -4 0z"/>
  <polygon class="fil3" points="2402,255 2388,255 2388,255 2388,255 2382,255 2382,255 2382,255 2380,255 2380,255 2380,255 2379,255 2378,255 2378,254 2377,254 2376,255 2376,254 2375,254 2374,255 2374,254 2373,254 2372,255 2372,254 2371,254 2371,254 2370,254 2369,254 2369,254 2368,254 2367,254 2367,254 2367,253 2365,253 2365,254 2365,253 2364,253 2363,254 2363,253 2362,253 2361,254 2361,253 2358,253 2358,252 2362,251 2362,251 2363,251 2364,251 2364,250 2365,251 2366,251 2366,250 2367,251 2368,251 2368,250 2369,251 2370,251 2370,250 2371,250 2372,250 2372,250 2372,250 2373,250 2374,250 2374,250 2375,250 2376,249 2376,250 2377,250 2377,249 2378,250 2379,250 2379,249 2380,250 2381,250 2381,249 2382,249 2383,249 2383,249 2384,249 2388,249 2388,249 2388,249 2402,249 2407,244 2407,251 2405,251 2405,253 2407,253 2407,260 "/>
  <polygon class="fil3" points="2402,273 2388,273 2388,273 2388,273 2382,273 2382,273 2382,273 2380,273 2380,273 2380,272 2379,272 2378,273 2378,272 2377,272 2376,273 2376,272 2375,272 2374,273 2374,272 2373,272 2372,272 2372,272 2371,272 2371,272 2370,272 2369,272 2369,272 2368,271 2367,271 2367,272 2367,271 2365,271 2365,272 2365,271 2364,271 2363,272 2363,271 2362,271 2361,271 2361,271 2358,271 2358,269 2362,269 2362,268 2363,269 2364,269 2364,268 2365,269 2366,269 2366,268 2367,269 2368,269 2368,268 2369,268 2370,268 2370,268 2371,268 2372,268 2372,268 2372,268 2373,268 2374,267 2374,268 2375,268 2376,267 2376,268 2377,268 2377,267 2378,268 2379,268 2379,267 2380,267 2381,267 2381,267 2382,267 2383,267 2383,267 2384,267 2388,267 2388,267 2388,267 2402,267 2407,262 2407,269 2405,269 2405,271 2407,271 2407,278 "/>
  <polygon class="fil3" points="2402,291 2388,291 2388,291 2388,291 2382,290 2382,291 2382,290 2380,290 2380,291 2380,290 2379,290 2378,291 2378,290 2377,290 2376,291 2376,290 2375,290 2374,290 2374,290 2373,290 2372,290 2372,290 2371,289 2371,290 2370,289 2369,289 2369,290 2368,289 2367,289 2367,290 2367,289 2365,289 2365,290 2365,289 2364,289 2363,289 2363,289 2362,289 2361,289 2361,289 2358,288 2358,287 2362,287 2362,286 2363,287 2364,287 2364,286 2365,287 2366,286 2366,286 2367,286 2368,286 2368,286 2369,286 2370,286 2370,286 2371,286 2372,286 2372,285 2372,286 2373,286 2374,285 2374,286 2375,286 2376,285 2376,286 2377,285 2377,285 2378,285 2379,285 2379,285 2380,285 2381,285 2381,285 2382,285 2383,285 2383,284 2384,285 2388,285 2388,284 2388,284 2402,284 2407,280 2407,287 2405,287 2405,288 2407,288 2407,296 "/>
  <path class="fil3" d="M2182 335c1,-6 4,-10 9,-12l0 8 25 0 0 0 0 0 10 1 1 -1 0 1 2 1 1 -1 1 1 2 0 1 -1 0 1 2 0 1 -1 0 1 2 0 1 0 0 1 2 0 1 -1 1 1 2 0 1 -1 0 1 2 0 1 -1 0 1 2 1 1 -1 0 1 2 0 1 -1 1 1 2 0 0 -1 1 1 2 0 1 0 0 1 6 0 0 2 -8 1 -1 1 0 -1 -2 0 -1 1 -1 -1 -2 0 0 1 -1 -1 -2 1 0 1 -1 -1 -2 0 -1 1 0 -1 -2 0 -1 1 -1 -1 -2 0 0 1 -1 -1 -2 1 0 1 -1 -1 -2 0 -1 1 0 -1 -2 0 -1 1 -1 -1 -2 1 0 1 -1 -1 -2 0 0 1 -1 -1 -8 1 0 0 0 0 -25 0 0 8c-5,-2 -9,-7 -9,-13l5 0 0 -3 -5 0z"/>
  <path class="fil3" d="M2270 359c-1,-6 -4,-10 -9,-11l0 8 -25 0 0 0 0 0 -10 1 -1 -1 -1 1 -2 0 0 -1 -1 1 -2 0 -1 -1 0 1 -2 0 -1 -1 0 2 -2 0 -1 -1 -1 1 -2 0 0 -1 -1 1 -2 0 -1 -1 0 1 -2 1 -1 -1 0 1 -2 0 -1 -1 -1 1 -2 0 0 -1 -1 1 -2 0 -1 -1 0 2 -2 0 -1 -1 0 1 -6 0 0 2 8 1 0 1 1 -1 2 0 1 1 1 -1 2 0 0 1 1 0 2 0 0 1 1 -1 2 0 0 1 1 -1 2 0 1 1 1 -1 2 1 0 1 1 -1 2 0 0 1 1 -1 2 0 0 1 1 -1 2 0 1 2 1 -1 1 0 1 1 1 -1 2 0 0 1 1 -1 8 1 0 0 0 0 25 0 0 8c5,-2 9,-7 9,-13l-5 0 0 -3 5 0z"/>
  <path class="fil3" d="M2235 429c-1,-4 -3,-6 -6,-7l0 5 -16 0 0 0 0 0 -7 1 0 -1 0 1 -2 0 0 -1 -1 1 -1 0 0 -1 -1 1 -1 0 0 -1 -1 1 -1 0 -1 0 0 0 -1 0 -1 0 0 1 -1 0 -1 -1 0 1 -1 0 -1 -1 0 1 -1 0 -1 -1 0 1 -1 0 -1 0 0 0 -2 0 0 0 0 0 -2 1 0 -1 0 1 -4 0 0 1 5 1 0 0 1 0 1 0 0 0 1 0 1 0 1 1 0 -1 1 0 1 1 0 -1 1 0 1 1 0 -1 2 1 0 0 0 0 2 0 0 0 0 0 2 0 0 1 1 -1 1 0 0 1 1 -1 1 0 0 1 1 -1 1 0 0 1 1 0 1 0 0 0 1 0 5 0 0 0 0 0 16 0 0 5c3,-1 6,-4 6,-8l-3 0 0 -2 3 0z"/>
  <path class="fil3" d="M2179 449c1,-4 3,-7 6,-8l0 5 16 0 0 0 0 1 7 0 0 -1 1 1 1 0 0 0 1 0 1 0 0 0 1 1 1 0 1 -1 0 1 1 0 1 -1 0 1 1 0 1 -1 0 1 1 0 1 0 0 0 1 0 1 0 0 0 1 1 1 -1 0 1 2 0 0 -1 0 1 2 0 0 -1 1 1 1 0 0 0 1 0 3 1 0 1 -5 0 0 1 -1 -1 -1 0 0 1 -1 -1 -1 1 0 0 -1 0 -1 0 0 0 -1 0 -1 0 -1 1 0 -1 -1 0 -1 1 0 -1 -1 0 -1 1 0 -1 -2 0 0 1 0 0 -2 0 0 0 -1 0 -1 0 0 1 -1 -1 -1 0 0 1 -1 -1 -1 0 0 1 -1 -1 -5 1 0 0 0 0 -16 0 0 5c-3,-1 -6,-4 -6,-8l4 0 0 -2 -4 0z"/>
  <g id="_2612413408448">
   <polygon class="fil3" points="2134,336 2121,336 2120,336 2120,336 2115,335 2114,336 2114,335 2113,335 2112,335 2112,335 2111,335 2110,335 2110,335 2109,335 2108,335 2108,334 2107,334 2106,335 2106,334 2105,334 2105,335 2104,334 2103,334 2103,335 2103,334 2101,334 2101,334 2101,334 2100,334 2099,334 2099,334 2098,334 2097,334 2097,333 2096,333 2095,334 2095,333 2094,333 2093,334 2093,333 2090,333 2090,332 2094,331 2095,331 2095,331 2096,331 2097,331 2097,331 2098,331 2098,330 2099,331 2100,331 2100,330 2101,331 2102,331 2102,330 2103,331 2104,331 2104,330 2105,330 2106,330 2106,330 2107,330 2108,330 2108,330 2108,330 2109,330 2110,329 2110,330 2111,330 2112,329 2112,330 2113,330 2113,329 2114,330 2115,330 2115,329 2116,329 2120,329 2120,329 2121,329 2134,329 2139,324 2139,332 2138,332 2138,333 2139,333 2139,340 "/>
   <polygon class="fil3" points="2134,353 2121,353 2120,353 2120,353 2115,353 2114,353 2114,353 2113,353 2112,353 2112,353 2111,352 2110,353 2110,352 2109,352 2108,353 2108,352 2107,352 2106,353 2106,352 2105,352 2105,353 2104,352 2103,352 2103,352 2103,352 2101,352 2101,352 2101,352 2100,351 2099,352 2099,351 2098,351 2097,352 2097,351 2096,351 2095,352 2095,351 2094,351 2093,352 2093,351 2090,351 2090,350 2094,349 2095,349 2095,349 2096,349 2097,348 2097,349 2098,349 2098,348 2099,349 2100,349 2100,348 2101,349 2102,349 2102,348 2103,348 2104,348 2104,348 2105,348 2106,348 2106,348 2107,348 2108,348 2108,347 2108,348 2109,348 2110,347 2110,348 2111,348 2112,347 2112,348 2113,348 2113,347 2114,347 2115,347 2115,347 2116,347 2120,347 2120,347 2121,347 2134,347 2139,342 2139,349 2138,349 2138,351 2139,351 2139,358 "/>
   <polygon class="fil3" points="2134,371 2121,371 2120,371 2120,371 2115,371 2114,371 2114,371 2113,370 2112,371 2112,370 2111,370 2110,371 2110,370 2109,370 2108,371 2108,370 2107,370 2106,371 2106,370 2105,370 2105,370 2104,370 2103,370 2103,370 2103,370 2101,369 2101,370 2101,369 2100,369 2099,370 2099,369 2098,369 2097,370 2097,369 2096,369 2095,369 2095,369 2094,369 2093,369 2093,369 2090,368 2090,367 2094,367 2095,366 2095,367 2096,367 2097,366 2097,367 2098,367 2098,366 2099,367 2100,366 2100,366 2101,366 2102,366 2102,366 2103,366 2104,366 2104,366 2105,366 2106,366 2106,365 2107,366 2108,366 2108,365 2108,366 2109,366 2110,365 2110,366 2111,365 2112,365 2112,365 2113,365 2113,365 2114,365 2115,365 2115,364 2116,365 2120,365 2120,365 2121,365 2134,365 2139,360 2139,367 2138,367 2138,368 2139,368 2139,376 "/>
   <polygon class="fil3" points="2051,345 2064,345 2064,345 2064,344 2070,344 2071,345 2071,344 2072,344 2073,344 2073,344 2074,344 2074,344 2075,344 2076,343 2076,344 2077,343 2078,343 2078,344 2078,343 2080,343 2080,344 2080,343 2081,343 2082,344 2082,343 2083,343 2084,343 2084,343 2085,343 2086,343 2086,343 2087,342 2088,343 2088,342 2089,342 2089,343 2090,342 2091,342 2091,343 2092,342 2095,342 2095,341 2090,340 2090,340 2089,340 2088,340 2088,340 2088,340 2086,340 2086,339 2086,340 2085,340 2084,339 2084,340 2083,340 2082,339 2082,340 2081,339 2081,339 2080,339 2079,339 2079,339 2078,339 2077,339 2077,339 2076,339 2075,339 2075,338 2074,339 2073,339 2073,338 2073,339 2071,339 2071,338 2071,339 2070,338 2069,338 2069,338 2064,338 2064,338 2064,338 2051,338 2045,333 2045,341 2047,341 2047,342 2045,342 2045,349 "/>
   <polygon class="fil3" points="2051,362 2064,362 2064,362 2064,362 2070,362 2071,362 2071,362 2072,362 2073,362 2073,362 2074,361 2074,362 2075,361 2076,361 2076,362 2077,361 2078,361 2078,362 2078,361 2080,361 2080,361 2080,361 2081,361 2082,361 2082,361 2083,361 2084,361 2084,361 2085,360 2086,361 2086,360 2087,360 2088,361 2088,360 2089,360 2089,361 2090,360 2091,360 2091,360 2092,360 2095,360 2095,359 2090,358 2090,358 2089,358 2088,358 2088,357 2088,358 2086,358 2086,357 2086,358 2085,358 2084,357 2084,358 2083,357 2082,357 2082,357 2081,357 2081,357 2080,357 2079,357 2079,356 2078,357 2077,357 2077,356 2076,357 2075,357 2075,356 2074,357 2073,357 2073,356 2073,357 2071,356 2071,356 2071,356 2070,356 2069,356 2069,356 2064,356 2064,356 2064,356 2051,356 2045,351 2045,358 2047,358 2047,360 2045,360 2045,367 "/>
  </g>
  <path class="fil3" d="M2329 414l15 8 0 17 -15 9 -15 -9 0 -17 15 -8zm0 8c5,0 9,4 9,9 0,5 -4,9 -9,9 -5,0 -9,-4 -9,-9 0,-5 4,-9 9,-9z"/>
  <path class="fil3" d="M2363 414l15 8 0 17 -15 9 -15 -9 0 -17 15 -8zm0 8c5,0 9,4 9,9 0,5 -4,9 -9,9 -5,0 -9,-4 -9,-9 0,-5 4,-9 9,-9z"/>
  <path class="fil3" d="M2396 414l15 8 0 17 -15 9 -14 -9 0 -17 14 -8zm0 8c5,0 9,4 9,9 0,5 -4,9 -9,9 -4,0 -8,-4 -8,-9 0,-5 4,-9 8,-9z"/>
  <path class="fil3" d="M2054 246c6,0 11,5 11,11 0,6 -5,11 -11,11 -6,0 -11,-5 -11,-11 0,-6 5,-11 11,-11zm0 5c3,0 6,3 6,6 0,4 -3,6 -6,6 -4,0 -6,-2 -6,-6 0,-3 2,-6 6,-6z"/>
  <path class="fil3" d="M2078 246c7,0 11,5 11,11 0,6 -4,11 -11,11 -6,0 -11,-5 -11,-11 0,-6 5,-11 11,-11zm0 5c4,0 7,3 7,6 0,4 -3,6 -7,6 -3,0 -6,-2 -6,-6 0,-3 3,-6 6,-6z"/>
  <path class="fil3" d="M2103 246c6,0 11,5 11,11 0,6 -5,11 -11,11 -6,0 -11,-5 -11,-11 0,-6 5,-11 11,-11zm0 5c3,0 6,3 6,6 0,4 -3,6 -6,6 -3,0 -6,-2 -6,-6 0,-3 3,-6 6,-6z"/>
  <path class="fil3" d="M2128 246c6,0 11,5 11,11 0,6 -5,11 -11,11 -7,0 -11,-5 -11,-11 0,-6 4,-11 11,-11zm0 5c3,0 6,3 6,6 0,4 -3,6 -6,6 -4,0 -7,-2 -7,-6 0,-3 3,-6 7,-6z"/>
  <path class="fil3" d="M2054 272c6,0 11,5 11,11 0,6 -5,11 -11,11 -6,0 -11,-5 -11,-11 0,-6 5,-11 11,-11zm0 5c3,0 6,3 6,6 0,4 -3,6 -6,6 -4,0 -6,-2 -6,-6 0,-3 2,-6 6,-6z"/>
  <path class="fil3" d="M2078 272c7,0 11,5 11,11 0,6 -4,11 -11,11 -6,0 -11,-5 -11,-11 0,-6 5,-11 11,-11zm0 5c4,0 7,3 7,6 0,4 -3,6 -7,6 -3,0 -6,-2 -6,-6 0,-3 3,-6 6,-6z"/>
  <path class="fil3" d="M2103 272c6,0 11,5 11,11 0,6 -5,11 -11,11 -6,0 -11,-5 -11,-11 0,-6 5,-11 11,-11zm0 5c3,0 6,3 6,6 0,4 -3,6 -6,6 -3,0 -6,-2 -6,-6 0,-3 3,-6 6,-6z"/>
  <path class="fil3" d="M2128 272c6,0 11,5 11,11 0,6 -5,11 -11,11 -7,0 -11,-5 -11,-11 0,-6 4,-11 11,-11zm0 5c3,0 6,3 6,6 0,4 -3,6 -6,6 -4,0 -7,-2 -7,-6 0,-3 3,-6 7,-6z"/>
  <path class="fil3" d="M2318 326c3,0 6,3 6,6 0,4 -3,6 -6,6 -3,0 -6,-2 -6,-6 0,-3 3,-6 6,-6zm0 3c2,0 3,1 3,3 0,2 -1,4 -3,4 -2,0 -3,-2 -3,-4 0,-2 1,-3 3,-3z"/>
  <path class="fil3" d="M2333 326c3,0 6,3 6,6 0,4 -3,6 -6,6 -3,0 -6,-2 -6,-6 0,-3 3,-6 6,-6zm0 3c2,0 3,1 3,3 0,2 -1,4 -3,4 -2,0 -3,-2 -3,-4 0,-2 1,-3 3,-3z"/>
  <path class="fil3" d="M2348 326c3,0 6,3 6,6 0,4 -3,6 -6,6 -3,0 -6,-2 -6,-6 0,-3 3,-6 6,-6zm0 3c2,0 3,1 3,3 0,2 -1,4 -3,4 -2,0 -3,-2 -3,-4 0,-2 1,-3 3,-3z"/>
  <path class="fil3" d="M2363 326c4,0 6,3 6,6 0,4 -2,6 -6,6 -3,0 -6,-2 -6,-6 0,-3 3,-6 6,-6zm0 3c2,0 4,1 4,3 0,2 -2,4 -4,4 -2,0 -3,-2 -3,-4 0,-2 1,-3 3,-3z"/>
  <path class="fil3" d="M2378 326c4,0 6,3 6,6 0,4 -2,6 -6,6 -3,0 -6,-2 -6,-6 0,-3 3,-6 6,-6zm0 3c2,0 4,1 4,3 0,2 -2,4 -4,4 -2,0 -3,-2 -3,-4 0,-2 1,-3 3,-3z"/>
  <path class="fil3" d="M2393 326c4,0 6,3 6,6 0,4 -2,6 -6,6 -3,0 -6,-2 -6,-6 0,-3 3,-6 6,-6zm0 3c2,0 4,1 4,3 0,2 -2,4 -4,4 -1,0 -3,-2 -3,-4 0,-2 2,-3 3,-3z"/>
  <path class="fil3" d="M2409 326c3,0 6,3 6,6 0,4 -3,6 -6,6 -4,0 -7,-2 -7,-6 0,-3 3,-6 7,-6zm0 3c1,0 3,1 3,3 0,2 -2,4 -3,4 -2,0 -4,-2 -4,-4 0,-2 2,-3 4,-3z"/>
  <path class="fil3" d="M2318 342c3,0 6,3 6,6 0,3 -3,6 -6,6 -3,0 -6,-3 -6,-6 0,-3 3,-6 6,-6zm0 3c2,0 3,1 3,3 0,2 -1,3 -3,3 -2,0 -3,-1 -3,-3 0,-2 1,-3 3,-3z"/>
  <path class="fil3" d="M2333 342c3,0 6,3 6,6 0,3 -3,6 -6,6 -3,0 -6,-3 -6,-6 0,-3 3,-6 6,-6zm0 3c2,0 3,1 3,3 0,2 -1,3 -3,3 -2,0 -3,-1 -3,-3 0,-2 1,-3 3,-3z"/>
  <path class="fil3" d="M2348 342c3,0 6,3 6,6 0,3 -3,6 -6,6 -3,0 -6,-3 -6,-6 0,-3 3,-6 6,-6zm0 3c2,0 3,1 3,3 0,2 -1,3 -3,3 -2,0 -3,-1 -3,-3 0,-2 1,-3 3,-3z"/>
  <path class="fil3" d="M2363 342c4,0 6,3 6,6 0,3 -2,6 -6,6 -3,0 -6,-3 -6,-6 0,-3 3,-6 6,-6zm0 3c2,0 4,1 4,3 0,2 -2,3 -4,3 -2,0 -3,-1 -3,-3 0,-2 1,-3 3,-3z"/>
  <path class="fil3" d="M2378 342c4,0 6,3 6,6 0,3 -2,6 -6,6 -3,0 -6,-3 -6,-6 0,-3 3,-6 6,-6zm0 3c2,0 4,1 4,3 0,2 -2,3 -4,3 -2,0 -3,-1 -3,-3 0,-2 1,-3 3,-3z"/>
  <path class="fil3" d="M2393 342c4,0 6,3 6,6 0,3 -2,6 -6,6 -3,0 -6,-3 -6,-6 0,-3 3,-6 6,-6zm0 3c2,0 4,1 4,3 0,2 -2,3 -4,3 -1,0 -3,-1 -3,-3 0,-2 2,-3 3,-3z"/>
  <path class="fil3" d="M2409 342c3,0 6,3 6,6 0,3 -3,6 -6,6 -4,0 -7,-3 -7,-6 0,-3 3,-6 7,-6zm0 3c1,0 3,1 3,3 0,2 -2,3 -3,3 -2,0 -4,-1 -4,-3 0,-2 2,-3 4,-3z"/>
  <path class="fil3" d="M2318 358c3,0 6,2 6,6 0,3 -3,6 -6,6 -3,0 -6,-3 -6,-6 0,-4 3,-6 6,-6zm0 2c2,0 3,2 3,4 0,2 -1,3 -3,3 -2,0 -3,-1 -3,-3 0,-2 1,-4 3,-4z"/>
  <path class="fil3" d="M2333 358c3,0 6,2 6,6 0,3 -3,6 -6,6 -3,0 -6,-3 -6,-6 0,-4 3,-6 6,-6zm0 2c2,0 3,2 3,4 0,2 -1,3 -3,3 -2,0 -3,-1 -3,-3 0,-2 1,-4 3,-4z"/>
  <path class="fil3" d="M2348 358c3,0 6,2 6,6 0,3 -3,6 -6,6 -3,0 -6,-3 -6,-6 0,-4 3,-6 6,-6zm0 2c2,0 3,2 3,4 0,2 -1,3 -3,3 -2,0 -3,-1 -3,-3 0,-2 1,-4 3,-4z"/>
  <path class="fil3" d="M2363 358c4,0 6,2 6,6 0,3 -2,6 -6,6 -3,0 -6,-3 -6,-6 0,-4 3,-6 6,-6zm0 2c2,0 4,2 4,4 0,2 -2,3 -4,3 -2,0 -3,-1 -3,-3 0,-2 1,-4 3,-4z"/>
  <path class="fil3" d="M2378 358c4,0 6,2 6,6 0,3 -2,6 -6,6 -3,0 -6,-3 -6,-6 0,-4 3,-6 6,-6zm0 2c2,0 4,2 4,4 0,2 -2,3 -4,3 -2,0 -3,-1 -3,-3 0,-2 1,-4 3,-4z"/>
  <path class="fil3" d="M2393 358c4,0 6,2 6,6 0,3 -2,6 -6,6 -3,0 -6,-3 -6,-6 0,-4 3,-6 6,-6zm0 2c2,0 4,2 4,4 0,2 -2,3 -4,3 -1,0 -3,-1 -3,-3 0,-2 2,-4 3,-4z"/>
  <path class="fil3" d="M2409 358c3,0 6,2 6,6 0,3 -3,6 -6,6 -4,0 -7,-3 -7,-6 0,-4 3,-6 7,-6zm0 2c1,0 3,2 3,4 0,2 -2,3 -3,3 -2,0 -4,-1 -4,-3 0,-2 2,-4 4,-4z"/>
  <polygon class="fil0" points="1786,970 1830,970 1832,970 1832,974 1830,974 1830,1044 1786,1044 1786,974 1784,974 1784,970 "/>
  <polygon class="fil0" points="1846,970 1890,970 1892,970 1892,974 1890,974 1890,1044 1846,1044 1846,974 1844,974 1844,970 "/>
  <polygon class="fil0" points="1907,970 1951,970 1953,970 1953,974 1951,974 1951,1044 1907,1044 1907,974 1905,974 1905,970 "/>
  <path class="fil0" d="M2496 398l34 0c6,-26 5,-53 -3,-81 7,0 14,0 21,0 5,28 10,55 6,81l151 0 43 -109 12 6 -8 20 23 6 -37 77 79 0 14 14 -3 65 -349 0 3 -65 14 -14z"/>
  <path class="fil0" d="M416 1362c7,-11 -4,-32 -7,-48 1,-24 6,-33 2,-58 -12,-41 -4,-113 3,-125l23 -1c14,23 13,99 6,124 -7,23 4,46 0,61l-8 26c-3,18 -5,14 7,26 8,12 4,14 4,27l-1 141 -37 0 -2 -145c2,-6 0,-11 2,-17 1,-4 5,-7 8,-11z"/>
  <path class="fil0" d="M1446 633l313 -2 0 -37 9 0 1 3c0,2 1,9 1,18 0,15 0,33 0,41l0 0 0 0c-1,11 -1,12 -20,22 -11,6 -43,13 -71,20 -26,7 -50,13 -56,17 -4,2 -6,5 -8,9 -3,4 -4,9 -5,13 0,1 0,11 -1,19 -2,13 -4,-11 -11,38 -10,67 -6,108 -6,177l41 1c8,-21 0,-178 -7,-208 0,-1 -3,-2 -4,-4 0,-3 -1,-7 -3,-13 0,-4 1,-8 1,-9 0,-2 1,-6 3,-9 1,-3 3,-5 5,-6 5,-3 28,-9 53,-15 29,-7 61,-15 73,-21 25,-13 25,-15 25,-31l0 0 0 0c0,-8 1,-26 0,-41 0,-9 0,-17 -1,-20 -2,-10 -10,-10 -10,-10l-9 0 0 -28 -314 0c-4,17 -4,60 1,76z"/>
  <path class="fil0" d="M1876 851l-3 -1 -3 1 -6 0 -4 0c-14,-2 -19,2 -32,-1l-7 1 -3 -1 -4 1 -4 -1 -4 1c3,-26 4,-53 7,-80 3,-34 -15,-51 10,-71 12,-9 6,-57 5,-70 -1,-13 -5,-73 13,-73 21,0 15,59 15,73 -1,11 -7,63 2,70 24,21 9,28 10,71 1,25 6,54 8,80zm-34 -280c3,0 6,2 6,5 0,3 -3,6 -6,6 -3,0 -5,-3 -5,-6 0,-3 2,-5 5,-5z"/>
  <path class="fil0" d="M488 1362c7,-11 -4,-32 -7,-48 1,-24 6,-33 2,-58 -12,-41 -4,-113 3,-125l23 -1c14,23 13,99 6,124 -7,23 4,46 0,61l-8 26c-3,18 -5,14 7,26 8,12 4,14 4,27l-1 141 -18 -14 -19 14 -2 -145c2,-6 0,-11 2,-17 1,-4 5,-7 8,-11z"/>
  <path class="fil0" d="M559 1362c7,-11 -4,-32 -7,-48 1,-24 6,-33 2,-58 -12,-41 -5,-113 2,-125l23 -1c14,23 14,99 6,124 -6,23 4,46 0,61l-8 26c-2,18 -4,14 7,26 9,12 4,14 5,27l-1 141c-13,-12 -25,-15 -37,0l-2 -145c1,-6 0,-11 2,-17 1,-4 5,-7 8,-11z"/>
  <polygon class="fil0" points="193,282 332,282 334,282 334,287 332,287 332,477 193,477 193,287 191,287 191,282 "/>
  <polygon class="fil0" points="291,320 197,324 197,431 291,431 "/>
  <polygon class="fil0" points="132,476 3243,476 3243,515 132,515 "/>
  <path class="fil0" d="M2347 1465l-52 0c-1,-45 -1,-70 10,-109 12,-31 3,-2 -1,-65 0,-15 -6,-63 15,-64 26,-1 16,83 12,99 -3,17 -7,2 3,29 13,35 12,74 13,110zm-28 -224c3,0 6,3 6,6 0,4 -3,6 -6,6 -4,0 -7,-2 -7,-6 0,-3 3,-6 7,-6z"/>
  <path class="fil0" d="M3330 1250c-8,-24 -26,-23 -50,-28 -22,-5 -44,-8 -67,-11 -47,-6 -89,-17 -132,8 -24,13 -31,17 -32,46 0,25 -1,50 -1,75l2 152c14,2 7,-4 21,-6l27 0c1,24 2,14 -12,22l-13 10 -55 3 -1 7 252 -1 3 -6 -59 -3 2 -32 5 15 115 0 4 -20 24 -1 -1 -55 -23 -1c-2,-24 -1,-53 0,-77l-5 -74c20,0 38,10 55,23l-3 11 9 -2 -4 9 8 1 -2 9c8,1 5,-7 15,13l8 0c-3,-4 -4,-8 -5,-9l1 -16 -10 -1 5 -9 -9 0 0 -9 -8 -3 3 -6c-30,-18 -34,-24 -67,-34zm-49 181c4,7 10,4 21,4 17,0 10,3 23,-5 -7,-2 -39,-3 -44,1zm0 -22c5,8 10,5 21,5 10,0 19,3 23,-4 -6,-4 -38,-4 -44,-1zm0 -21c5,8 11,5 21,5 9,0 19,2 23,-4 -6,-4 -38,-4 -44,-1zm-154 -102l-8 9 -3 -12 7 61 172 0c8,-11 5,-28 0,-41 -6,-16 -63,-17 -85,-20 -28,-4 -20,-5 -43,8l-6 -11c-1,0 -7,5 -13,6 -7,1 -14,0 -21,0zm-29 232l13 0 1 -14c-17,23 -6,0 -14,14zm29 -7c6,-8 3,-4 0,-9 -6,3 -8,2 0,9zm44 0c7,-9 3,-5 1,-9 -6,3 -8,2 -1,9z"/>
  <path class="fil0" d="M1537 1043l-8 0 -19 0c-3,0 -6,-3 -6,-7 0,-18 -2,-36 0,-54 0,-3 2,-6 4,-8 3,-1 5,-2 5,-5l0 -5 -7 0 0 -37 23 0 8 0 23 0 0 37 -7 0 0 5c0,3 2,4 5,5 2,2 4,5 4,8 2,18 0,36 0,54 0,4 -3,7 -6,7l-19 0z"/>
  <polygon class="fil0" points="933,288 971,210 963,206 918,288 "/>
  <path class="fil1" d="M2871 1229c0,3 2,5 5,5 3,0 5,-2 5,-5 0,-4 -2,-9 -5,-12 -3,-3 -8,-5 -13,-5 -4,0 -9,2 -12,5l0 0c0,1 0,1 -1,1 -2,3 -4,7 -4,11 0,8 3,16 9,21 5,6 13,9 21,9 8,0 16,-3 21,-9 6,-5 9,-13 9,-21 0,-11 -5,-21 -12,-29 -8,-8 -19,-12 -31,-12 -11,0 -22,4 -30,12 -7,8 -12,18 -12,29 0,15 6,29 16,39 10,9 24,15 39,15 15,0 29,-6 39,-15 10,-10 16,-24 16,-39 0,-18 -7,-34 -20,-46 -12,-13 -29,-20 -48,-20 -18,0 -35,7 -48,20 -12,12 -19,28 -19,46 0,22 9,42 23,56 15,14 35,23 57,23 22,0 42,-9 57,-23 14,-14 23,-34 23,-56 0,-25 -10,-47 -27,-64 -17,-16 -40,-27 -66,-27 -25,0 -48,11 -65,27 -17,17 -27,39 -27,64 0,29 11,55 30,73 20,19 46,31 75,31 29,0 55,-12 75,-31 19,-18 30,-44 30,-73 0,-31 -13,-60 -34,-81 -21,-21 -51,-34 -84,-34 -32,0 -62,13 -83,34 -21,21 -34,50 -34,81 0,36 14,68 38,91 23,23 56,37 92,37 36,0 69,-14 92,-37 23,-22 37,-53 38,-86 8,-2 15,-7 15,-17l1 -23 -8 0 0 -22c0,-1 -1,-3 -3,-3l0 0c-1,0 -3,2 -3,3l0 22 -11 0 0 -22c0,-1 -2,-3 -3,-3l0 0c-2,0 -3,2 -3,3l0 22 -6 0 -1 23c0,9 5,15 12,17 -1,31 -14,59 -35,79 -22,22 -52,35 -85,35 -33,0 -63,-13 -85,-35 -21,-21 -35,-51 -35,-84 0,-29 12,-55 32,-75 19,-19 46,-31 75,-31 30,0 57,12 76,31 20,20 32,46 32,75 0,26 -11,50 -28,67 -17,17 -41,27 -67,27 -26,0 -50,-10 -67,-27 -17,-17 -28,-41 -28,-67 0,-22 9,-43 24,-57 15,-15 36,-24 58,-24 23,0 44,9 59,24 15,14 24,35 24,57 0,20 -8,37 -21,49 -12,13 -30,20 -49,20 -19,0 -37,-7 -49,-20 -13,-12 -21,-29 -21,-49 0,-15 7,-30 17,-40 10,-10 25,-16 40,-16 16,0 31,6 41,16 10,10 17,25 17,40 0,13 -5,24 -13,32 -8,8 -20,13 -32,13 -12,0 -24,-5 -32,-13 -8,-8 -13,-19 -13,-32 0,-9 4,-17 10,-22 6,-6 14,-10 22,-10 9,0 17,4 23,10 6,5 10,13 10,22 0,6 -2,11 -6,15 -4,3 -9,5 -14,5 -5,0 -10,-2 -14,-5 -4,-4 -6,-9 -6,-15 0,-2 1,-3 2,-5 0,0 0,0 0,0l-3 -3 3 3c2,-1 4,-2 5,-2 2,0 4,1 6,2 1,1 2,3 2,5z"/>
  <path class="fil0" d="M843 1187l0 11 45 0c2,0 4,2 4,4l0 73c0,2 -2,4 -4,4l-45 0 0 272 -44 1 3 -273 -45 0c-2,0 -4,-2 -4,-4l0 -73c0,-2 2,-4 4,-4l45 0 0 -11 41 0z"/>
  <path class="fil0" d="M1905 1178l-2 127 -6 2 0 29 -19 15 0 -45 -9 -1c-2,-7 -2,-15 -2,-23 1,0 2,-2 2,-4 0,-2 -1,-4 -2,-5 0,-1 0,-2 0,-3 1,-1 2,-2 2,-4 0,-2 0,-4 -2,-4l0 -4c2,-1 2,-3 2,-5 0,-1 0,-2 -1,-3 0,-2 0,-3 0,-5 1,-1 1,-2 1,-4 0,-1 0,-2 -1,-3 0,-2 0,-4 0,-5 1,-1 1,-2 1,-4 0,-2 0,-3 -2,-4 0,-2 0,-3 0,-5 -4,-30 -13,-47 -10,-75 2,-21 27,-17 37,-7 12,10 10,26 11,40zm-35 -31c2,0 4,-2 4,-5 0,-2 -2,-4 -4,-4 -3,0 -5,2 -5,4 0,3 2,5 5,5z"/>
  <polygon class="fil0" points="1019,325 1007,239 1016,238 1033,330 "/>
  <path class="fil0" d="M1952 1233l-7 -4c1,-8 4,-16 2,-23 -3,-10 -1,-71 -1,-84 7,-7 19,-7 20,5l0 72c-1,14 -6,-3 0,31l-7 2 -3 160 -3 0 -1 -77c0,-27 0,-55 0,-82z"/>
  <path class="fil1" d="M2672 741c-3,-5 -4,-9 -4,-15 0,-2 0,6 0,13l0 1 0 -4c0,-5 0,-9 0,-9l0 0 0 -112c0,0 0,-8 3,-14 2,-4 4,-8 5,-10 2,-2 4,-4 5,-7 0,0 2,-5 0,-10 0,0 -3,-8 -9,-16 0,0 -6,-6 -7,-5 0,0 -1,0 -1,0l-1 3 5 16c0,0 0,2 1,4 -2,1 -4,3 -9,4 0,0 -11,3 -13,-2 -1,-5 -5,-18 -5,-18 0,0 -1,-2 -1,-2 0,0 -6,3 -5,21 0,0 0,9 3,12 0,0 0,0 0,0l0 0c0,0 5,6 8,11 2,5 3,9 3,15 0,4 0,71 0,109l0 0 0 5 0 10 0 0 0 -13c0,0 0,7 -3,14 -2,3 -3,6 -4,9 -1,1 -1,2 -2,3 0,0 0,0 0,0 0,0 0,0 0,0 0,2 -1,5 0,9 0,0 2,7 8,12 0,0 5,6 6,5 0,0 0,0 0,0l1 -2 -4 -14c0,0 0,-2 -1,-3 2,-1 4,-3 8,-4 0,0 9,-2 10,3 2,4 4,15 4,15 0,0 1,1 1,1 0,0 6,-3 5,-18 0,0 0,-7 -3,-10 0,0 0,0 -1,0 -1,-3 -2,-5 -3,-7z"/>
  <path class="fil1" d="M1825 1315l0 -90c0,0 0,-21 -3,-32l0 0 0 0 0 0 0 0 0 0 0 -1 0 0 0 0 0 0 0 0 0 -1 0 0 0 0 0 0 0 0 0 0 0 -1 0 0 0 0c0,0 0,0 -1,0l0 0 0 0c0,0 0,-1 0,-1 3,-7 5,-15 3,-25 -3,-11 -13,-20 -26,-26 -14,-6 -26,-6 -29,-6 -2,0 -3,0 -3,0l0 0 0 0 0 0 0 0c0,0 -3,0 -5,4l6 5c0,0 1,0 2,0 0,0 1,0 1,0 0,1 1,1 1,1 1,0 1,-1 2,0 0,0 0,1 1,1l1 0c0,0 0,-1 0,0 1,1 1,1 1,1 0,0 0,0 1,0l0 0c0,0 1,-1 1,0 1,1 1,1 1,1 0,0 0,0 0,0 1,0 1,-1 2,0 0,0 1,1 1,1 0,0 1,0 2,1 0,1 3,10 3,10l5 4 1 -1 4 4c2,2 1,5 0,6l0 0 0 0 0 0 0 0 0 0 0 0 0 0 0 0 0 0 0 0 0 0 0 0 0 0c-1,-1 -1,-1 -1,-2l0 0c0,0 -1,-1 -1,-1l-5 -6 0 0 -4 -4c0,0 -2,1 -3,-1 0,0 0,0 -1,0 0,0 -1,1 -2,-1 0,0 0,0 0,0 -1,0 -2,1 -2,-1 0,0 0,0 -1,0 -1,0 -1,1 -2,-1 0,0 0,0 0,0 -1,0 -2,0 -2,0 0,0 0,1 -1,-1 0,0 0,0 0,0 -1,0 -2,0 -2,-2 -1,-2 -3,-9 -3,-9l-7 -5c0,0 -2,2 -2,4 -1,2 -1,5 0,8 2,7 8,21 15,29l10 9 0 0 0 1 0 0 0 0 0 0 0 0 1 0 0 0 0 0 0 0 0 0 0 0 0 0 0 0 0 0 0 0 0 0 0 0 0 1 0 0 0 0 0 0 0 0 0 0 1 0 0 0 0 0 0 0 0 0 0 0 0 0 0 0 0 0 0 0 0 0 0 0 0 0 0 0 0 0 0 0 0 1 0 0 0 0 0 0 0 0 0 0 0 0 0 0 1 0 0 0 0 0 0 0 0 0 0 0c-10,15 -22,34 -24,37 -2,3 -2,9 -2,9l-2 80 0 0 0 0 0 0 0 0 0 0 0 0 -1 0 0 0 0 0 0 0 0 0 0 0 0 0 0 0 0 0 0 0 0 0 0 0 0 0 0 0 0 0 -1 0 0 0 0 0 0 0 0 0 0 0 0 0 0 0 0 0 0 0 0 0 0 0 0 0 0 0 0 0 0 0 0 0 -1 0 0 0 0 0 0 0 0 0 0 0 0 0 0 0 0 0 0 0 0 0 0 0 0 0 0 0 0 0 0 0 0 0 0 0 0 0 0 0 0 0 0 0 0 0 0 0 0 -1 0 0 0 0 0 0 -1 0 0 0 0 0 0 0 0 0 0 0 0 0 0 0 0 0 0 0 0 0 0 0 0 0 0 0 0 0 0 0 0 0 0 0 0 0 0 0 0 0 0 0 0 0 0 0 0 0 0 0 0 0 0 0 0 0 0 0 0 0 0 0 0 0 0 0 0 0 0 0 0 0 0 0 0 0 0 0 0 0 0 0 0 0 0 0 0 0 0 0 0 0 0 0 0 0 0 0 0 0 0 0 0 0 0 0 0 0 0 0 0 0 0 0 0 0 0 1 0 0 0 0 0 0 0 0 0 0 0 0 0 0 0 0 0 0 0 0 0 0 0 0 0 0 0 0 0 0 0 0 0 0 0 0 0 0 0 0 -1 0 0 0 0 0 0 0 0 0 0 0 0 0 0 0 0 0 0 0 0 0 0 0 0 0 0 0 0 0 0 0 0 0 0 0 0 0 0 0 0 0 0 0 0 0 0 0 0 0c0,0 0,0 0,0 -3,4 -6,6 -9,7l0 0 0 0 0 0 0 0 0 0 0 0 0 0 0 0 -1 0 0 0 0 0 0 0 0 0 0 0 0 0 0 0 0 0 0 0 0 0 -1 0 0 0 0 0 0 0 0 0 0 0 0 0 0 0 0 0 0 0c0,0 0,0 -1,0l0 0 0 0 0 0 0 0 0 0 0 0 0 0 0 0 0 0 0 0 0 0 0 0 0 0 0 0 0 0 0 0 0 0 0 0 0 0 0 0 0 0 0 0 0 0 0 0 0 0 0 0 0 0 0 0 0 0 -1 0 0 0 0 0 0 0 0 0 0 0 0 0 0 0 0 0 0 0 0 0 0 0 0 0 0 0c-1,0 -3,-1 -4,-1l0 0 0 0 0 0 0 0 0 0 0 0 0 0 0 0 0 0 -1 0 0 0 0 0 0 0 0 0 0 0 0 0 0 0 0 0 0 0 0 0 0 0 0 0 0 0 0 0 0 0 0 0 0 0 0 0 -1 0 0 0 0 0c-2,1 -3,2 -3,2 -2,7 3,9 3,9l8 2 0 1 0 0 0 0 0 0 0 0 1 0 0 0 0 0 0 0 0 0c1,1 2,3 3,4l0 0c4,5 5,11 5,18l0 0c0,3 0,7 0,10l0 0 0 0 0 0 0 1 -1 0 0 0 0 0 0 1 0 0 0 0 0 0 0 0 0 0 0 0 0 1 0 0 0 0 0 0 0 0 0 0 0 1 0 0 0 0 0 0 0 0 0 0 0 0 0 1 0 0 0 0 0 0 0 0 0 0c-1,11 -1,38 -1,64 0,25 -3,53 -3,53l0 1 0 0 0 0 0 0 0 0 0 0 0 0c0,1 0,1 0,1l0 0 0 1 0 0 0 0 0 0 0 0 0 0 0 0 0 0 0 0c-1,9 1,11 4,14 2,2 4,3 7,3l0 0 0 0 0 0 1 0 0 0 0 0 0 0 0 0 0 0 0 0 0 0 0 0 0 0 1 0 0 0 0 0 0 0 0 0 0 0 1 0 0 0 0 0 0 0 0 0 0 0 0 0 1 0 0 0 0 0 0 0 0 0 0 0 0 0 0 0 0 0 0 0 1 0 0 0 0 0 0 0 0 0 0 0 0 0 0 0 0 0 0 0 1 0 0 0 0 0 0 0 0 0 0 0 0 0 0 0 0 0 0 0 0 0 0 0 1 0 0 0 0 0 0 -1 0 0 0 0 0 0 0 0 0 0 0 0 0 0 0 0 0 0 1 0 0 0 0 0 0 0 0 0 0 0 0 0 0 0 0 0 0 0 0 0 0 0 0 0 0 0 0 0 0 -1 1 0 0 0 0 0c3,-3 4,-6 4,-6l4 -25c-2,-6 -1,-7 0,-14 1,-8 1,-27 1,-43 0,-17 0,-58 0,-71l0 0 0 0 0 0 0 -1 0 0 0 0 0 0 0 0 0 0 0 0 0 0 0 0 0 0 0 0 0 0 0 0 0 0 0 0 0 0 0 -1 0 0 0 0 0 0 0 0 0 0 0 0 0 0 0 0 0 0 0 0 0 0 0 0 0 0 0 0 0 0 0 0 0 -1 0 0 0 0 0 0 0 0 0 0 0 0 0 0 0 0 0 0 0 0 0 0 0 0 0 0 0 0 0 0 0 0 0 0 0 -1 0 0 0 0 0 0 0 0 0 0 0 0 0 0 0 0 0 0 0 0 0 0 0 0 0 0 0 -1 0 0 0 0 0 0 0 0 0 0 0 0 0 0 0 -1 0 0 0 0 0 0 0 0 0 0 0 0 0 0 0 0 0 0 0 0 0 -1 0 0 0 0 0 0 0 0c0,-3 0,-6 0,-9l0 0 0 0 -1 -1 0 0 0 0 0 0 0 0 0 0 0 0 0 0 0 -1 0 0 0 0 0 0 0 0 0 0 0 0 0 0 0 0 0 0 0 0 0 0 0 0 0 -1 0 0 0 0 0 0 0 0 0 0 0 0 0 0 0 0 0 0 0 0 0 0 0 -1 0 0 0 0 0 0 0 0 0 0 0 0 0 0 0 0 0 0 0 0 0 0 0 0 0 0 0 0 0 0 0 0 0 0 0 -1 0 0 0 0 0 0 0 0 0 0 0 0 0 0 0 0 0 0 0 0 0 0 0 0 0 0 0 0 0 0 0 0 0 0 0 0 0 -1 0 0 0 0 0 0 0 0 0 0 0 0 0 0 0 0 0 -1 0 0 0 0 0 0 0 0 0 0 0 0 0 -1 0 0 0 0 0 0 0 0 0 0 0 0 0 0 0 -1 0 0 0 0 0 0 0 0 0 0 0 0 0 0 0 0 0 -1 0 0 0 0 0 0 0 0 0 0 0 0 0 0 0 0 0 0 0 -1 0 0 0 0 0 0 0 0 0 0 0 0 0 0 0 0 0 0 -1 0 0 0 0 0 0 -1 0 0 0 0 0 0 0 0 0 0 0 0 0 0 0 0 0 0 0 0 0 0 0 0 0 0 0 0 0 0 0 0 0 -1 0 0 0 0 0 0 0 0 0 0 0 0 0 0 0 0 0 0 0 0 0 0 0 0 0 0 0 0 0 0 0 0 0 0 0 0 0 0 0 0 0 0 0 0 0 0 0 0 0 0 0 0 0 0 0 0 0 0 0 0 0 0 0 0 0 0 0 0 0 0 0 0 0 0 0 0 0 0 0 0 0 0 0 0 0 0 0 0 0 0 0 0 0 0 0 0 0 0 0 0 0 0 0 0 0 0 0 0 0 0 0 0 0 0 0 0 0 0 0 0 0 0 0 0 0 0 0 0 0 0 0 0 0 0 0 0 0 0 0 0 0 0 0 0 0 0 0 0 0 0 0 0 0 0 0 0 0 0 0 0 0 0 0 0c0,-8 2,-28 3,-38 1,-12 6,-21 6,-21 0,0 8,-15 17,-31l11 90 0 0 0 0 0 0 0 0 0 0 0 0 0 0 0 0 0 0 0 0 0 0 0 0 0 0 0 0 0 0 0 0 0 0 0 0 0 0 0 0 0 0 0 1 0 0 0 0 0 0 0 0 0 0 0 0 0 0 0 0 0 0 0 0 0 0 0 0 0 0 0 0 0 0 0 0 0 1 0 0 0 0 0 0 -1 0 0 0 0 0 0 0 0 0 0 0 0 0 0 0 0 0 0 1 0 0 0 0 0 0 0 0 0 0 0 0 0 0 0 1 0 0 0 0 0 0 0 0 0 0 0 0 0 0 0 0 0 1 0 0 0 0 0 0 0 0 0 0 0 0 0 0 0 1 0 0 0 0 0 0 0 0 0 0 0 0 0 1 0 0 0 0 0 0 0 0 0 0 0 0 0 0 0 0 0 1 0 0 0 0 0 0 0 0 0 0 0 0 0 0 0 0 0 0 0 0 0 0 0 0 0 0 0 0 0 0 0 0 0 0 0 0 0 1 0 0 0 0 0 0 0 0 0 0 0 0 0 0 0 0 0 0 0 0 0 0 0 0 0 0 0 0 0 0 0 0 0 0 0 0 0 1 0 0 0 0 0 0 0 0 0 0 0 0 0 0 0 0 0 0 0 0 0 0 0 0 0 0 0 0 0 0 0 1 0 0 0 0 0 0 0 0 0 0 0 0 0 0 0 0 0 0 0 0 0 0 0 0 0 0 0 0 0 1 0 0c-1,3 -1,7 -1,12l0 0 0 0 0 0 0 0 0 0 0 0 0 0 0 1 0 0 0 0 0 0 0 0 0 1 0 0 0 0 0 0 0 0 0 0 0 0 0 0 0 0 0 0 0 0 0 0 0 0 0 0 0 0 0 1 0 0 0 0 0 0 0 0 0 0 0 1 0 0 0 0 0 0 0 0 0 0 0 0 0 0 0 0 0 0 0 0 0 0 0 0 0 0 0 0 0 1 0 0 0 0 0 0 0 0 0 0 0 0c0,13 0,54 0,71 0,16 0,35 1,43 1,7 2,8 0,14l4 25c0,0 1,3 4,6l0 0 1 0 0 0 0 1 0 0 0 0 0 0 0 0 0 0 0 0 0 0 0 0 0 0 0 0 0 0 0 0 1 0 0 0 0 0 0 0 0 0 0 0 0 0 0 0 0 0 0 0 0 1 0 0 1 0 0 0 0 0 0 0 0 0 0 0 0 0 0 0 0 0 0 0 0 0 1 0 0 0 0 0 0 0 0 0 0 0 0 0 0 0 0 0 0 0 1 0 0 0 0 0 0 0 0 0 0 0 0 0 0 0 0 0 0 0 1 0 0 0 0 0 0 0 0 0 0 0 0 0 1 0 0 0 0 0 0 0 0 0 0 0 1 0 0 0 0 0 0 0 0 0 0 0 0 0 0 0 0 0 0 0 1 0 0 0 0 0 0 0c3,0 6,-1 7,-3 3,-3 5,-5 4,-14l0 0 0 0 0 0 0 0 0 0 0 0 0 0 0 0 0 0 0 0 0 0 0 0 0 0 0 0 0 0 0 0 0 0 0 0 0 0 0 0 0 -1 0 0 0 0 0 0 0 0 0 0 0 0 0 0 0 0 0 0 0 0 0 0 0 0 0 0 0 -1 0 0 0 0 0 0 0 0 0 0 0 -1c0,0 -3,-28 -3,-53 0,-26 0,-53 -1,-64l0 0 0 0 0 0 0 0 0 0 0 -1 0 0 0 0 0 0 0 0 0 0 0 0 0 -1 0 0 0 0 0 0 0 0 0 -2 0 0 0 0c-1,-3 -1,-7 -1,-11l0 0 0 0 0 0c0,-7 1,-13 5,-18l0 0c1,-1 2,-2 3,-3l0 0 0 -1 0 0 0 0 0 0 0 0 0 0 0 0 0 0 0 0 0 0 1 0 0 0 0 0 0 0 0 0 0 -1 8 -2c0,0 5,-2 4,-9 0,0 -2,-1 -4,-2l0 0 0 0 0 0 -1 0 0 0 0 0 0 0 0 0 0 0 0 0 0 0 0 0 0 0 0 0 0 0 0 0 0 0 0 0 0 0 0 0 0 0 0 0 -1 0 0 0 0 0 0 0 0 0 0 0 0 0 0 0 0 0 0 0c-1,0 -2,0 -4,1l0 0 0 0 0 0 0 0c0,0 0,0 0,0l0 0 0 0 0 0 0 0 0 0 0 0 0 0 0 0 0 0 0 0 0 0 0 0 0 0 0 0 -1 0 0 0 0 0 0 0 0 0 0 0 0 0 0 0 0 0 0 0 0 0 0 0 0 0 0 0 0 0 0 0 0 0 0 0 0 0 0 0 0 0 0 0 0 0 0 0 0 0 0 0 0 0 0 0 -1 0 0 0 0 0 0 0 0 0 0 0 0 0 0 0 0 0 0 0 0 0 0 0 0 0 0 0 0 0 -1 0 0 0 0 0 0 0 0 0 0 0 0 0 0 0 0 0 0 0 0 0 0 0 0 0 0 0 0 0 0 0 -1 0 0 0 0 0 0 0 0 0 0 0 0 0 0 0 0 0c-3,-1 -6,-3 -9,-7 0,0 0,0 0,0l0 0 0 0 0 0 0 0 0 0 0 0 0 0 0 0 0 0 0 0 0 0 0 0 0 0 0 0 0 0 0 0 0 0 0 0 0 0 0 0 0 0 0 0 0 0 0 0 0 0 0 0 -1 0 0 0 0 0 0 0 0 0 0 0 0 0 0 0 0 0 0 0 0 0 0 0 0 0 0 0 0 0 0 0 0 0 0 0 0 0 0 -1 0 0 0 0 0 0 0 0 0 0 0 0 0 0 0 0 0 0 0 0 0 0 0 0 0 0 0 0 0 0 0 0 0 0 0 0 0 0 0 0 0 0 0 0 0 0 0 0 0 0 0 0 0 0 0 0 0 0 0 0 0 0 0 0 0 0 0 0 0 0 0 0 0 0 0 0 0 0 0 0 0 0 0 0 0 0 0 0 0 0 0 0 0 0 0 0 0 0 0 0 0 0 0 0 0 0 0 0 0 0 -1 0 0 0 0 0 0 1 0 0 0 0 0 0 0 0 0 0 0 0 0 0 0 0 0 0 0 0 0 0 0 0 0 0 0 0 0 0 0 0 0 0 0 0 0 0 0 0 0 0 0 0 -1 0 0 0 0 0 0 0 0 0 0 0 0 0 0 0 0 0 0 0 0 0 0 0 0 0 0 0 0 0 0 0 0 0 0 0 -1 0 0 0 0 0 0 0 0 0 0 0 0 0 0 0 0 0 0 0 0 0 0 0 0 0 -1 0 0 0 0 0 0 0 0 0 0 0 0 0 0 0 0 0 0 0 0 0zm-35 -114l3 9 0 0 0 0 0 0 0 0 0 0 0 0 0 0 0 0 0 0 0 0 0 0 0 0 0 0 0 0 0 0 0 0 0 0 0 0 0 0 0 0 0 0 0 0 0 0 0 0 0 0 0 0 0 0 0 0 0 0 0 0 0 0 0 0 0 0 0 0 0 0 0 0 0 0 0 0 0 0 0 1 0 0 0 0 0 0 0 0 0 0 0 0 0 0 0 0 0 0 0 0 0 0 0 0 0 0 0 0 0 0 0 0 0 0 0 0 0 0 0 0 0 0 0 0 0 0 0 0 0 0 0 0 0 0 0 0 0 0 0 0 0 0 0 0 0 0 0 0 0 0 -1 0c1,1 1,2 0,4 -1,1 -2,2 -3,2 0,1 0,3 -1,4 -1,1 -2,2 -3,2 0,1 0,3 -1,4 -1,1 -2,2 -3,2 0,1 0,3 -1,4 -1,1 -2,2 -3,2 0,2 0,3 -1,4 -1,2 -4,3 -6,2 -3,-2 -3,-5 -2,-7 1,-1 2,-2 4,-2 -1,-1 -1,-3 0,-4 1,-1 2,-2 4,-2 -1,-1 -1,-3 0,-4 1,-1 2,-2 4,-2 -1,-2 -1,-3 0,-4 1,-2 2,-2 4,-2 -1,-2 -1,-3 0,-4 1,-2 2,-2 3,-3 0,-1 0,-2 1,-4l0 0 0 0 0 0 0 0 0 0 0 0 0 0 0 0 0 0 0 0 0 0 0 0 0 0 0 0 0 0 0 0 0 0 0 0 0 0 0 0 0 0 0 0 0 0 0 0 0 0 0 0 0 0 1 0 0 0 0 0 0 0 0 0 0 0 0 0 0 0 0 0 0 -1 0 0 0 0 0 0 0 0 0 0 0 0 0 0 0 0 0 0 0 0 0 0 0 0 0 0 0 0 0 0 0 0 0 0 0 0 0 0 0 0 0 0 0 0 0 0 0 0 0 0 0 0 0 0 0 0 0 0 0 0 0 0 0 0 0 0 0 0 0 0 0 0 0 0 1 0 0 0 0 0 0 0 0 0 0 0 0 0 0 0 0 0 0 0 0 0 0 0 0 0 0 0 0 0 0 0 0 0 0 0 0 0 0 0 0 0 0 0 0 0 0 0 0 0 0 0 0 0 0 0 0 0 0 0 0 -1 0 0 0 0 0 0 0 0 0 0zm-20 40l0 0z"/>
  <path class="fil1" d="M960 1156l1 115c0,0 1,15 2,31 1,15 5,62 4,91 0,29 -1,67 3,84 3,17 7,33 7,33l0 0 0 0 0 0c0,0 -1,5 -7,6l0 0 0 0 0 0 0 0 0 0 0 0 0 0 0 0 0 0 0 0 0 0 0 0 -1 0 0 0 0 0 0 0 0 0 0 0 -1 0 0 0 0 0 0 0 0 0 -1 0 0 0 0 1 0 0 -1 0 0 0 0 0 -1 0 0 0 0 0 -1 0 0 0 0 0c-1,0 -2,0 -3,0l0 0 0 0 0 0 0 0 0 0 0 0 -1 0 0 0 0 0 0 0 0 0 0 0 0 0 0 0 0 0 0 0 0 0 0 0 0 0 0 0 0 0 0 0 0 0 0 0 0 0 0 0 0 0 0 0 0 0 -1 0 0 0 0 0 0 0 0 0 0 0 0 0 0 0 0 0 0 0 0 0 0 0 0 0 0 0 0 0 0 0 0 0 0 0 0 0 0 0 0 0 0 0 -1 0 0 0 0 0 0 0 0 0 0 0 0 0 0 0 0 0 0 0 0 0 0 0 0 0 0 0 0 0 0 0 0 0 0 0 -1 0 -1 0 0 0 0 0 -1 0 0 0 0 0 -1 0 0 0 0 0 0 0 0 0 -1 0 0 0 0 0 -1 0 0 0 0 0 -1 0 0 0 0 0 -1 1 -1 0 0 0 0 0 -1 0 0 0 0 0 0 0 -1 0 0 0 0 0 -1 0 0 0 0 0 -1 0 0 0 0 0 -1 0 0 0 0 0 -1 0 0 0 0 0 -1 0 0 0 0 0 0 0 -1 0 0 0 0 0 -1 -1 0 0 0 0 0 0 -1 0 0 0 0 0 -1 0 0 0 0 0 -1 0 0 0 0 0 0 0 -1 0 0 0 0 0 -1 0 0 0 -1 0 0 0 0 0 -1 0 0 0 0 0 0 0 0 0 -1 0 0 0 0 0 -1 0 0 0 0 0 0 0 0 0 -1 0 0 -1 0 0 -1 0 0 0 0 0 0 0c0,0 -4,-1 -5,-6 0,0 2,-9 4,-21l0 0 0 0c1,-5 2,-11 2,-16l0 -1 0 -1 0 0 0 -1 0 0 0 0 0 -1 0 0 1 -1 0 0 0 -1 0 0 0 0 0 -1 0 0 0 -1 0 0 0 0 0 -1 0 -1 0 0 0 0c0,-1 0,-1 0,-2l0 -1 0 0 0 0 0 -1 0 -1 0 0 0 -1 0 0 0 0 0 -1 0 0 0 -1 0 0 0 0 0 0 0 -1 0 0 0 0 0 -1 0 0 0 -1 0 0 0 0 0 -1 0 0 0 0 0 0 0 -1c-1,-24 -4,-65 -3,-94l0 0 0 0 0 0 0 0 0 0c0,-29 0,-182 -1,-200 -9,0 -47,0 -47,0 -1,-3 -1,-6 -1,-6 0,-7 1,-23 1,-23 -1,-2 1,-4 1,-4l50 1 3 0c0,0 17,0 23,0 5,0 12,1 12,1l54 11c1,1 0,7 0,7l-60 13 -3 0z"/>
  <path class="fil1" d="M2892 830l2 3 -2 4 -46 1c0,3 -1,6 -2,7 -2,3 -9,9 -9,9l-20 2 -16 1c-1,2 -2,3 -3,3 -2,1 0,0 0,0 0,0 -22,6 -30,6l0 0c0,1 -1,2 -1,2 0,0 -2,1 -10,2 -8,1 -17,2 -17,10 0,9 0,16 0,16 0,0 1,5 -4,6 -5,0 -10,1 -10,1 0,0 1,3 -1,4 -2,1 -4,1 -4,5 0,4 -1,9 -4,12 -2,2 -3,4 -3,9 0,6 0,12 -4,14l-4 15c0,0 -4,16 11,24l1 1 0 0 37 8c0,0 5,1 5,6 0,5 -5,59 -5,59 0,0 0,6 -8,7 -8,1 -22,0 -32,-1 -9,-1 -82,-10 -82,-10 0,0 -18,-4 -17,-13 2,-9 5,-31 5,-31 0,0 1,0 1,0l0 -1 0 0 0 0 0 0 0 0 0 0 0 0 0 0 0 0 0 0 0 0 0 0 0 0 0 0 0 0 0 0 0 0 0 0 0 0 0 0 0 0 0 0 0 0 0 0 0 0 0 0 0 0 0 -1 0 0 0 0 0 0 0 0 0 0 0 0 0 0 0 0 0 0 0 0 0 0 0 0 0 0 0 0 0 0 0 -1 0 0 0 0 0 0 0 0 0 0 0 0 0 0 0 0 0 0 0 0 0 0 0 -1 0 0 0 0 0 0 0 0 0 0 0 0 0 0 0 0 0 -1 0 0 0 0 0 0 0 0 0 0 0 0 0 0 0 -1 0 0 0 0 0 0 0 0 0 0 0 -1 0 0 0 0 0 0 0 0 0 0 0 -1 0 0 0 0 0 0 0 0 0 0 0 -1 0 0 0 0 0 0 0 0 0 0 1 -1 0 0 0 0 0 0 0 -1 0 0 0 0 0 0 0 0 0 0 0 -1 0 0 0 0 0 0 0 -1 0 0 1 0 0 0 0 -1 0 0 0 0 0 0 0 -1 0 0 0 0 0 0 0 -1 0 0 1 0 0 0 0 -1 0 0 0 -1 0 0 0 0 0 0 0 -1 0 0 1 0 0 0 0 -1 0 0c0,-1 1,-2 1,-3l0 0 0 0 0 0 0 -1 0 0 1 0 0 0c0,-1 0,-1 0,-2l0 0 1 0 0 0 0 -1 0 0c0,-1 1,-1 1,-2l0 0 0 0 0 0 1 -1 0 0 0 -1 0 0 0 0 0 0c0,0 1,-1 1,-1l0 0 0 -1 0 0 0 0 0 0 0 0 0 0 1 0 0 0 0 -1 0 0 0 0 0 0 0 0 0 0 0 -1 0 0 0 0 0 0 1 0 0 0 0 0 0 0 0 0 0 0 0 -1 0 0 0 0 0 0 0 0 0 0 0 0 0 0 1 -1 0 0 0 0 0 0 0 0 0 0 0 0 0 0 0 0 0 0 0 0 0 0 0 0 0 0 0 0 0 0 0 0 0 0 0 0 0 0 0 0 0 0 5 -16 0 0 0 0 0 -1 0 0 0 0 0 0 0 0 0 0 0 0 0 0 0 0 0 0 0 0 0 0 0 0 0 0 0 0 0 0 0 0 0 0 0 0 0 0 0 0 0 0 0 0 0 0 0 0 0 0 0 0 0 0 0 0 0 0 0 0 0 -1 0 0 0 0 0 0 0 0 0 0 0 0 0 0 0 0 0 0 0 0 0 0 0 0 0 0 0 -1 0 0 0 0 0 0 0 0 0 0 0 0 0 0 0 0 0 0 0 0 0 0 0 0 0 0 0 -1 0 0 0 0 0 0 0 0 0 0 0 0 0 0 0 0 0 0 0 0 0 0 0 0 0 0 0 0 0 0 0 0 0 0 0 -1 0 0 0 0 0 0 0 0 0 0 0 0 0 0 0 0 0 0 0 0 0 0 0 0 0 0 0 -1 0 0 1 0 0 0 0 0 0 0c0,-1 0,-2 1,-3l0 0 0 -1 0 0 0 -1 0 0 1 -1 0 0 0 0 0 0 0 -1 0 0 1 -2 0 0 0 -2 0 0 1 -1 0 0 0 0 0 0 0 -1 0 0 1 -2 0 0 1 -1 0 0 0 -1 0 0 1 -2 0 0 0 -1 0 0 0 -1 0 0 1 0 0 0 0 -2 0 0c1,-2 2,-3 2,-4l0 0 1 -1 0 0c0,-1 0,-2 1,-3l0 0 0 0 0 0 0 -1 0 0 1 -1 0 0c0,-1 0,-1 1,-2l0 0c0,-1 0,-1 0,-1l0 0c1,-2 2,-4 3,-5l1 -1 0 0 1 -2 0 0 0 -1 0 0 1 -1 0 0 0 0 0 0 0 -1 0 0 0 0 0 0 1 0 0 0 0 -1 0 0 0 0 0 0 1 -1 0 0 0 0 0 0 0 0 0 0 0 -1 0 0 1 0 0 0 0 -1 0 0 0 0 0 0 0 0 0 0 0 0 0 0 1 -1 0 0 0 0 0 0 0 -1 0 0 0 0 0 0 0 0 0 0 0 0 0 0 1 0 0 0 0 -1 0 0 0 0 0 0 0 0 0 0 0 0 0 0 0 0 0 0 0 -1 0 0 0 0 0 0 1 0 0 0 0 0 0 0 0 0 0 0 0 -1 0 0 0 0 0 0 0 0 0 0 0 0 0 0 1 0 0 0 0 -1 0 0 0 0 0 0 0 0 0 0 0 0 0 0 0 0 0 0 0 -1 0 0 0 0 0 0 1 0 0 0 0 0 0 0 0 0 0 0 0 0 0 0 0 -1 0 0 0 0 0 0 0 0 0 0 1 0 0 0 0 -1 0 0 0 0 0 0 0 0 0 0 0 0 0 0 0 0 0 0 1 -1 0 0 0 0 0 0 0 -1 0 0c0,0 0,0 0,0l0 0 0 0 0 0c1,-1 1,-1 1,-1l0 0 0 0 0 0c0,-1 0,-1 0,-1l0 0 0 -1 0 0 0 0 0 0 0 0 0 0 1 -1 0 0 0 0 0 0 0 0 0 0 0 0 0 0c0,-1 0,-1 0,-1l0 0c0,-1 0,-1 0,-1l0 0 0 -1 0 0c0,0 0,0 0,0l0 0 0 -1 0 0c0,0 0,0 0,-1l0 0c0,0 -1,0 -1,-1l0 0c0,0 0,0 0,-1l0 0c0,0 0,0 0,-1 -1,0 -1,-1 -2,-2l0 0c0,0 0,0 0,0l0 0c0,-1 -1,-1 -1,-1l0 0c0,0 0,-1 -1,-1l0 0c0,0 0,0 0,0l0 0 0 0 0 0 -1 0 0 0 0 -1 0 0 0 0 0 0 0 0 0 0 -1 0 0 0 0 0 0 0 0 0 0 0 -1 0 0 0 0 0 0 0 0 -1 0 0 0 0 0 0 -1 0 0 0 0 0 0 0 0 0 0 0 0 0 0 0 -1 0 0 0 0 0 0 0 0 0 0 0 -1 0 0 0 0 0 0 0 0 -1 0 0 0 0 0 0 -1 0 0 0 0 0 0 0 0 0 0 0 0 0 0 0 -1 0 0 0 0 0 0 0 0 0 0 0 0 0 0 0 -1 0 0 0 0 0 0 0 0 0 0 0 0 0 0 0 0 0 0 0 -1 0 0 0 0 0 0 0 0 0 0 0 0 0 0 0 0 0 0 0 -1 0 0 0 0 0 0 0 0 0 0 0 0 0 0 0 0 0 0 0 0 0 0 0 -1 0 0 0 0 0 0 0 0 0 0 0 0 0 0 0 0 0 0 0 0 0 0 0 -1 0 0 0 0 0 0 0 0 0 0 0 0 0 0 0 0 0 0 0 -1 0 0 0 0 0 0 0 0 0 0 0 0 0 0 0 -1 0 0 0 0 0 0 0 0 0 0 0 0 0 0 0 0 0 0 0 -1 0 0 0 0 0 0 0 0 0 0 0 -1 0 0 0 0 0 0 0 0 0 0 0 0 -1 0 0 -1 0 0 0 0 0 0 0 0 0 0 0 -1 0 0 0 0 0 0 0 0 0 0 0 0 0 0 0 -1 0 0 0 0 0 0 0 0 0 0 0 -1 0 0 0 0 0 0 0 0 0 0 0 -1 0 0 0 0 0 0 0 0 0 0 0 -1 0 0 0 0 0 0 0 0 0 0 0 -1 0 0 0 0 -1 0 0 0 0 0 0 -1 0 0 0 0 0 0 0 0 0 0 0 -1 0 0 0 0 0 0 0 -1 0 0 0 0 0 0 0 0 0 0 0 -1 0 0 0 0 0 0 0 0 -1 0 0 -1 0 0 0 0 0 0 0 -1 0 0 0 0 0 0 0 0 0 0 0 -1 0 0 0 0 0 0 0 0 0 0 0 -1 0 0 0 0 -1 0 0 0 0 0 0 -1 0 0 0 0 0 0 0 0 0 0 0 -1 0 0 0 0 0 0 0 0 0 0 0 -1 0 0 0 0 -1 0 0 0 0 0 0 -1 0 0 0 0 0 0 0 0 0 0 0 -1 0 0 0 0 0 0 0 0 0 0 0 0 0 0 0 -1 0 0 0 0 -1 0 0 0 0 0 0 0 0 0 0 -1 0 0 0 0 0 0 0 0 0 0 0 0 0 0 0 -1 0 0 0 0 0 0 0 0 0 0 0 0 0 0 0 -1 -1 0 0 0 0 0 0 0 0 0 0 0 0 0 0 0 0 0 0 0 0 0 0 -1 0 0 0 0 0 0 0 0 0 0 0 0 0 0 0 0 0 0 0 0 0 0 0 0 0 0 0 -1 0 0 0 0 0 0 0 0 0 0 0 0 0 0 0 0 -1 0 0 0 0 0 0 0 0 0 0 0 0 0 0 0 0 0 0 0 0 0 0 0 0 0 0 0 0 0 0 0 0 0 0 0 0 0 0 0 0 0 0 0 0 0 0 0 0 0 0 0 0 0 0 0 0 0 0 0 0 0 0 -1 0c0,0 0,0 0,0l0 0c0,0 -1,-1 -1,-1l0 0c0,0 0,0 0,0l0 0 -1 0 0 0 0 -1 0 0 0 0 0 0c0,0 0,0 0,0l0 0 0 0 0 0 -1 0 0 0 0 -1 0 0 0 0 0 0 0 0 0 0 0 0 0 0 0 0 0 0 0 -1 0 0c0,0 0,0 0,0l0 0 -1 0 0 0 0 0 0 0 0 -1 0 0 0 0 0 0 0 0 0 0 0 0 0 0 0 0 0 0 0 -1 0 0 0 0 0 0 0 0 0 0 0 0 0 0 0 -1 0 0 0 0 0 0 0 0 0 0 0 0 0 0 0 -1 0 0 0 0 0 0 0 0 0 -1 0 0 0 0 0 0 0 0 0 0 0 0 0 0 0 0 0 0 0 0 0 0 0 -1 0 0 0 0 0 0 0 0 0 0 0 0 0 0 0 0 0 0 0 0 0 0 0 0 0 0 0 0 0 0 0 0 0 0 0 0 0 0 0 0 0 0 0 0 0 0 0 -1 0 0 0 0 0 0 0 0 0 0 0 0 0 0 0 0 0 0 0 0 0 0 0 0 0 0 0 0 0 0 0 -1 0 0 0 0 0 0 0 0 0 0 0 0 0 0 0 0 0 0 0 0 0 0 0 0 0 0 0 -1 0 0 0 0 0 0 0 0 0 0c0,0 0,-1 0,-1l0 0 0 -1 0 0 0 0 0 0 0 -1 0 0 0 0 0 0 0 0 0 0 0 0 0 0 0 0 0 0 0 -1 0 0 0 0 0 0 0 0 0 0 0 -1 0 0 0 0 0 0 0 0 0 0 0 -1 0 0 0 0 0 0 0 0 0 0 0 0 0 0 0 -1 0 0 0 0 0 0 0 0 0 0 1 -1 0 0 0 0 0 0 0 0 0 0 0 0 0 0 0 0 0 0 0 -1 0 0 0 0 0 0 0 0 0 0 0 0 0 0 0 0 0 0 0 -1 0 0 0 0 0 0 0 0 0 0 0 0 0 0 0 0 0 0 0 0 0 0 0 0 0 0 0 0 0 0 0 -1 0 0 0 0 0 0 0 0 0 0 0 0 0 0 0 0 0 0 0 0 0 0 0 0 0 0 0 0 0 0 0 0 0 0 0 0 0 0 0 0 0 0 0 0 0 0 0 0 0 0 0 0 0 0 0 0 0 0 0 0 0 0 0 0 0 0 0 0 0 0 0 0 0 0 0 0 0 0 0 0 0 0 0 0 0 0 0 0 0 0 0 -1 0 0 0 0 0 0 0 0 0 0 0 0 0 0 0 0 0 0 0 0 0 0 0 0 0 0 0 0 0 0 0 0 0 0 0 0 0 0 0 0 0 0 0 0 0 0 0 0 0 0 0 0 0 0 0 0 0 0 0 0 0 0 0 0 0 0 0 0 0 0 0 0 0 0 0 0 0 0 0 0 0 0 0 -1 0 0 0 0 0 0 0 0 0 0 0 0 0 0 0 0 0 0 0 0 0 0 0 0 0 0 0 0 0 0 0 0 0 0 0 0 0 0 0 0 0 0 1 0 0 0 0 0 0 0 0 0 0 0 0 0 0 0 0 0 0 0 0 0 0 0 0 0 0 0 0 0 0 0 0 -1 0 0 0 0 0 0 0 0 0 0 0 0 0 0 0 0 0 0 0 0 0 0 0 0 0 0 0 0 0 0 0 0 0 0 0 0 0 0 0 0 0 0 0 0 0 0 0 0 0 0 0 -1 0 0 0 0 0 0 0 0 0 0 1 0 0 0 0 -1 0 0 0 0 0 0 0 0 0 0 0 -1 0 0 0 0 0 0 1 -1 0 0 0 0 0 0 0 -1 0 0c1,0 1,-1 1,-2l0 0 0 0 1 0 0 -1 0 0 0 0 0 0c1,-1 1,-1 1,-2l0 0c1,-1 2,-2 2,-3l0 0c1,0 1,0 1,-1l0 0c1,0 1,-1 1,-1l0 0c1,-1 2,-2 3,-3l0 0c0,0 0,0 1,-1l0 0c0,0 0,0 1,0l0 0c0,-1 0,-1 0,-1l0 0 1 -1 0 0 0 0 0 0 1 0 0 0c1,-1 1,-1 2,-2l0 0c0,0 1,-1 1,-1l0 0 1 0 0 0 1 -1 0 0 0 0 0 0 1 -1 0 0 0 0 0 0 0 0 0 0 0 0 0 0 0 0 0 0 0 0 0 0 0 0 0 0 0 0 0 0 0 0 0 0 0 0 0 0 0 0 0 0 0 0 0 0 0 0 0 0 0 0 0 0 0 0 0 0 1 0 0 0 0 0 0 0 0 0 0 0 0 0 0 0 0 0 0 0 0 0 0 0 0 0 0 0 0 0 0 0 1 0 0 0 0 0 0 0 0 0 0 0 0 -1 0 0 0 0 0 0 1 0 0 0 0 0 0 0 0 0 0 0 0 0 0 0 0 0 0 0 1 0 0 0 0 0 0 0 0 0 0 0 0 0 0 0 1 0 0 0 0 0 0 0 0 0 0 0 0 -1 0 0 1 0 0 0 0 0 0 0 0 0 0 0 1 0 0 0 0 0 0 0 0 0 0 0 0 0 0 0 1 0 0 0 0 0 0 0 0 0 0 0 1 0 0 0 0 0 0 0 1 0 0 0 0 0 0 0 0 0 0 0 1 -1 0 0 0 0 0 0 0 0 0 0 1 0 0 0 0 0 0 0 1 0 0 0 0 0 0 0 1 0 0 0 0 0 0 0 0 0 0 0 1 0 0 0 0 0 0 0 1 0 0 0 0 0 0 0 1 0 0 0 1 0 0 0 0 0 0 0 1 0 0 0 1 0 0 0 0 0 0 0 1 0 0 0 1 0 0 0 0 0 0 0 1 0 0 0 1 0 0 0 0 0 0 0 1 0 0 0 1 0 0 0 1 0 0 0 0 0 0 0 1 -1 0 0 1 0 0 0 1 0 0 0 1 0 0 0 0 0 0 0 1 0 0 0 1 0 0 0 1 0 0 0 0 0 0 0 1 0 0 0 1 0 0 0 1 0 0 0 0 0 0 0 1 0 0 0 1 0 0 0 1 0 0 0 0 0 0 0 1 0 0 0 1 0 0 0 0 0 0 0 1 0 0 0 0 0 0 0 1 0 0 0 1 0 0 0 0 0 0 0 1 0 0 0 0 0 0 0 1 -1 0 0 0 0 0 0 1 0 0 0 0 0 0 0 1 0 0 0 0 0 0 0 0 0 0 0 1 0 0 0 0 0 0 0 0 0 0 0 0 0 0 0 0 0 0 0 1 0 0 0 0 0 0 0 0 0 0 0 0 0 0 0 43 -2 0 0 0 0 0 0 0 0 0 0 0 0 0 0 0 0 0 0 0 0 0 0 0 0 0 0 0 0 0 0 0 0 0 0 0 0 0 0 0 0 0 0 0 0 0 0 1 0 0 0 0 0 0 0 0 0 0 0 0 0 0 0 0 0 0 0 0 0 0 0 0 0 0 0 0 0 1 0 0 0 0 0 0 0 0 0 0 0 0 0 0 0 0 0 0 0 0 0 0 0 0 0 1 0 0 0 0 0 0 0 0 0 0 0 0 0 0 0 0 0 1 0 0 0 0 0 0 0 0 0 0 0 0 0 0 0 0 0 1 0 0 0 0 0 0 0 0 0 0 0 0 0 0 0 1 0 0 0 0 0 0 0 0 0 0 0 0 0 1 0 0 0 0 0 0 0 0 0c7,0 15,1 19,1 0,0 1,0 2,3 3,0 14,0 31,3 0,0 2,0 3,4l16 -1 19 2c0,0 1,0 2,1l8 7c0,0 2,2 3,8l46 -2z"/>
  <path class="fil1" d="M1741 1184c0,0 -8,-10 -26,-10l-5 0 -1 0 0 -10 0 0 0 -1c0,0 1,0 1,0l5 0c0,0 15,0 26,-10l-24 0c0,0 -2,0 -2,-2l0 -8 -6 0 -3 0 0 0 0 0 -16 0 -1 0 0 0 -3 0 -9 0 -48 12 0 1 0 0 -5 8 19 0 1 0 24 0 1 -1 17 0 0 1 0 31 -2 0 -5 0 -10 0 -1 0 -24 0 0 -1 -1 0 0 1 -19 0 5 7 0 1 0 0 47 13c0,0 3,1 3,4l0 56 5 0 2 0 0 213 3 0 0 0 1 0 16 0 0 0 3 0 0 -213 1 0 1 0 5 0 0 -41 4 0c1,0 1,-1 1,-1l0 -12c0,0 0,-1 -1,-1l-4 0 0 -26 0 0 0 0 0 -7c0,0 0,-4 4,-4 5,0 21,0 21,0z"/>
  <path class="fil1" d="M1468 809l10 131c0,0 0,1 1,1l1 -11 1 11 0 0 0 0 0 0 0 0 0 0 0 0 0 0 0 0 0 0 0 0 0 0 0 0 0 0 0 0 0 0 0 0 0 0 0 0 0 0 0 0 0 0 0 0 0 0 1 0 0 0 0 0 0 0 0 0 0 0 0 0 0 0 0 0 0 0 0 0 0 0 0 0 0 0 0 0 0 0 0 0 0 0 0 0 0 0 0 0 0 0 0 0 0 -1 0 0 0 0 0 0 0 0 0 0 0 0 0 0 10 -131 3 2c1,1 2,-1 2,-1 0,-12 2,-25 5,-36 3,-11 21,-20 21,-20 16,-11 16,-26 16,-26 0,-35 -27,-36 -27,-36 -23,0 -29,21 -29,24 -1,3 -2,4 -2,5 -1,0 -1,1 -1,1 0,0 1,4 1,6 0,1 1,3 1,3 1,2 1,6 1,6 0,0 -1,56 -1,61 0,1 0,2 0,3l-2 2 -2 -2c0,-1 0,-2 0,-3 0,-5 -2,-61 -2,-61 0,0 1,-4 2,-6 0,0 1,-2 1,-3 0,-2 1,-6 1,-6 0,0 0,-1 -1,-1 0,-1 -1,-2 -2,-5 0,-3 -6,-24 -29,-24 0,0 -27,1 -27,36 0,0 -1,15 16,26 0,0 18,9 21,20 3,11 4,24 5,36 0,0 1,2 1,1l4 -2zm1 -83l0 0c0,12 -8,24 -19,23 -11,-2 -19,-15 -19,-23 0,-13 8,-24 19,-24 10,0 19,11 19,24zm41 -25c11,0 20,10 20,22 0,13 -9,22 -20,22 -11,0 -19,-9 -19,-22 0,-12 8,-22 19,-22z"/>
  <path class="fil0" d="M1052 1134c6,-6 19,-4 19,-4l1 1 2 -1c0,0 17,-3 21,8 0,0 0,0 0,0 1,2 0,4 0,4 0,7 -4,10 -7,13 -3,3 -3,13 -3,15l0 1 0 4c0,0 0,1 0,1 0,1 0,2 0,3 -1,2 -1,5 -1,5 0,8 2,13 3,14l0 0c1,0 2,0 3,1 1,1 3,0 3,0 1,0 2,1 2,1 3,2 10,-3 11,0 1,3 -2,5 -2,5 -7,3 -6,11 -6,17 0,6 2,8 2,8 3,10 9,31 8,54 0,22 -7,50 -7,50 -5,11 -11,10 -11,10 -8,-1 -6,-13 -6,-13 0,0 1,-11 2,-13 0,-3 0,-3 0,-3l1 -2c9,-54 -11,-93 -12,-97 -2,-5 -2,-9 -2,-9l0 0c0,-1 -1,-3 -2,-4 0,1 -1,2 -1,3l2 1c0,0 -1,4 -2,9 -2,4 -21,43 -13,97l1 2c0,0 1,0 1,3 0,2 2,13 2,13 0,0 1,12 -7,13 0,0 -6,1 -11,-10 0,0 -6,-28 -6,-50 -1,-23 5,-44 8,-54 0,0 1,-2 1,-8 0,-6 1,-14 -5,-17 0,0 -3,-2 -2,-5 1,-3 8,2 10,0 0,0 1,-1 3,-1 0,0 2,1 3,0 0,-1 2,-1 3,-1l0 0c1,-1 3,-6 2,-14 0,0 0,-3 0,-5 0,0 0,0 0,0 -2,-4 -1,-10 -2,-17 0,-6 -4,-8 -7,-11 -3,-3 -2,-7 -2,-7 0,-7 3,-10 3,-10zm20 0l-7 10 2 3 10 0 4 -3 -9 -10z"/>
  <path class="fil1" d="M2056 780c1,17 3,52 3,63 0,14 -7,29 -7,29 0,0 -9,19 -21,40 -11,22 -3,38 -3,38 12,20 35,26 36,25 2,0 1,-1 1,-1 0,0 -8,-17 -12,-26 -4,-8 4,-11 4,-11l64 -28c1,-5 -10,-16 -21,-33 -11,-16 -10,-31 -10,-31l0 -79c1,-1 1,-2 1,-5 0,-4 3,-157 3,-176 0,0 0,-1 0,-1 0,0 0,0 0,-1 0,0 0,0 0,0l0 0c0,-12 -10,-23 -23,-23 -13,0 -23,11 -23,24 0,0 0,1 0,1l7 193c0,0 0,2 1,2zm20 148c0,0 3,0 5,5 3,9 7,18 11,26l0 1 0 0 0 0 0 0 0 0 0 0 0 0 0 0 0 0 0 0 0 0 0 0 0 0 0 0 0 1 0 0 0 0 0 0c0,0 2,4 3,1 0,0 14,-23 11,-46 -10,4 -20,8 -30,12zm-12 -23l2 -1 2 2c0,1 2,1 2,0 1,-1 1,-2 0,-3l0 0 3 -2 1 2c1,1 2,1 3,0 1,-1 1,-2 0,-3l-1 0 4 -2 1 2c1,1 2,1 3,0 0,-1 0,-2 0,-3l-1 0 3 -2 2 2c1,0 2,0 2,0l1 2 0 0 -25 11 -2 -5zm20 -23l-4 2 -2 -1c0,-1 -2,-1 -2,0l0 0c-1,0 -1,2 0,2l0 1 -3 1 -1 -1 0 0c-1,-1 -2,-1 -3,0 -1,0 -1,2 0,2l1 1 -4 1 -1 -1 0 0c-1,-1 -2,-1 -3,0 0,0 0,2 0,2l1 1 -3 1 -2 -1c0,0 0,0 0,-1l0 0 -1 -1 25 -11 2 3zm-4 -300l0 0c0,5 -4,9 -9,9 -4,0 -8,-4 -8,-9 0,-5 4,-9 8,-9 5,0 9,4 9,9z"/>
  <path class="fil1" d="M2132 1357c0,0 1,10 2,18 0,0 1,5 1,10 -1,1 -1,1 -1,2l0 0 0 0 0 1 0 0 0 0 0 0 0 0 0 0 0 1 0 0 0 0 0 0 0 0 0 0 0 0 0 1 0 0 0 0 0 0 0 0 0 0 0 0 0 1 0 0 0 0 0 0 0 0 0 0 0 0 0 0 0 1 0 0 0 0 0 0 0 0 0 0 0 0 0 1 0 0 -1 0 0 0 0 0 0 0 0 1 0 0 0 0 0 0 0 0 0 0 0 0 0 0 0 0 0 1 0 0 0 0 0 0 0 0 0 0 0 0 0 0 0 0 0 1 0 0 0 0 0 0 0 0 0 0 0 0 0 0 0 0 0 0 0 0 0 1 0 0 0 0 0 0 0 0 0 0 0 0 0 0 0 0 0 0 0 0 0 0 0 1 0 0 0 0 0 0 0 0 0 0 0 0 0 0 0 0 0 0 0 0 0 0 0 0 0 0 0 0 0 0 0 0 0 0 0 0 0 0 0 0 0 1 0 0 0 0 0 0 0 0 0 0 0 0 0 0 0 0 0 0 -11 0 0 0 0 0 0 0 0 0 0 0 0 0 0 0 0 0 0 0 0 -1 0 0 0 0 0 0 0 0 0 0 0 0 0 0 0 0 0 0 0 0 0 0 0 0 0 0 0 0 0 0 0 0 -1 -1 0 0 0 0 0 0 0 0 0 0 0 0 0 0 0 0 0 0 0 0 0 -1 0 0 0 0 0 0 0 -2 0 0 0 -1 0 0 0 -1 0 0 0 0 0 -1 0 0 0 0 0 0 0 0 0 0 -1 0 0 0 0 -1 0 0 0 0 0 0 0 0 0 0 0 0 0 -1 0 0 0 0 0 0 0 -1 0 0 0 0 0 0 0 0 0 0 0 -1 0 0 0 0 0 -2c-1,-5 0,-10 0,-10 1,-8 2,-18 2,-18l0 -115c-3,0 -7,-1 -11,-2 0,0 -3,-1 -3,-6 0,-5 2,-16 3,-18 1,-3 3,-7 3,-9 0,-2 -1,-6 -2,-11 -1,-6 -3,-20 -3,-40 0,-18 -1,-54 17,-56l0 0 0 0 0 0c0,0 0,0 0,0l0 0 0 0 0 0 0 0 0 0c1,0 1,0 1,0 19,0 19,37 19,56 0,20 -3,34 -4,40 -1,5 -1,9 -1,11 0,2 1,6 2,9 1,2 3,13 3,18 0,5 -3,6 -3,6l0 0 0 0 0 0 0 0 0 0 0 0 -1 0 0 0 0 0 0 0 0 0 0 0 0 0 -1 0 0 0 0 0 0 0 0 0 0 0 0 0 0 0 -1 1 0 0 0 0 0 0 0 0 0 0 0 0 0 0 -1 0 0 0 0 0 0 0 0 0 0 0 0 0 0 0 0 0 -1 0 0 0 0 0 0 0 0 0 0 0 0 0 -1 0 0 0 0 0 0 0 0 0 0 0 0 0 0 0 0 0 -1 0 0 0 0 0 0 0 0 0 0 0 0 0 0 0 0 1 -1 0 0 0 0 0 0 0 0 0 0 0 0 0 0 0 0 0 -1 0 0 0 0 0 0 0 0 0 0 0 0 0 0 0 0 0 0 0 -1 0 0 0 0 0 0 0 0 0 0 0 0 0 0 0 0 0 0 0 -1 0 0 115z"/>
  <path class="fil1" d="M2081 1335c0,0 0,9 1,15 0,0 1,4 0,9 0,0 0,1 0,2l0 0 0 0 0 0 0 0 0 0 0 1 0 0 0 0 0 0 0 0 0 0 0 0 0 0 0 1 0 0 0 0 0 0 0 0 0 0 0 0 0 0 0 0 0 1 0 0 0 0 0 0 0 0 0 0 0 0 0 0 0 0 0 0 0 1 0 0 0 0 0 0 -1 0 0 0 0 0 0 1 0 0 0 0 0 0 0 0 0 0 0 0 0 0 0 0 0 0 0 0 0 1 0 0 0 0 0 0 0 0 0 0 0 0 0 0 0 0 0 0 0 0 0 1 0 0 0 0 0 0 0 0 0 0 0 0 0 0 0 0 0 0 0 0 0 0 0 1 0 0 0 0 0 0 0 0 0 0 0 0 0 0 0 0 0 0 0 0 0 0 0 0 0 0 0 0 0 1 0 0 0 0 0 0 0 0 0 0 0 0 0 0 0 0 0 0 0 0 0 0 0 0 0 0 0 0 0 0 0 0 0 0 0 0 0 0 0 0 0 0 0 0 0 0 0 0 0 0 0 0 -7 0 0 0 0 0 0 0 0 0 0 0 0 0 0 0 0 0 0 0 0 0 0 0 0 0 0 0 0 0 0 0 0 0 0 0 0 0 0 0 0 0 0 0 0 0 0 0 0 0 0 -1 0 0 0 0 0 0 0 0 -1 0 0 0 0 0 0 0 0 0 0 0 0 0 0 -1 0 0 0 0 0 0 0 0 0 -2 0 0 0 -1 0 0 0 0 0 -1 0 0 0 0 0 0 0 0 0 0 0 0 0 0 0 0 0 0 0 -1 0 0 0 0 0 0 0 0 0 0 0 0 0 0 0 0 0 -1 0 0 0 0 0 0 0 0 0 -1 0 0 0 0 0 0 0 0 0 0 -1 -2c0,-5 1,-9 1,-9 0,-6 1,-15 1,-15l0 -96c-2,0 -5,-1 -7,-2 0,0 -2,0 -2,-4 0,-4 1,-14 2,-16 0,-2 1,-5 1,-7 0,-2 0,-5 -1,-9 0,-5 -2,-17 -2,-33 0,-16 0,-46 11,-47l0 0 0 0 0 0c0,0 0,0 1,0l0 0 0 0 0 0 0 0 0 0c0,0 0,0 0,0 13,0 13,30 13,47 0,16 -2,28 -3,33 -1,4 -1,7 -1,9 0,2 1,5 2,7 0,2 2,12 2,16 0,4 -2,4 -2,4l0 0 0 0 0 0 0 0 -1 0 0 0 0 1 0 0 0 0 0 0 0 0 0 0 0 0 0 0 0 0 0 0 -1 0 0 0 0 0 0 0 0 0 0 0 0 0 0 0 0 0 0 0 0 0 0 0 0 0 -1 0 0 0 0 0 0 0 0 0 0 0 0 0 0 0 0 0 0 0 0 0 0 0 -1 1 0 0 0 0 0 0 0 0 0 0 0 0 0 0 0 0 0 0 0 0 0 0 -1 0 0 0 0 0 0 0 0 0 0 0 0 0 0 0 0 0 0 0 0 0 0 0 0 0 0 0 -1 0 0 0 0 0 0 0 0 0 0 0 0 0 0 0 0 0 0 0 0 0 0 0 0 0 0 0 -1 0 0 0 0 0 0 0 0 0 0 0 0 0 0 0 0 0 0 0 0 0 0 0 0 96z"/>
  <path class="fil0" d="M2035 1233l-6 -4c0,-8 3,-16 1,-23 -3,-10 -1,-71 -1,-84 7,-7 19,-7 20,5l0 72c0,14 -5,-3 0,31l-7 2 -2 160 -4 0 -1 -77c0,-27 0,-55 0,-82z"/>
  <path class="fil1" d="M177 1274c-3,0 -8,0 -12,-2 0,0 -3,-1 -3,-6 1,-4 3,-16 4,-18 1,-3 2,-7 2,-9 0,-2 0,-6 -2,-11 -1,-6 -3,-21 -3,-41 0,-19 -1,-54 17,-57l0 0c0,0 0,0 1,0l0 0 0 0 0 0 0 0 0 0c0,0 0,0 1,0l0 0 0 0 0 0 0 0 0 0 0 0 0 0 0 0 0 0 0 0c0,0 1,0 1,0 0,0 1,0 1,0 0,0 0,0 0,0l0 0c0,1 1,1 1,1l1 0c0,0 0,0 1,0l0 0c7,3 10,12 12,23l0 0c0,3 1,5 1,8l0 0 0 1 0 0 0 1 0 0 0 1 0 0 0 1 0 1 0 1 0 0 0 1 0 0 0 1 0 0 0 1 0 0 0 1 0 1 0 0 0 1 0 0 0 1 0 0 0 1 0 0 0 1 0 1 0 0 0 1 0 0 0 1 0 0 0 1 0 0 0 1 0 1 0 0 0 1 0 0 0 1 0 0 0 1 0 0 0 0 0 1 0 0c0,20 -2,35 -3,41 -1,5 -2,9 -2,11 0,2 2,6 3,9 1,2 3,14 3,18 0,5 -3,6 -3,6l0 0 0 0 0 0 -1 0 0 0 0 0 0 0 0 0 0 0 0 0 0 0 -1 1 0 0 0 0 0 0 0 0 -1 0 0 0 0 0 0 0 0 0 0 0 0 0 0 0 0 0 -1 0 0 0 0 0 0 0 0 0 0 0 0 0 0 0 -1 0 0 0 0 0 0 0 0 0 0 1 -1 0 0 0 0 0 0 0 0 0 0 0 0 0 0 0 0 0 -1 0 0 0 0 0 0 0 0 0 0 0 -1 0 0 0 0 0 0 0 0 0 0 0 0 0 0 0 0 0 -1 0 0 0 0 0 0 0 0 0 0 0 0 0 0 0 0 0 -1 0 0 0 0 0 0 0 0 0 0 0 0 0 0 0 0 0 -1 0 0 0 0 0 0 0 0 0 0 0 0 0 0 0 0 0 0 0 -1 0 0 0 0 0 0 1 0 0 0 0 0 0 0 0 0 0 0 0 0 0 1 0c0,4 1,7 6,7l0 1 0 31 0 1 0 2 0 2 0 1 0 8 0 1 0 5 0 0 0 8 0 1 0 5 0 0 0 8 0 1 0 5 0 0 0 8 0 1 0 5 0 1 0 8 0 0 0 5 0 1 0 8 0 0 0 5 0 1 0 8 0 0 0 5 0 1 0 8 0 1 0 4 0 1 0 8 0 1 0 4 0 1 0 8 0 1 0 4 0 1 0 8 0 1 0 4 0 1 0 8 0 1 0 4 0 1 0 8 0 1 0 4 0 1 0 6 -4 0 -9 0 -10 0 0 -6 0 0 0 -5 0 -1 0 -8 0 0 0 -5 0 -1 0 -8 0 0 0 -5 0 -1 0 -8 0 -1 0 -4 0 -1 0 -8 0 -1 0 -4 0 -1 0 -8 0 -1 0 -4 0 -1 0 -8 0 -1 0 -4 0 -1 0 -8 0 -1 0 -4 0 -1 0 -8 0 -1 0 -4 0 -1 0 -8 0 -1 0 -4 0 -1 0 -8 0 -1 0 -4 0 -1 0 -8 0 -1 0 -4 0 -1 0 -8 0 -1 0 -4 0 -1 0 -8 0 -1 0 -3 0 -2 0 0 0 -8 0 -1 0 -5 0 0 0 -18 0 -1c5,0 6,-3 7,-7l0 0 0 0 0 0 0 0 0 0 0 0 0 0 0 0 0 -1 0 0 0 0z"/>
  <path class="fil1" d="M1455 1188c0,-1 0,-2 0,-3 1,0 1,0 1,-1 0,0 1,-4 2,-6l3 -9c0,0 1,-1 0,-3 0,0 -2,-11 -4,-21l0 -2c-1,-7 -2,-13 -2,-14 0,-2 -1,-2 -1,-2l-3 0 -2 14 0 0c0,0 1,1 1,1 0,1 0,1 0,1 0,0 0,0 0,1 -1,0 0,0 0,0 0,0 1,1 1,1 0,0 0,0 0,1 -1,0 -1,1 -1,1 0,0 0,0 1,1 0,0 0,0 0,0 0,0 -1,1 -1,1 -1,1 0,1 0,1 0,0 0,0 1,1 0,0 -1,0 -1,0 0,0 0,1 -1,1 -1,0 0,1 0,1 0,0 0,0 1,0 0,1 -1,1 -1,1 0,0 -1,1 -1,1 0,0 0,0 0,1 1,0 0,0 0,0l-2 2 -3 16 -6 0 -3 -16 -2 -2c0,0 -1,0 0,0 0,-1 0,-1 0,-1 0,0 -1,-1 -1,-1 0,0 -1,0 -1,-1 1,0 1,0 1,0 0,0 1,-1 0,-1 -1,0 -1,-1 -1,-1 0,0 -1,0 -1,0 1,-1 1,-1 1,-1 0,0 1,0 0,-1 0,0 -1,-1 -1,-1 0,0 0,0 0,0 1,-1 1,-1 1,-1 0,0 0,-1 -1,-1 0,-1 0,-1 0,-1 0,0 1,-1 1,-1 0,0 1,0 0,0 0,-1 0,-1 0,-1 0,0 0,0 0,-1 0,0 1,-1 1,-1l0 0 -2 -14 -3 0c0,0 0,0 0,1l0 0c-1,0 -2,2 -2,2 0,0 -5,35 -5,36 0,2 0,3 0,3l5 15c0,0 0,0 0,0 0,1 0,1 1,1 0,1 0,2 0,3 0,1 0,2 0,3 0,0 -1,1 -1,1 -1,0 -1,1 -1,1l-3 16 -3 -1 0 0 0 0 0 0 0 0 0 0 0 0 0 0 0 0 0 0 0 0 0 0 -1 0 0 0 0 0 0 0 0 0 0 0 0 -1 0 0 0 0 0 0 0 0 0 0 0 0 0 0 0 0 0 0 0 0 0 0 0 0 0 0 0 0 0 0 0 0 0 0 0 0 0 0 0 0 0 0 0 0 0 0 0 0 0 0 0 0 0 0 0 0 -1 0c-1,0 -1,1 -1,1 0,0 0,2 -2,6 -1,2 -3,3 -5,2l0 0c0,0 -1,0 -2,0l0 0 -1 0 0 0 0 0 0 0 0 -1 0 0 0 0 0 0 0 0 0 0 0 0 -1 0 0 0 0 0 0 0 0 0 0 0 0 0 0 0 0 0 0 0 0 0 0 0 0 0 0 0 0 0 0 0 0 0 -1 0 0 0 0 0 0 0 0 0 0 0 0 0 0 0 0 0 0 0 0 0 0 0 0 0 0 0 0 0 0 0 0 0 0 0 0 0 0 0 0 0 -1 0 0 0 0 0 0 0 0 0 0 0 0 0 0 0 0 0 0 0 0 0 0 0 0 0c-2,0 -3,1 -3,1l0 1c-2,2 2,4 2,4 4,3 5,7 5,10 0,4 -3,9 -5,15 -2,5 -7,17 -11,28 -3,12 -4,26 -4,34 0,8 0,18 0,20 -1,1 -2,6 -2,8 0,3 2,5 3,6 1,0 3,1 3,1l4 0c4,1 5,-1 6,-4l0 -1 0 0c0,0 0,0 0,-1l0 0 0 0 0 0 0 0 0 0 0 -1 0 0 0 0 0 0 0 0 0 0 0 -1 0 0 0 0 0 0 0 -1 0 0 0 0 0 0 1 0 0 0 0 -1 0 0 0 0 0 0 0 0 0 0 0 -1 0 0 0 0 0 0 0 -1 0 0 0 0 0 0 0 0 0 -1 0 0 0 0 0 0 0 0 0 -1 0 0 0 0 0 0 0 -1 0 0 0 0 0 0 0 -1 0 0 0 0 0 -1 0 0 0 0 0 0 0 0 0 -1 0 0 0 0 0 0 0 -1 0 0 0 0 0 0 0 0 0 0 0 -1 0 0 0 0 0 0 0 0 0 -1 0 0 0 0 0 0 0 0 0 -1 0 0 1 0 0 0 0 0 0 0 0 -1 0 0 0 0 0 0 0 0 0 0 0 -1 0 0 0 0 0 0 0 0 0 0 0 0 0 0 0 -1 0 0 0 0 0 0 0 0 0 0 0 0 0 0 0 0 0 -1 0 0 0 0 0 0 0 0 0 0 0 0 0 0 0 -1 0 0 0 0 0 0 0 0 0 0 0 0 0 0 0 -1 0 0 0 0 0 0 0 0 0 0 0 -1 0 0 0 0 0 0 0 0 0 0 0 -1 0 0 0 0 0 0 0 0 0 0 0 -1 0 0 0 0 0 0 0 -1 0 0 0 0 0 0 0 0 0 0 0 -1 0 0 0 0 0 0 0 -1 0 0 0 0 0 0 0 -1 0 0 0 0 0 -1 0 0 0 0 0 0 0 0 0 0 0 -1 0 0 0 0 0 0 0 -1 0 0 0 0 0 0 0 -1 0 0 0 0 0 0 0 -1 0 0 0 0 0 0 0 -1 0 0 0 0 0 0 0 -1 0 0 0 0 1 -1 0 0 0 0 0 -1 0 0 0 -1 0 0 0 0 0 -1 0 0 0 -1 0 -1 0 0 0 0 0 -1 0 0 0 0 0 -1 0 0 0 -1 0 0 1 -1 0 0 0 -1 0 0 0 -1 0 0 0 -1 0 0 0 -1 0 0 0 0 0 -1 1 0 0 -1 0 0 0 0 0 -1 0 0 0 -1 0 0 0 -1 1 0 0 0 0 -1 0 0 0 0 0 0 0 -1 0 0 0 0 0 -1 0 0 0 0 0 0 1 -1 0 0 0 0 0 -1 0 0 0 0 0 0 0 0 0 -1 0 0 1 -1 0 0 0 0 0 0 0 0 0 -1 0 0 0 0 0 0 0 0 1 -1 0 0 0 0 0 0 0 -1 0 0 0 0 0 0 0 0 0 -1 0 0 0 0 0 0 0 0 0 0 1 0 0 -1 0 0 0 0 0 0 0 0 0 0 0 -1 0 0 0 0 0 0 0 0 0 0 0 0 1 -1 0 0 0 0 0 0 0 0 0 0 0 -1 0 0 0 0 0 0 0 0 0 0 0 0 0 0 0 -1 1 0 0 0 0 0 0 0 0 -1 0 0 0 0 0 0 0 -1 1 0 0 0 0 0 0 -1 0 0 0 0 0 -1 1 0 0 0 0 0 0 0 0 -1 0 0 0 0 0 -1 0 0 1 0 0 -1 0 0 0 0 0 0 0 0 0 -1 0 0 1 0 0 -1 0 0 0 0 0 -1 0 0 0 0 1 0 0 -1 0 0 0 0 0 0 0 -1 0 0 0 0 0 0 1 0 0 0 0 -1 0 0 0 0 0 0 0 -1 0 0 0 0 0 0 0 0 0 0 1 -1 0 0 0 0 0 0 0 0 0 0 0 -1 0 0 0 0 0 0 0 0 0 0 1 0 0 0 0 -1 0 0 0 0 0 0 0 0 0 0 0 0 0 -1 0 0 0 0 0 0 0 0 0 0 0 0 0 0 1 -1 0 0 0 0 0 0 0 0 0 0 0 0 0 0 0 0 0 0 0 0 0 0 0 -1 0 0 0 0 0 0 0 0 0 0 0 0 0 0 0 -1 0 0 1 0 0 0 0 0 0 0 0 0 0 0 0 -1 0 0 0 0 0 0 0 0 0 0 0 0 0 0 0 -1 0 0 1 0 0 0 0 0 0 0 0 -1 0 0 0 0 0 0 0 0 0 0 0 -1 0 0 0 0 0 0 1 0 0 0 0 -1 0 0 0 0 0 0 0 0 0 -1 0 0 0 0 0 0 1 0 0 0 0 -1 0 0 0 0 0 0 0 0 0 0 0 -1 0 0 0 0 0 0 0 0 0 0 1 -1 0 0 0 0 0 0 0 0 0 0 0 -1 0 0 0 0 0 0 0 -1 0 0 1 0 0 0 0 0 0 -1 0 0 0 0 0 0 0 0 0 -1 0 0 0 0 0 0 0 0 1 0 0 0 0 -1 0 0 0 0 0 0 0 0 0 0 0 0 0 0 0 -1 0 0 0 0 0 0 0 0 0 0 0 0 0 0 0 0 1 -1 0 0 0 0 0 0 0 0 0 0 0 0 0 -1 0 0 0 0 0 0 0 0 0 0 0 0 0 -1 0 0 0 0 0 0 0 0 0 0 1 -1 0 0 0 0 0 0 0 0 0 0 0 -1 0 0 0 0 0 0 0 0 0 0 0 -1 0 0 0 0 0 0 0 0 0 0 0 -1 0 0 1 0 0 0 0 0 0 0 0 -1 0 0 0 0 0 0 0 0 0 0 0 0 0 0 0 -1 0 0 0 0 0 0 0 0 0 0 0 0 0 -1 0 0 0 0 0 0 0 0 1 0 0 0 0 -1 0 0 0 0 0 0 0 0 0 0 0 0 0 0 0 -1 0 0 0 0 0 0 0 0 0 0 0 0 0 0 0 0 0 -1 0 0 0 0 0 0 0 0 0 0 0 0 0 0 0 0 0 0 0 0 0 0 0 -1 0 0 0 0 0 0 0 0 0 0 0 0 0 0 1 0 0 0 0 0 0 0 0 0 0 -1 0 0 0 0 0 0 0 0 0 0 0 0 0 0 0 0 0 0 0 0 0 0 0 0 0 -1 0 0 0 0 0 0 0 0 0 0 0 0 0 0 0 0 0 0 0 0 0 0 0 0 0 0 0 0 0 0 0 0 0 -1 0 0 0 0 0 0 0 0 0 0 0 0 0 0 0 0 0 0 0 0 -1 0 0 0 0 0 0 0 0 0 0 0 0 0 0 0 0 0 0 0 0 0 0 0 0 0 0 0 0 0 0 0 0 0 0 -1 0 0 0 0 0 0 0 0 0 0 0 0 0 0 0 0 0 0 0 0 -1 0c1,-2 4,-9 4,-10l0 0c0,0 0,0 0,0 2,1 4,1 6,1 2,0 4,0 6,-1 0,0 0,0 0,0 0,1 3,8 4,10l-1 0 0 0 0 0 0 0 0 0 0 0 0 0 0 0 0 0 0 0 0 0 0 0 0 0 0 0 0 0 0 0 0 0 0 0 0 0 0 0 0 0 0 0 0 1 0 0 0 0 0 0 0 0 0 0 0 0 0 0 0 0 0 0 0 0 0 0 0 0 0 0 0 0 0 0 0 0 0 0 0 0 0 0 0 0 0 0 0 0 0 0 0 0 0 0 0 0 0 0 0 0 0 0 0 0 -1 0 0 0 0 0 0 0 0 0 0 0 0 0 0 0 0 0 0 0 0 0 0 0 0 0 0 0 0 0 0 0 0 0 0 0 0 0 0 1 0 0 0 0 0 0 0 0 0 0 0 0 0 0 0 0 0 0 0 0 0 0 0 0 0 0 0 0 0 0 0 0 0 1 0 0 0 0 0 0 0 0 0 0 0 0 0 0 0 0 0 0 0 0 0 0 0 0 0 0 0 1 0 0 0 0 0 0 1 0 0 0 0 0 0 0 0 1 0 0 0 0 0 0 0 0 0 0 0 0 0 0 0 1 0 0 0 0 0 0 0 0 0 0 0 0 0 1 0 0 0 0 0 0 0 0 0 0 0 1 0 0 1 0 0 0 0 0 0 0 0 1 0 0 0 0 0 0 0 0 0 0 0 1 0 0 0 0 0 0 0 1 0 0 0 0 0 0 0 0 0 0 1 1 0 0 0 0 0 0 0 0 0 0 0 0 0 0 0 0 0 0 0 1 0 0 0 0 0 0 0 0 0 0 0 0 0 0 0 1 0 0 0 0 0 0 0 0 0 0 1 1 0 0 0 0 0 0 0 0 0 0 0 0 0 0 0 0 0 0 0 1 0 0 0 0 0 0 0 0 0 0 0 0 0 0 0 1 0 0 0 0 0 0 0 0 0 0 0 0 0 0 0 0 0 0 0 0 0 0 0 0 0 0 1 1 0 0 0 0 0 0 0 0 0 0 0 0 0 0 0 0 0 0 0 0 0 0 0 1 0 0 0 0 0 0 0 0 0 0 0 0 0 0 0 0 0 0 0 1 0 0 1 0 0 0 0 0 0 0 0 1 0 0 0 0 0 0 0 1 0 0 1 0 0 0 0 2 0 0 1 2 0 0c2,4 4,7 4,9l1 1 0 0 0 1 0 0 0 0 0 0 0 0 0 0 0 1 0 0 1 0 0 0 0 1 0 0 0 0 0 0 1 1 0 0 0 1 0 0 1 2 0 0 0 0 0 0 0 1 0 0 1 0 0 0 0 1 0 0 0 0 0 0 0 1 0 0 1 0 0 0 0 0 0 0 0 1 0 0 0 0 0 0 0 0 0 0 0 1 0 0 1 0 0 0 0 1 0 0 0 1 0 0 0 0 0 0 1 1 0 0 1 1 0 0 0 1 0 0 0 0 0 0 0 0 0 0 0 1 0 0 0 0 0 0 0 0 0 0 1 1 0 0 0 0 0 0 0 0 0 0 0 0 0 0 0 0 0 0 0 0 0 0 0 1 0 0 0 0 0 0 0 0 0 0 0 0 0 0 1 1 0 0 0 0 0 0 0 0 0 0 0 0 0 0 0 1 0 0 0 0 0 0 0 0 0 1 0 0 1 0 0 0 0 0 0 0 0 0 0 0 0 1 0 0 0 0 0 0 0 1 0 0 0 0 0 0 1 1 0 0 0 0 0 0 0 1 0 0 0 0 0 0 1 1 0 0 0 1 0 0 0 0 0 0 0 1 0 0 1 1 0 0 0 1 0 0 0 1 0 0 0 0 0 0 0 1 1 0 0 1 0 0 0 0 0 1 0 0 0 1 0 0 0 1 1 0 0 1 0 0 0 1 0 0 0 1 0 0 0 1 0 0 0 1 0 0 1 1 0 0 0 0 0 1 0 0 0 1 0 0 0 0 0 1 0 0 0 0 0 1 0 1 0 0 0 0 0 1 0 0 0 0 0 0 0 1 0 0 0 0 0 0 0 1 0 0 0 0 0 0 1 1 0 0 0 0 0 0 0 1 0 0 0 1 0 0 0 1 0 0 0 0 0 0 0 1 0 0 0 1 0 0 0 1 0 0 0 1 0 0 0 0 0 0 0 1 0 0 0 1 0 0 0 1 0 0 0 0 0 0 0 0 0 0 0 1 0 0 0 0 0 0 0 1 0 0 0 0 0 0 0 0 0 0 0 1 0 0 0 0 0 0 0 0 0 0 0 1 0 0 0 0 0 0 0 0 0 0 0 1 0 0 0 0 0 0 0 0 0 0 0 0 0 0 0 1 0 0 0 0 0 0 0 0 0 0 0 0 0 0 0 1 0 0 0 0 0 0 0 0 0 0 0 0 0 0 0 0 0 1 0 0 0 0 0 0 0 0 0 0 0 0 0 0 0 1 0 0 0 0 0 0 0 0 0 1 0 0 0 0 0 0 1 0 0 0 0 1 0 0 0 0 0 0 0 0 0 1 0 0 0 0 0 0 0 0 0 0 0 1 0 0 0 0 0 0 0 0 0 0 0 1 0 0 0 0 0 0 0 1 0 0 0 0 0 0 0 0 0 0 0 1 0 0 0 0 0 0 0 1 0 0 0 0 0 0 0 0 0 0 0 1 0 0 0 1 0 0 0 0 0 0 0 0 0 1 0 0 0 0 0 0 0 1 0 0 0 1 0 0 0 0 0 0 0 1 0 0 1 0 0 0 0 0 0 1 0 0 0 0 0 0 0 0 0 1 0 0 0 0 0 0 0 0 0 1 0 0 0 0 0 0 0 0 0 0 0 0 0 1 0 0 0 0 0 0 0 0 0 0 0 0 0 0 0 0 0 1 0 0 0 0 0 0 0 0 0 0 0 0 0 0 0 0 0 0 0 0 0 1 0 0 0 0 0 0 0 0 0 0 0 0 0 0 1 0 0 0c0,3 2,4 5,3l4 0c0,0 2,-1 3,-1 1,-1 3,-3 3,-6 0,-2 -1,-7 -2,-8 0,-2 0,-12 0,-20 0,-8 -1,-22 -4,-34 -4,-11 -9,-23 -11,-28 -2,-6 -5,-11 -5,-15 0,-3 1,-7 5,-10 0,0 4,-2 2,-4l0 -1c0,0 -1,-1 -3,-1l0 0 0 0 0 0 0 0 0 0 0 0 0 0 0 0 0 0 0 0 0 0 0 0 -1 0 0 0 0 0 0 0 0 0 0 0 0 0 0 0 0 0 0 0 0 0 0 0 0 0 0 0 0 0 0 0 0 0 0 0 0 0 0 0 0 0 -1 0 0 0 0 0 0 0 0 0 0 0 0 0 0 0 0 0 0 0 0 0 0 0 0 0 0 0 0 0 0 0 0 0 -1 0 0 0 0 0 0 0 0 0 0 0 0 0c-1,1 -2,1 -3,1l0 0c-2,1 -4,0 -5,-2 -2,-4 -2,-6 -2,-6 0,0 0,-1 -1,-1l0 0 0 0 -1 0 0 0 0 0 0 0 0 0 0 0 0 0 0 0 0 0 0 0 0 0 0 0 0 0 0 0 0 0 0 0 0 0 0 0 0 0 0 0 0 0 0 0 0 0 0 0 0 0 0 0 0 0 0 0 0 1 0 0 0 0 0 0 0 0 -1 0 0 0 0 0 0 0 0 0 0 0 0 0 0 0 0 0 0 0 -3 1 -3 -16c0,0 0,-1 -1,-1 0,0 -1,-1 -1,-1 0,-1 0,-2 0,-3zm-32 -5c0,1 1,1 1,1 0,0 -1,0 -1,-1z"/>
  <path class="fil0" d="M2403 1465l101 0 0 -12 2 0 0 12 12 0 0 -12c0,0 1,0 2,0l0 12 12 0 0 -12c0,0 1,0 1,0l0 12 12 0 0 -12c1,0 2,0 2,0l0 12 12 0 0 -12c1,0 1,0 2,0l0 12 12 0 0 -12c1,0 1,0 2,0l0 12 12 0 0 -12c0,0 1,0 1,0l0 12 13 0 0 -12c0,0 1,0 1,0l0 12 12 0 0 -12c1,0 1,0 2,0l0 12 12 0 0 -12c1,0 1,0 2,0l0 12 12 0 0 -12c0,0 1,0 2,0l0 12 12 0 0 -12c0,0 1,0 1,0l0 12 12 0 0 -12c1,0 2,0 2,0l0 12 12 0 0 -12c1,0 1,0 2,0l0 12 12 0 0 -12c1,0 1,0 2,0l0 12 12 0 0 -12c0,0 1,0 1,0l0 12 13 0 0 -12c0,0 1,0 1,0l0 12 12 0 0 -12c1,0 1,0 2,0l0 12 12 0 0 -12c1,0 1,0 2,0l0 12 12 0 0 -12c1,0 1,0 2,0l0 12 12 0 0 -12c0,0 1,0 1,0l0 12 13 0 0 -12c0,0 1,0 1,0l0 12 12 0 0 -12c1,0 1,0 2,0l0 12 12 0 0 -12c1,0 1,0 2,0l0 12 12 0 0 -12c0,0 1,0 2,0l0 12 12 0 0 -12c0,0 1,0 1,0l0 12 12 0 0 -12c1,0 2,0 2,0l0 12 12 0 0 -12c1,0 1,0 2,0l0 12 12 0 0 -12c1,0 1,0 2,0l0 12 12 0 0 -12c0,0 1,0 1,0l0 12 13 0 0 -12 1 0 0 12 65 0 0 -72 -581 0 0 72zm20 -27c5,0 9,-4 9,-9 0,-5 -4,-9 -9,-9 -4,0 -8,4 -8,9 0,5 4,9 8,9zm537 3c5,-9 4,-20 -4,-28 -7,-8 -19,-9 -28,-4l32 32zm-40 -23c-5,8 -4,20 4,28 7,7 19,8 28,3l-32 -31zm-438 34c10,-3 17,-12 17,-23 0,-10 -7,-20 -17,-22l0 45zm-12 -45c-10,2 -17,12 -17,22 0,11 7,20 17,23l0 -45z"/>
  <polygon class="fil0" points="892,940 1031,940 1034,940 1034,945 1031,945 1030,1044 892,1044 892,945 889,945 889,940 "/>
  <path class="fil2" d="M919 994l-7 0 0 -5c0,-2 0,-3 0,-3 -1,0 -1,0 -1,0 -1,0 -1,0 -2,0 0,1 0,2 0,3l0 13c0,2 0,2 0,3 1,0 1,1 2,1 0,0 0,-1 1,-1 0,-1 0,-2 0,-3l0 -4 7 0 0 1c0,3 0,5 0,7 -1,1 -2,2 -3,3 -2,1 -3,1 -5,1 -3,0 -4,0 -6,-1 -1,-1 -2,-2 -2,-3 -1,-1 -1,-4 -1,-6l0 -9c0,-2 0,-3 0,-4 0,-1 1,-2 1,-3 1,-1 2,-2 3,-2 1,-1 3,-1 4,-1 3,0 4,0 6,1 1,1 2,2 3,3 0,1 0,3 0,6l0 3zm20 4c0,3 0,5 0,6 -1,1 -1,2 -2,3 0,1 -1,2 -3,3 -1,0 -2,0 -4,0 -1,0 -3,0 -4,0 -1,-1 -2,-2 -3,-3 -1,-1 -1,-2 -1,-3 0,-1 0,-3 0,-6l0 -5c0,-3 0,-5 0,-6 0,-1 0,-2 1,-3 1,-1 2,-2 3,-2 1,-1 3,-1 4,-1 2,0 3,0 4,1 2,0 2,1 3,2 1,1 1,2 2,3 0,1 0,3 0,6l0 5zm-8 -9c0,-2 0,-3 0,-3 0,0 0,0 -1,0 0,0 0,0 -1,0 0,0 0,1 0,3l0 13c0,2 0,3 0,3 0,0 1,1 1,1 1,0 1,-1 1,-1 0,-1 0,-2 0,-3l0 -13zm18 -8l0 23 4 0 0 6 -11 0 0 -29 7 0zm22 17c0,3 0,5 0,6 0,1 0,2 -1,3 -1,1 -2,2 -3,3 -1,0 -3,0 -4,0 -2,0 -3,0 -4,0 -1,-1 -2,-2 -3,-3 -1,-1 -1,-2 -1,-3 -1,-1 -1,-3 -1,-6l0 -5c0,-3 0,-5 1,-6 0,-1 0,-2 1,-3 1,-1 2,-2 3,-2 1,-1 2,-1 4,-1 1,0 3,0 4,1 1,0 2,1 3,2 1,1 1,2 1,3 0,1 0,3 0,6l0 5zm-7 -9c0,-2 0,-3 0,-3 0,0 -1,0 -1,0 0,0 -1,0 -1,0 0,0 0,1 0,3l0 13c0,2 0,3 0,3 0,0 0,1 1,1 0,0 1,-1 1,-1 0,-1 0,-2 0,-3l0 -13zm27 -8l0 19c0,2 0,4 0,5 0,1 -1,2 -2,3 0,0 -1,1 -2,2 -1,0 -3,0 -4,0 -2,0 -3,0 -5,-1 -1,0 -2,-1 -3,-2 0,-1 -1,-2 -1,-3 0,-1 0,-3 0,-6l0 -17 7 0 0 22c0,1 1,2 1,2 0,0 0,1 0,1 1,0 1,-1 1,-1 0,0 1,-1 1,-3l0 -21 7 0zm3 0l5 0c4,0 6,0 7,1 1,0 2,1 3,2 1,1 1,3 1,5 0,2 0,4 -1,5 0,0 -1,1 -3,1 2,0 3,1 3,1 1,1 1,2 1,2 0,1 0,2 0,4l0 8 -7 0 0 -10c0,-1 0,-2 0,-3 0,0 -1,0 -2,0l0 13 -7 0 0 -29zm7 5l0 6c1,0 2,0 2,0 0,0 0,-1 0,-2l0 -2c0,-1 0,-1 0,-1 0,-1 -1,-1 -2,-1z"/>
  <polygon class="fil0" points="1109,937 1248,940 1250,940 1250,945 1248,945 1248,1044 1109,1044 1109,943 1106,943 1106,937 "/>
  <polygon class="fil0" points="1293,940 1433,940 1436,940 1436,945 1433,945 1431,1044 1293,1044 1293,945 1290,945 1290,940 "/>
  <polygon class="fil0" points="915,946 833,834 844,836 937,956 "/>
  <path class="fil0" d="M2810 888c29,0 52,24 52,53 0,29 -23,52 -52,52 -29,0 -52,-23 -52,-52 0,-29 23,-53 52,-53zm0 12c22,0 40,18 40,41 0,22 -18,40 -40,40 -22,0 -41,-18 -41,-40 0,-23 19,-41 41,-41z"/>
  <path class="fil0" d="M2810 888c18,0 32,15 32,32 0,18 -14,33 -32,33 -18,0 -32,-15 -32,-33 0,-17 14,-32 32,-32zm0 8c14,0 25,11 25,24 0,14 -11,25 -25,25 -14,0 -25,-11 -25,-25 0,-13 11,-24 25,-24z"/>
  <path class="fil0" d="M2810 888c22,0 40,18 40,40 0,23 -18,41 -40,41 -22,0 -40,-18 -40,-41 0,-22 18,-40 40,-40zm0 9c17,0 31,14 31,31 0,17 -14,31 -31,31 -17,0 -31,-14 -31,-31 0,-17 14,-31 31,-31z"/>
  <path class="fil1" d="M1178 428l-6 0 0 -3c0,-2 0,-2 0,-3 0,0 -1,0 -1,0 -1,0 -1,0 -1,1 0,0 0,1 0,2l0 10c0,1 0,2 0,2 0,0 0,0 1,0 0,0 1,0 1,0 0,0 0,-1 0,-2l0 -3 6 0 0 1c0,2 -1,4 -1,4 0,1 -1,2 -2,3 -1,1 -2,1 -4,1 -2,0 -3,0 -4,-1 -1,0 -2,-1 -2,-2 -1,-1 -1,-3 -1,-5l0 -6c0,-2 0,-3 0,-4 1,-1 1,-2 1,-2 1,-1 2,-2 3,-2 1,0 2,-1 3,-1 1,0 3,1 4,1 1,1 2,2 2,3 0,1 1,2 1,4l0 2zm14 4c0,2 0,3 0,4 0,1 0,2 -1,3 0,0 -1,1 -2,1 -1,1 -2,1 -3,1 -1,0 -2,0 -3,-1 -1,0 -2,0 -2,-1 -1,-1 -1,-2 -1,-3 -1,-1 -1,-2 -1,-4l0 -4c0,-2 0,-4 1,-5 0,-1 0,-2 1,-2 0,-1 1,-2 2,-2 1,0 2,-1 3,-1 1,0 2,1 3,1 1,0 2,1 2,2 1,0 1,1 1,2 0,1 0,3 0,5l0 4zm-5 -8c0,-1 0,-1 0,-1 0,-1 -1,-1 -1,-1 0,0 -1,0 -1,0 0,1 0,1 0,2l0 11c0,1 0,2 0,2 0,0 1,0 1,0 0,0 1,0 1,0 0,0 0,-1 0,-3l0 -10zm13 -5l0 17 4 0 0 5 -9 0 0 -22 5 0zm18 13c0,2 -1,3 -1,4 0,1 0,2 -1,3 0,0 -1,1 -2,1 -1,1 -2,1 -3,1 -1,0 -2,0 -3,-1 -1,0 -2,0 -2,-1 -1,-1 -1,-2 -1,-3 0,-1 -1,-2 -1,-4l0 -4c0,-2 1,-4 1,-5 0,-1 0,-2 1,-2 0,-1 1,-2 2,-2 1,0 2,-1 3,-1 1,0 2,1 3,1 1,0 2,1 2,2 1,0 1,1 1,2 0,1 1,3 1,5l0 4zm-6 -8c0,-1 0,-1 0,-1 0,-1 -1,-1 -1,-1 0,0 0,0 -1,0 0,1 0,1 0,2l0 11c0,1 0,2 0,2 0,0 1,0 1,0 0,0 1,0 1,0 0,0 0,-1 0,-3l0 -10zm20 -5l0 14c0,2 0,3 0,4 0,0 0,1 -1,2 0,1 -1,1 -2,1 -1,1 -2,1 -3,1 -1,0 -2,0 -3,-1 -1,0 -2,-1 -2,-1 -1,-1 -1,-2 -1,-2 0,-1 0,-3 0,-5l0 -13 5 0 0 16c0,1 0,2 0,2 0,0 1,0 1,0 0,0 1,0 1,0 0,0 0,-1 0,-2l0 -16 5 0zm3 0l4 0c2,0 4,0 5,0 1,0 2,1 2,2 1,1 1,2 1,4 0,1 0,3 0,3 -1,1 -2,1 -3,1 1,0 2,1 2,1 1,1 1,1 1,2 0,0 0,1 0,3l0 6 -5 0 0 -8c0,-1 0,-2 0,-2 0,0 -1,0 -2,0l0 10 -5 0 0 -22zm5 4l0 4c1,0 1,0 2,0 0,0 0,-1 0,-2l0 -1c0,0 0,-1 0,-1 -1,0 -1,0 -2,0z"/>
  <circle class="fil0" cx="1819" cy="496" r="7"/>
  <path class="fil1" d="M1390 861l-33 0 0 -2 0 -10 0 -18 10 0c2,0 3,-1 3,-2l0 -5 0 -25c0,-2 -1,-3 -3,-3l-10 0 0 -14 0 -152 -5 0 0 -2c0,0 7,-2 7,-6l4 0c0,0 1,0 1,-3l2 0c1,0 3,-2 3,-3l0 -4 0 -2 0 -4c0,-2 -2,-3 -3,-3l-3 0c-14,-13 -38,-24 -45,-27 -1,0 -2,0 -2,0 0,-1 -1,-1 -1,-1l0 0c-8,-3 -19,-4 -19,-4 -34,-6 -51,16 -51,16 -25,31 -24,113 -24,113l0 12c0,0 -1,82 24,113 0,0 17,22 51,16 0,0 22,-3 29,-10l11 0 0 18 0 10 0 2 -85 0 0 -1c0,0 -1,-1 -2,-1 0,0 -1,1 -1,1l0 9c0,0 1,1 1,1 1,0 2,-1 2,-1l0 -1 85 0 0 9c0,2 2,3 3,3l15 0c2,0 3,-1 3,-3l0 -9 33 0 0 1c0,0 0,1 1,1 1,0 1,-1 1,-1l0 -9c0,0 0,-1 -1,-1 -1,0 -1,1 -1,1l0 1zm-60 -242c0,3 1,3 1,3l4 0c0,4 7,6 7,6l0 2 -6 0 0 166 -15 0 -1 0 -28 0c0,0 -15,1 -15,-14 0,-16 0,-70 0,-70l0 -12c0,0 0,-54 0,-70 0,-16 15,-14 15,-14l29 0 4 0c1,2 2,3 3,3l2 0z"/>
  <path class="fil1" d="M1226 868l-44 0 0 -2 0 -24 0 -18 9 0c2,0 3,-1 3,-3l0 -4 0 -25c0,-2 -1,-3 -3,-3l-9 0 0 -14 0 -152 -5 0 0 -2c0,0 6,-2 6,-6l4 0c0,0 1,0 1,-4l2 0c2,0 3,-1 3,-3l0 -3 0 -2 0 -4c0,-2 -1,-3 -3,-3l-2 0c-15,-14 -39,-24 -46,-27 -1,0 -1,0 -2,-1 0,0 0,0 0,0l0 0c-9,-3 -20,-5 -20,-5 -33,-5 -51,17 -51,17 -25,31 -24,113 -24,113l0 12c0,0 -1,82 24,113 0,0 18,22 51,16 0,0 22,-3 29,-10l12 0 0 18 0 24 0 2 -76 0 0 0c0,-1 0,-1 -1,-1 0,0 -1,0 -1,1l0 8c0,0 1,1 1,1 1,0 1,-1 1,-1l0 -1 76 0 0 9c0,2 1,3 3,3l15 0c1,0 3,-1 3,-3l0 -9 44 0 0 1c0,0 0,1 1,1 0,0 1,-1 1,-1l0 -8c0,-1 -1,-1 -1,-1 -1,0 -1,0 -1,1l0 0zm-72 -257c0,4 1,4 1,4l4 0c0,4 7,6 7,6l0 2 -5 0 0 166 -15 0 -2 0 -28 0c0,0 -14,1 -14,-14 0,-16 0,-70 0,-70l0 -12c0,0 0,-55 0,-70 0,-16 14,-14 14,-14l30 0 4 0c0,1 1,2 2,2l2 0z"/>
  <path class="fil0" d="M908 555l62 0c3,0 5,2 5,5l0 314c0,2 -2,4 -5,4l-62 0c-3,0 -5,-2 -5,-4l0 -314c0,-3 2,-5 5,-5zm31 12c14,0 26,12 26,26 0,14 -12,26 -26,26 -14,0 -26,-12 -26,-26 0,-14 12,-26 26,-26zm0 61c13,0 24,11 24,24 0,13 -11,24 -24,24 -13,0 -24,-11 -24,-24 0,-13 11,-24 24,-24zm0 53c12,0 21,10 21,22 0,11 -9,21 -21,21 -12,0 -21,-10 -21,-21 0,-12 9,-22 21,-22zm0 47c10,0 19,9 19,19 0,11 -9,19 -19,19 -11,0 -19,-8 -19,-19 0,-10 8,-19 19,-19zm0 42c9,0 16,8 16,17 0,9 -7,16 -16,16 -9,0 -17,-7 -17,-16 0,-9 8,-17 17,-17zm0 38c8,0 14,7 14,15 0,7 -6,14 -14,14 -8,0 -14,-7 -14,-14 0,-8 6,-15 14,-15zm0 35c6,0 12,6 12,12 0,7 -6,12 -12,12 -7,0 -12,-5 -12,-12 0,-6 5,-12 12,-12z"/>
  <path class="fil2" d="M339 996l0 7 -3 0c2,1 3,3 3,6 0,2 0,4 -2,5 -1,1 -4,2 -6,2l-1 0c-3,0 -5,-1 -7,-2 -2,-2 -2,-3 -2,-6 0,-2 0,-3 1,-4l-5 0c-2,0 -2,0 -2,1 0,1 0,2 2,2l2 0 0 8 -2 0c-2,0 -5,-1 -7,-3 -1,-2 -2,-4 -2,-7 0,-2 1,-5 2,-7 2,-2 4,-2 7,-2l22 0zm-8 8l-2 0c-2,0 -3,0 -3,2 0,1 1,2 3,2l2 0c1,0 2,-1 2,-2 0,-2 -1,-2 -2,-2zm-33 -32l41 0 0 7 -3 1c2,1 3,2 3,5 0,2 0,4 -2,5 -1,2 -3,2 -6,2l-15 0c-2,0 -4,0 -6,-2 -1,-1 -2,-3 -2,-5 0,-2 0,-4 1,-5l-11 0 0 -8zm32 8l-13 0c0,0 -1,1 -1,1 0,0 -1,1 -1,1 0,1 1,1 1,2 0,0 1,0 1,0l13 0c0,0 1,0 1,0 1,-1 1,-1 1,-2 0,0 0,-1 -1,-1 0,0 -1,-1 -1,-1zm-13 -20l22 0 0 8 -41 0 0 -8 13 0c-2,-1 -3,-3 -3,-5 0,-2 0,-4 2,-5 1,-1 3,-2 6,-2l23 0 0 8 -22 0c-1,0 -2,1 -2,2 0,1 1,2 2,2zm8 -35l0 12 5 0c0,0 1,0 1,-1 1,0 1,-1 1,-1 0,-1 0,-1 -1,-1 0,-1 -1,-1 -1,-1l-3 0 0 -8 3 0c3,0 5,1 7,3 1,2 2,5 2,7 0,3 0,5 -2,7 -2,2 -4,3 -7,3l-13 0c-2,0 -5,-1 -7,-3 -1,-2 -2,-4 -2,-7 0,-3 1,-5 2,-7 2,-2 4,-3 7,-3l8 0zm-8 12l3 0 0 -4 -3 0c-1,0 -2,0 -2,1 0,0 -1,0 -1,1 0,0 1,1 1,1 0,1 1,1 2,1zm1 -26l-1 0c-2,0 -2,1 -2,2 0,1 0,1 1,1 1,0 1,0 2,-1 1,0 1,-1 2,-3 3,-5 6,-7 10,-7 3,0 5,1 7,3 1,2 2,4 2,7 0,3 -1,5 -2,7 -2,2 -4,3 -7,3l-1 0 0 -8 1 0c1,0 1,0 2,-1 0,0 0,0 0,-1 0,-1 0,-1 0,-1 -1,-1 -1,-1 -2,-1 0,0 -1,0 -2,1 0,1 -1,2 -2,4 -1,2 -2,4 -4,5 -1,1 -3,1 -6,1 -2,0 -4,0 -6,-2 -1,-2 -2,-4 -2,-7 0,-3 1,-5 2,-7 2,-2 4,-3 7,-3l1 0 0 8zm21 -12l-31 0 0 -8 31 0 0 8zm-34 0c-1,1 -3,1 -4,1 -1,0 -3,0 -3,-1 -1,-1 -2,-2 -2,-4 0,-1 1,-2 2,-3 0,-1 2,-2 3,-2 1,0 3,1 4,2 1,1 1,2 1,3 0,2 0,3 -1,4zm3 -31l31 6 0 8 -31 7 0 -9 18 -2 -18 -2 0 -8zm17 -21l0 12 5 0c0,0 1,-1 1,-1 1,0 1,-1 1,-1 0,-1 0,-1 -1,-2 0,0 -1,0 -1,0l-3 0 0 -8 3 0c3,0 5,1 7,3 1,2 2,4 2,7 0,3 0,5 -2,7 -2,2 -4,3 -7,3l-13 0c-2,0 -5,-1 -7,-3 -1,-2 -2,-4 -2,-7 0,-3 1,-5 2,-7 2,-2 4,-3 7,-3l8 0zm-8 12l3 0 0 -4 -3 0c-1,0 -2,0 -2,0 0,1 -1,1 -1,2 0,0 1,1 1,1 0,0 1,1 2,1z"/>
  <polygon class="fil0" points="132,1039 3243,1039 3243,1078 132,1078 "/>
  <path class="fil2" d="M874 447l0 -10 5 0c3,0 6,1 8,4 3,2 4,5 4,8 0,4 -1,7 -3,9 -3,2 -5,3 -9,3l-16 0c-3,0 -6,-1 -8,-3 -2,-3 -4,-6 -4,-9 0,-3 2,-6 4,-8 2,-3 5,-4 8,-4l5 0 0 10 -5 0c-1,0 -2,1 -2,2 0,1 1,2 2,2l16 0c2,0 2,-1 2,-2 0,-1 0,-2 -2,-2l-5 0z"/>
  <path id="1" class="fil2" d="M879 434l-15 0c-4,0 -7,-2 -9,-4 -2,-3 -4,-6 -4,-9 0,-4 2,-7 4,-9 2,-2 5,-4 8,-4l16 0c3,0 6,2 8,4 3,3 4,6 4,9 0,4 -1,7 -3,9 -3,2 -5,4 -9,4zm-16 -11l16 0c1,0 1,0 2,0 0,-1 0,-1 0,-2 0,-1 0,-1 0,-2 -1,0 -1,0 -2,0l-16 0c0,0 -1,0 -1,0 -1,1 -1,1 -1,2 0,1 0,1 1,2 0,0 1,0 1,0z"/>
  <polygon id="2" class="fil2" points="890,404 839,404 839,393 890,393 "/>
  <path id="3" class="fil2" d="M879 389l-15 0c-4,0 -7,-2 -9,-4 -2,-3 -4,-6 -4,-9 0,-4 2,-6 4,-9 2,-2 5,-3 8,-3l16 0c3,0 6,1 8,3 3,3 4,6 4,9 0,4 -1,7 -3,9 -3,2 -5,4 -9,4zm-16 -11l16 0c1,0 1,0 2,0 0,-1 0,-1 0,-2 0,-1 0,-1 0,-2 -1,0 -1,0 -2,0l-16 0c0,0 -1,0 -1,0 -1,1 -1,1 -1,2 0,1 0,1 1,2 0,0 1,0 1,0z"/>
  <path id="4" class="fil2" d="M879 345l-27 0 0 -10 38 0 0 9 -4 0c3,1 5,4 5,7 0,3 -1,5 -3,6 -1,2 -4,3 -8,3l-28 0 0 -11 27 0c2,0 2,0 2,-2 0,-1 0,-2 -2,-2z"/>
  <path id="5" class="fil2" d="M890 330l-38 0 0 -9 6 -1c-4,-1 -7,-4 -7,-8l12 0 0 2c0,2 1,3 2,4 0,1 2,1 3,1l22 0 0 11z"/>
  <path class="fil1" d="M1411 1440c-11,1 -48,6 -97,5 -59,-2 -94,-8 -117,-11 -12,-1 -30,-4 -49,-5l0 0 -1 0 -1 0 -1 0 -1 -1 -1 0 0 0 -1 0 -1 0 0 0 -1 0 0 0 -1 0 -1 0 0 0 0 0 -1 0 -1 0 0 0 -1 0 -1 0 0 0 -1 0 0 0 -1 0 -1 0 0 0 0 0 -1 -1 -1 0 0 0 -1 0 -1 0 0 0 -1 0 0 0 0 0 -1 0 -1 0 0 0 -1 0 -1 0 0 0 -1 0 0 0 0 0 -1 0 -1 0 0 0 -1 0 -1 0 0 0 -1 0 0 0 0 0 -1 0 -1 0 0 0 -1 0 0 0 -1 0 0 0 -1 0 0 0 -1 0 -1 0 0 0 0 0 -1 0 0 0 -1 0 -1 0 0 0 0 0 -1 0 0 0 -1 0 -1 0 0 0 0 0 -1 0 0 0 -1 0 0 0 0 0 -1 0 -1 1 0 0 0 0 -1 0 0 0 -1 0 0 0c0,0 -29,3 -50,12 0,0 -11,4 -14,4 -3,-1 -6,-3 -7,-6 -2,-2 -14,-21 -14,-21 0,0 -3,-5 -3,-12 0,-7 0,-13 0,-13 0,0 0,-6 6,-6 7,0 44,1 63,0l1 0 0 0 1 0 0 0 0 0 1 0 0 0 1 0 0 0 1 0 0 0 1 0 0 0 1 0 0 0 1 0 0 0 1 0 1 0 0 0 1 0 1 0 0 0 1 0 1 0 0 0 1 0 0 0 1 0 0 0 2 0 0 0 1 0 0 0 1 0 1 0 0 0 1 0 1 0 1 0 0 0 1 0 0 0 2 0 0 0 1 0 0 0 2 0 0 0 1 0 1 0 0 0 1 0 1 0 1 0 0 0 2 0 0 0 1 0 0 0 2 0 0 0 1 0 1 0 1 0 0 0 1 0 1 0 1 0 1 0 0 0 2 0 0 0 1 0 1 0 1 0 0 0 2 0 0 0 1 0 1 0 1 0 1 0 0 0 1 0 1 0 1 0 0 0 2 0 0 0 2 0 0 0 1 1 0 0 2 0 0 0 1 0 1 0 1 0 1 0 0 0 1 0 1 0 1 0 0 0 2 0 0 0 1 0 1 0 1 0 0 0 1 0 1 0 1 1 1 0 0 0 1 0 1 0 1 0 0 0c5,0 9,1 13,1 31,4 74,10 92,10 17,1 42,-1 67,-8 0,0 16,-5 22,-4l51 1 -1 -9 0 -5c0,0 0,-2 5,-2l38 -1c0,0 3,-1 4,7 0,9 0,44 1,61 1,18 2,52 32,107 0,0 -55,17 -130,-7l50 -69c0,0 11,-14 2,-21l0 -9z"/>
  <path class="fil2" d="M1215 1024l0 6 -3 0c-2,0 -2,0 -3,0 0,0 0,0 0,1 0,0 0,1 0,1 1,0 2,0 3,0l10 0c1,0 2,0 3,0 0,0 0,-1 0,-1 0,-1 0,-1 0,-1 -1,0 -2,0 -3,0l-3 0 0 -6 1 0c2,0 4,0 5,0 1,1 2,1 3,3 1,1 1,2 1,4 0,1 0,3 -1,4 -1,1 -2,2 -3,2 -1,1 -2,1 -5,1l-6 0c-2,0 -3,0 -4,0 -1,0 -2,-1 -3,-1 0,-1 -1,-2 -1,-3 -1,-1 -1,-2 -1,-3 0,-2 0,-3 1,-4 1,-2 2,-2 3,-3 1,0 2,0 4,0l2 0zm4 -16c2,0 4,0 5,0 1,0 2,1 2,1 1,1 2,2 2,3 1,1 1,2 1,3 0,1 0,2 -1,3 0,1 -1,2 -1,3 -1,0 -2,1 -3,1 -1,0 -3,0 -5,0l-4 0c-2,0 -4,0 -5,0 -1,0 -2,-1 -3,-1 0,-1 -1,-2 -1,-3 -1,-1 -1,-2 -1,-3 0,-1 0,-2 1,-3 0,-1 1,-2 1,-3 1,0 2,-1 3,-1 1,0 3,0 5,0l4 0zm-8 6c-1,0 -1,0 -2,0 0,0 0,1 0,1 0,0 0,0 0,1 1,0 1,0 2,0l11 0c1,0 2,0 3,0 0,0 0,-1 0,-1 0,0 0,-1 -1,-1 0,0 -1,0 -2,0l-11 0zm-6 -14l19 0 0 -4 4 0 0 10 -23 0 0 -6zm14 -18c2,0 4,0 5,0 1,0 2,0 2,1 1,0 2,1 2,2 1,1 1,2 1,3 0,2 0,3 -1,4 0,1 -1,2 -1,2 -1,1 -2,1 -3,1 -1,0 -3,0 -5,0l-4 0c-2,0 -4,0 -5,0 -1,0 -2,0 -3,-1 0,0 -1,-1 -1,-2 -1,-1 -1,-2 -1,-4 0,-1 0,-2 1,-3 0,-1 1,-2 1,-2 1,-1 2,-1 3,-1 1,0 3,0 5,0l4 0zm-8 6c-1,0 -1,0 -2,0 0,0 0,0 0,0 0,1 0,1 0,1 1,0 1,0 2,0l11 0c1,0 2,0 3,0 0,0 0,0 0,0 0,-1 0,-1 -1,-1 0,0 -1,0 -2,0l-11 0zm-6 -22l16 0c2,0 3,0 3,0 1,0 2,0 3,1 0,1 1,1 1,2 1,1 1,2 1,3 0,2 0,3 -1,4 0,1 -1,2 -2,2 0,1 -1,1 -2,1 -1,0 -2,0 -5,0l-14 0 0 -6 18 0c1,0 1,0 2,0 0,0 0,0 0,0 0,-1 0,-1 0,-1 -1,0 -1,0 -3,0l-17 0 0 -6zm0 -2l0 -5c0,-3 1,-4 1,-5 0,-1 1,-2 1,-3 1,0 3,-1 5,-1 2,0 3,0 3,1 1,0 1,1 1,2 1,-1 1,-1 2,-2 0,0 1,-1 1,-1 0,0 2,0 3,0l6 0 0 6 -7 0c-1,0 -2,0 -2,0 -1,0 -1,1 -1,2l10 0 0 6 -23 0zm4 -6l6 0c0,-1 -1,-2 -1,-2 0,0 -1,0 -2,0l-1 0c-1,0 -1,0 -1,0 0,0 -1,1 -1,2z"/>
 </g>
</svg>
